<svg width="144" height="64" viewBox="0 0 144 64" fill="none" xmlns="http://www.w3.org/2000/svg">
<path d="M48.358 28.64L44.038 38.8C43.9446 39.0533 43.798 39.2533 43.598 39.4C43.4113 39.5333 43.2046 39.6 42.978 39.6C42.618 39.6 42.3513 39.5 42.178 39.3C42.0046 39.1 41.918 38.8533 41.918 38.56C41.918 38.44 41.938 38.3133 41.978 38.18L46.958 26.22C47.0646 25.9533 47.2246 25.7467 47.438 25.6C47.6646 25.4533 47.9046 25.3933 48.158 25.42C48.398 25.42 48.618 25.4933 48.818 25.64C49.0313 25.7733 49.1846 25.9667 49.278 26.22L54.198 37.94C54.2646 38.1133 54.298 38.2733 54.298 38.42C54.298 38.78 54.178 39.0667 53.938 39.28C53.7113 39.4933 53.458 39.6 53.178 39.6C52.938 39.6 52.718 39.5267 52.518 39.38C52.3313 39.2333 52.1846 39.0333 52.078 38.78L47.778 28.76L48.358 28.64ZM44.658 36.36L45.758 34.06H51.158L51.538 36.36H44.658ZM61.9314 28.6C62.8647 28.6 63.6981 28.84 64.4314 29.32C65.1781 29.7867 65.7647 30.4333 66.1914 31.26C66.6314 32.0867 66.8514 33.0467 66.8514 34.14C66.8514 35.2333 66.6314 36.2 66.1914 37.04C65.7647 37.8667 65.1847 38.52 64.4514 39C63.7314 39.4667 62.9181 39.7 62.0114 39.7C61.4781 39.7 60.9781 39.6133 60.5114 39.44C60.0447 39.2667 59.6314 39.0467 59.2714 38.78C58.9247 38.5133 58.6514 38.2467 58.4514 37.98C58.2647 37.7 58.1714 37.4667 58.1714 37.28L58.7914 37.02V42.28C58.7914 42.6267 58.6781 42.9133 58.4514 43.14C58.2247 43.38 57.9381 43.5 57.5914 43.5C57.2447 43.5 56.9581 43.3867 56.7314 43.16C56.5047 42.9333 56.3914 42.64 56.3914 42.28V30.02C56.3914 29.6733 56.5047 29.3867 56.7314 29.16C56.9581 28.92 57.2447 28.8 57.5914 28.8C57.9381 28.8 58.2247 28.92 58.4514 29.16C58.6781 29.3867 58.7914 29.6733 58.7914 30.02V31L58.4514 30.82C58.4514 30.6467 58.5447 30.44 58.7314 30.2C58.9181 29.9467 59.1714 29.7 59.4914 29.46C59.8114 29.2067 60.1781 29 60.5914 28.84C61.0181 28.68 61.4647 28.6 61.9314 28.6ZM61.6314 30.8C61.0447 30.8 60.5314 30.9467 60.0914 31.24C59.6514 31.5333 59.3047 31.9333 59.0514 32.44C58.8114 32.9333 58.6914 33.5 58.6914 34.14C58.6914 34.7667 58.8114 35.34 59.0514 35.86C59.3047 36.3667 59.6514 36.7667 60.0914 37.06C60.5314 37.3533 61.0447 37.5 61.6314 37.5C62.2181 37.5 62.7247 37.3533 63.1514 37.06C63.5914 36.7667 63.9314 36.3667 64.1714 35.86C64.4247 35.34 64.5514 34.7667 64.5514 34.14C64.5514 33.5 64.4247 32.9333 64.1714 32.44C63.9314 31.9333 63.5914 31.5333 63.1514 31.24C62.7247 30.9467 62.2181 30.8 61.6314 30.8ZM79.93 34.16C79.93 35.2533 79.6833 36.22 79.19 37.06C78.71 37.8867 78.0567 38.5333 77.23 39C76.4167 39.4667 75.5033 39.7 74.49 39.7C73.4767 39.7 72.5567 39.4667 71.73 39C70.9167 38.5333 70.2633 37.8867 69.77 37.06C69.29 36.22 69.05 35.2533 69.05 34.16C69.05 33.0667 69.29 32.1067 69.77 31.28C70.2633 30.44 70.9167 29.7867 71.73 29.32C72.5567 28.84 73.4767 28.6 74.49 28.6C75.5033 28.6 76.4167 28.84 77.23 29.32C78.0567 29.7867 78.71 30.44 79.19 31.28C79.6833 32.1067 79.93 33.0667 79.93 34.16ZM77.53 34.16C77.53 33.48 77.39 32.8933 77.11 32.4C76.8433 31.8933 76.4767 31.5 76.01 31.22C75.5567 30.94 75.05 30.8 74.49 30.8C73.93 30.8 73.4167 30.94 72.95 31.22C72.4967 31.5 72.13 31.8933 71.85 32.4C71.5833 32.8933 71.45 33.48 71.45 34.16C71.45 34.8267 71.5833 35.4133 71.85 35.92C72.13 36.4133 72.4967 36.8 72.95 37.08C73.4167 37.36 73.93 37.5 74.49 37.5C75.05 37.5 75.5567 37.36 76.01 37.08C76.4767 36.8 76.8433 36.4133 77.11 35.92C77.39 35.4133 77.53 34.8267 77.53 34.16ZM84.8905 38.28C84.8905 38.6267 84.7771 38.92 84.5505 39.16C84.3238 39.3867 84.0371 39.5 83.6905 39.5C83.3438 39.5 83.0571 39.3867 82.8305 39.16C82.6038 38.92 82.4905 38.6267 82.4905 38.28V30.02C82.4905 29.6733 82.6038 29.3867 82.8305 29.16C83.0571 28.92 83.3438 28.8 83.6905 28.8C84.0371 28.8 84.3238 28.92 84.5505 29.16C84.7771 29.3867 84.8905 29.6733 84.8905 30.02V38.28ZM83.6705 27.5C83.2171 27.5 82.8971 27.4267 82.7105 27.28C82.5238 27.1333 82.4305 26.8733 82.4305 26.5V26.12C82.4305 25.7333 82.5305 25.4733 82.7305 25.34C82.9438 25.1933 83.2638 25.12 83.6905 25.12C84.1571 25.12 84.4838 25.1933 84.6705 25.34C84.8571 25.4867 84.9505 25.7467 84.9505 26.12V26.5C84.9505 26.8867 84.8505 27.1533 84.6505 27.3C84.4505 27.4333 84.1238 27.5 83.6705 27.5ZM96.717 28.6C97.0637 28.6 97.3504 28.7133 97.577 28.94C97.8037 29.1667 97.917 29.46 97.917 29.82V38.28C97.917 38.6267 97.8037 38.92 97.577 39.16C97.3504 39.3867 97.0637 39.5 96.717 39.5C96.3704 39.5 96.0837 39.3867 95.857 39.16C95.6304 38.92 95.517 38.6267 95.517 38.28V37.3L95.957 37.48C95.957 37.6533 95.8637 37.8667 95.677 38.12C95.4904 38.36 95.237 38.6 94.917 38.84C94.597 39.08 94.217 39.2867 93.777 39.46C93.3504 39.62 92.8837 39.7 92.377 39.7C91.457 39.7 90.6237 39.4667 89.877 39C89.1304 38.52 88.537 37.8667 88.097 37.04C87.6704 36.2 87.457 35.24 87.457 34.16C87.457 33.0667 87.6704 32.1067 88.097 31.28C88.537 30.44 89.1237 29.7867 89.857 29.32C90.5904 28.84 91.4037 28.6 92.297 28.6C92.8704 28.6 93.397 28.6867 93.877 28.86C94.357 29.0333 94.7704 29.2533 95.117 29.52C95.477 29.7867 95.7504 30.06 95.937 30.34C96.137 30.6067 96.237 30.8333 96.237 31.02L95.517 31.28V29.82C95.517 29.4733 95.6304 29.1867 95.857 28.96C96.0837 28.72 96.3704 28.6 96.717 28.6ZM92.677 37.5C93.2637 37.5 93.777 37.3533 94.217 37.06C94.657 36.7667 94.997 36.3667 95.237 35.86C95.4904 35.3533 95.617 34.7867 95.617 34.16C95.617 33.52 95.4904 32.9467 95.237 32.44C94.997 31.9333 94.657 31.5333 94.217 31.24C93.777 30.9467 93.2637 30.8 92.677 30.8C92.1037 30.8 91.597 30.9467 91.157 31.24C90.717 31.5333 90.3704 31.9333 90.117 32.44C89.877 32.9467 89.757 33.52 89.757 34.16C89.757 34.7867 89.877 35.3533 90.117 35.86C90.3704 36.3667 90.717 36.7667 91.157 37.06C91.597 37.3533 92.1037 37.5 92.677 37.5ZM102.316 39.5C101.969 39.5 101.682 39.3867 101.456 39.16C101.229 38.92 101.116 38.6267 101.116 38.28V30.02C101.116 29.6733 101.229 29.3867 101.456 29.16C101.682 28.92 101.969 28.8 102.316 28.8C102.662 28.8 102.949 28.92 103.176 29.16C103.402 29.3867 103.516 29.6733 103.516 30.02V31.9L103.376 30.56C103.522 30.24 103.709 29.96 103.936 29.72C104.176 29.4667 104.442 29.26 104.736 29.1C105.029 28.9267 105.342 28.8 105.676 28.72C106.009 28.64 106.342 28.6 106.676 28.6C107.076 28.6 107.409 28.7133 107.676 28.94C107.956 29.1667 108.096 29.4333 108.096 29.74C108.096 30.18 107.982 30.5 107.756 30.7C107.529 30.8867 107.282 30.98 107.016 30.98C106.762 30.98 106.529 30.9333 106.316 30.84C106.116 30.7467 105.882 30.7 105.616 30.7C105.376 30.7 105.129 30.76 104.876 30.88C104.636 30.9867 104.409 31.16 104.196 31.4C103.996 31.64 103.829 31.94 103.696 32.3C103.576 32.6467 103.516 33.06 103.516 33.54V38.28C103.516 38.6267 103.402 38.92 103.176 39.16C102.949 39.3867 102.662 39.5 102.316 39.5Z" fill="#0E315F"/>
<path d="M35.7069 52.9134C36.3634 52.7843 37.0442 52.9237 37.597 53.3004C40.5604 55.3197 44.1386 56.5 48 56.5C49.7018 56.5 51.3462 56.2708 52.9058 55.8432C53.7485 55.6121 54.6508 55.8378 55.2855 56.4385C58.6027 59.5782 63.0742 61.5 68 61.5C71.5571 61.5 74.8725 60.4986 77.6886 58.7636C78.4927 58.2682 79.5073 58.2682 80.3113 58.7636C83.1275 60.4986 86.443 61.5 90 61.5C93.8613 61.5 97.4394 60.3198 100.403 58.3007C101.184 57.7683 102.199 57.7222 103.025 58.1816C105.681 59.6581 108.738 60.5 112 60.5C115.938 60.5 119.582 59.2723 122.579 57.1787C123.415 56.5954 124.52 56.5771 125.374 57.1324C126.704 57.9973 128.29 58.5 130 58.5C134.694 58.5 138.5 54.6944 138.5 50C138.5 48.9646 138.316 47.9779 137.981 47.067C137.627 46.1045 137.897 45.0236 138.662 44.3402C140.407 42.7801 141.5 40.5193 141.5 38C141.5 34.4536 139.327 31.4088 136.231 30.1349C135.052 29.65 134.427 28.3559 134.78 27.1311C135.248 25.5048 135.5 23.7839 135.5 22C135.5 11.7827 127.217 3.5 117 3.5C110.432 3.5 104.661 6.92105 101.375 12.0904C100.918 12.8083 100.128 13.2449 99.2775 13.2491C98.4268 13.2534 97.6323 12.8247 97.1687 12.1114C94.5792 8.12654 90.0956 5.5 85 5.5C82.5372 5.5 80.2248 6.11192 78.1992 7.18996C77.2283 7.70666 76.0338 7.52817 75.2564 6.75023C72.6294 4.12157 69.0064 2.5 65 2.5C59.992 2.5 55.5757 5.03663 52.9668 8.90668C52.2177 10.0179 50.7256 10.3408 49.584 9.6387C47.3793 8.28262 44.7849 7.5 42 7.5C39.0966 7.5 36.3996 8.35069 34.1355 9.81566C33.5358 10.2036 32.7989 10.3166 32.1106 10.1261C31.4223 9.93565 30.8483 9.45987 30.5334 8.81882C28.9836 5.66331 25.7421 3.5 22 3.5C16.7533 3.5 12.5 7.7533 12.5 13C12.5 13.0756 12.5009 13.1508 12.5026 13.2257L35.7069 52.9134ZM35.7069 52.9134C35.0505 53.0424 34.4732 53.4292 34.1041 53.9872M35.7069 52.9134L34.1041 53.9872M34.1041 53.9872C31.5049 57.9168 27.0536 60.5 22 60.5C13.9919 60.5 7.5 54.0081 7.5 46C7.5 44.6954 7.67168 43.4347 7.99229 42.2375C8.23452 41.3331 7.95102 40.3691 7.25773 39.7397M34.1041 53.9872L7.25773 39.7397M7.25773 39.7397C4.33166 37.0835 2.5 33.2574 2.5 29C2.5 23.1208 5.99921 18.0535 11.0392 15.7773C11.9686 15.3575 12.5499 14.4153 12.5081 13.3964M7.25773 39.7397L12.5081 13.3964M12.5081 13.3964C12.5058 13.3402 12.504 13.2834 12.5026 13.226L12.5081 13.3964Z" stroke="#0E315F" stroke-width="5" stroke-linejoin="round"/>
</svg>
