<svg width="223" height="55" viewBox="0 0 223 55" fill="none" xmlns="http://www.w3.org/2000/svg">
<rect x="2" y="2" width="219" height="51" rx="10" fill="#D5941D"/>
<rect x="2" y="2" width="219" height="51" rx="10" stroke="#D5941D" stroke-width="4"/>
<path d="M18.2149 35.192C17.8309 35.192 17.5189 35.104 17.2789 34.928C17.0549 34.752 16.9189 34.52 16.8709 34.232C16.8229 33.928 16.8789 33.592 17.0389 33.224L23.3749 19.184C23.5829 18.72 23.8309 18.392 24.1189 18.2C24.4229 17.992 24.7669 17.888 25.1509 17.888C25.5189 17.888 25.8469 17.992 26.1349 18.2C26.4389 18.392 26.6949 18.72 26.9029 19.184L33.2629 33.224C33.4389 33.592 33.5029 33.928 33.4549 34.232C33.4069 34.536 33.2709 34.776 33.0469 34.952C32.8229 35.112 32.5269 35.192 32.1589 35.192C31.7109 35.192 31.3589 35.088 31.1029 34.88C30.8629 34.656 30.6469 34.32 30.4549 33.872L28.8949 30.248L30.1909 31.088H20.0629L21.3589 30.248L19.8229 33.872C19.6149 34.336 19.3989 34.672 19.1749 34.88C18.9509 35.088 18.6309 35.192 18.2149 35.192ZM25.1029 21.416L21.7429 29.408L21.1189 28.64H29.1349L28.5349 29.408L25.1509 21.416H25.1029ZM41.6931 39.56C40.8291 39.56 39.9891 39.48 39.1731 39.32C38.3731 39.16 37.6451 38.912 36.9891 38.576C36.6851 38.416 36.4771 38.224 36.3651 38C36.2691 37.776 36.2371 37.544 36.2691 37.304C36.3171 37.08 36.4131 36.88 36.5571 36.704C36.7171 36.528 36.9091 36.408 37.1331 36.344C37.3571 36.28 37.5891 36.312 37.8291 36.44C38.5331 36.792 39.1971 37.016 39.8211 37.112C40.4611 37.224 41.0051 37.28 41.4531 37.28C42.5251 37.28 43.3251 37.016 43.8531 36.488C44.3971 35.976 44.6691 35.208 44.6691 34.184V32.024H44.8851C44.6451 32.84 44.1411 33.496 43.3731 33.992C42.6211 34.472 41.7651 34.712 40.8051 34.712C39.7491 34.712 38.8291 34.472 38.0451 33.992C37.2611 33.496 36.6531 32.808 36.2211 31.928C35.7891 31.048 35.5731 30.024 35.5731 28.856C35.5731 27.976 35.6931 27.184 35.9331 26.48C36.1891 25.76 36.5411 25.144 36.9891 24.632C37.4531 24.12 38.0051 23.728 38.6451 23.456C39.3011 23.168 40.0211 23.024 40.8051 23.024C41.7971 23.024 42.6611 23.272 43.3971 23.768C44.1491 24.248 44.6371 24.888 44.8611 25.688L44.6211 26.288V24.584C44.6211 24.088 44.7491 23.712 45.0051 23.456C45.2771 23.2 45.6451 23.072 46.1091 23.072C46.5891 23.072 46.9571 23.2 47.2131 23.456C47.4691 23.712 47.5971 24.088 47.5971 24.584V33.824C47.5971 35.728 47.0931 37.16 46.0851 38.12C45.0771 39.08 43.6131 39.56 41.6931 39.56ZM41.6211 32.432C42.2451 32.432 42.7811 32.288 43.2291 32C43.6771 31.712 44.0211 31.304 44.2611 30.776C44.5171 30.232 44.6451 29.592 44.6451 28.856C44.6451 27.752 44.3731 26.888 43.8291 26.264C43.2851 25.624 42.5491 25.304 41.6211 25.304C40.9971 25.304 40.4611 25.448 40.0131 25.736C39.5651 26.024 39.2131 26.432 38.9571 26.96C38.7171 27.488 38.5971 28.12 38.5971 28.856C38.5971 29.96 38.8691 30.832 39.4131 31.472C39.9571 32.112 40.6931 32.432 41.6211 32.432ZM57.2095 35.24C55.8815 35.24 54.7375 34.992 53.7775 34.496C52.8175 34 52.0735 33.296 51.5455 32.384C51.0335 31.472 50.7775 30.392 50.7775 29.144C50.7775 27.928 51.0255 26.864 51.5215 25.952C52.0335 25.04 52.7295 24.328 53.6095 23.816C54.5055 23.288 55.5215 23.024 56.6575 23.024C57.4895 23.024 58.2335 23.16 58.8895 23.432C59.5615 23.704 60.1295 24.096 60.5935 24.608C61.0735 25.12 61.4335 25.744 61.6735 26.48C61.9295 27.2 62.0575 28.016 62.0575 28.928C62.0575 29.216 61.9535 29.44 61.7455 29.6C61.5535 29.744 61.2735 29.816 60.9055 29.816H53.2015V28.088H59.9455L59.5615 28.448C59.5615 27.712 59.4495 27.096 59.2255 26.6C59.0175 26.104 58.7055 25.728 58.2895 25.472C57.8895 25.2 57.3855 25.064 56.7775 25.064C56.1055 25.064 55.5295 25.224 55.0495 25.544C54.5855 25.848 54.2255 26.288 53.9695 26.864C53.7295 27.424 53.6095 28.096 53.6095 28.88V29.048C53.6095 30.36 53.9135 31.344 54.5215 32C55.1455 32.64 56.0575 32.96 57.2575 32.96C57.6735 32.96 58.1375 32.912 58.6495 32.816C59.1775 32.704 59.6735 32.52 60.1375 32.264C60.4735 32.072 60.7695 31.992 61.0255 32.024C61.2815 32.04 61.4815 32.128 61.6255 32.288C61.7855 32.448 61.8815 32.648 61.9135 32.888C61.9455 33.112 61.8975 33.344 61.7695 33.584C61.6575 33.824 61.4575 34.032 61.1695 34.208C60.6095 34.56 59.9615 34.824 59.2255 35C58.5055 35.16 57.8335 35.24 57.2095 35.24ZM66.6413 35.192C66.1613 35.192 65.7933 35.064 65.5373 34.808C65.2813 34.536 65.1533 34.152 65.1533 33.656V24.584C65.1533 24.088 65.2813 23.712 65.5373 23.456C65.7933 23.2 66.1533 23.072 66.6173 23.072C67.0813 23.072 67.4413 23.2 67.6973 23.456C67.9533 23.712 68.0813 24.088 68.0813 24.584V26.216L67.8173 25.616C68.1693 24.768 68.7133 24.128 69.4493 23.696C70.2013 23.248 71.0493 23.024 71.9933 23.024C72.9373 23.024 73.7133 23.2 74.3213 23.552C74.9293 23.904 75.3853 24.44 75.6893 25.16C75.9933 25.864 76.1453 26.76 76.1453 27.848V33.656C76.1453 34.152 76.0173 34.536 75.7613 34.808C75.5053 35.064 75.1373 35.192 74.6573 35.192C74.1773 35.192 73.8013 35.064 73.5293 34.808C73.2733 34.536 73.1453 34.152 73.1453 33.656V27.992C73.1453 27.08 72.9693 26.416 72.6173 26C72.2813 25.584 71.7533 25.376 71.0333 25.376C70.1533 25.376 69.4493 25.656 68.9213 26.216C68.4093 26.76 68.1533 27.488 68.1533 28.4V33.656C68.1533 34.68 67.6493 35.192 66.6413 35.192ZM84.4243 35.24C83.4003 35.24 82.4963 34.992 81.7123 34.496C80.9443 34 80.3443 33.296 79.9123 32.384C79.4803 31.456 79.2643 30.368 79.2643 29.12C79.2643 27.856 79.4803 26.776 79.9123 25.88C80.3443 24.968 80.9443 24.264 81.7123 23.768C82.4963 23.272 83.4003 23.024 84.4243 23.024C85.4003 23.024 86.2483 23.264 86.9683 23.744C87.7043 24.224 88.2003 24.856 88.4563 25.64H88.1923V19.4C88.1923 18.904 88.3203 18.528 88.5763 18.272C88.8323 18.016 89.2003 17.888 89.6803 17.888C90.1603 17.888 90.5283 18.016 90.7843 18.272C91.0563 18.528 91.1923 18.904 91.1923 19.4V33.656C91.1923 34.152 91.0643 34.536 90.8083 34.808C90.5523 35.064 90.1843 35.192 89.7043 35.192C89.2243 35.192 88.8563 35.064 88.6003 34.808C88.3443 34.536 88.2163 34.152 88.2163 33.656V31.784L88.4803 32.504C88.2403 33.336 87.7523 34 87.0163 34.496C86.2803 34.992 85.4163 35.24 84.4243 35.24ZM85.2643 32.96C85.8563 32.96 86.3763 32.816 86.8243 32.528C87.2723 32.24 87.6163 31.816 87.8563 31.256C88.1123 30.68 88.2403 29.968 88.2403 29.12C88.2403 27.84 87.9683 26.888 87.4243 26.264C86.8803 25.624 86.1603 25.304 85.2643 25.304C84.6723 25.304 84.1523 25.448 83.7043 25.736C83.2563 26.008 82.9043 26.432 82.6483 27.008C82.4083 27.568 82.2883 28.272 82.2883 29.12C82.2883 30.384 82.5603 31.344 83.1043 32C83.6483 32.64 84.3683 32.96 85.2643 32.96ZM98.887 35.24C98.039 35.24 97.279 35.08 96.607 34.76C95.951 34.424 95.431 33.976 95.047 33.416C94.679 32.856 94.495 32.224 94.495 31.52C94.495 30.656 94.719 29.976 95.167 29.48C95.615 28.968 96.343 28.6 97.351 28.376C98.359 28.152 99.711 28.04 101.407 28.04H102.607V29.768H101.431C100.439 29.768 99.647 29.816 99.055 29.912C98.463 30.008 98.039 30.176 97.783 30.416C97.543 30.64 97.423 30.96 97.423 31.376C97.423 31.904 97.607 32.336 97.975 32.672C98.343 33.008 98.855 33.176 99.511 33.176C100.039 33.176 100.503 33.056 100.903 32.816C101.319 32.56 101.647 32.216 101.887 31.784C102.127 31.352 102.247 30.856 102.247 30.296V27.536C102.247 26.736 102.071 26.16 101.719 25.808C101.367 25.456 100.775 25.28 99.943 25.28C99.479 25.28 98.975 25.336 98.431 25.448C97.903 25.56 97.343 25.752 96.751 26.024C96.447 26.168 96.175 26.208 95.935 26.144C95.711 26.08 95.535 25.952 95.407 25.76C95.279 25.552 95.215 25.328 95.215 25.088C95.215 24.848 95.279 24.616 95.407 24.392C95.535 24.152 95.751 23.976 96.055 23.864C96.791 23.56 97.495 23.344 98.167 23.216C98.855 23.088 99.479 23.024 100.039 23.024C101.191 23.024 102.135 23.2 102.871 23.552C103.623 23.904 104.183 24.44 104.551 25.16C104.919 25.864 105.103 26.776 105.103 27.896V33.656C105.103 34.152 104.983 34.536 104.743 34.808C104.503 35.064 104.159 35.192 103.711 35.192C103.263 35.192 102.911 35.064 102.655 34.808C102.415 34.536 102.295 34.152 102.295 33.656V32.504H102.487C102.375 33.064 102.151 33.552 101.815 33.968C101.495 34.368 101.087 34.68 100.591 34.904C100.095 35.128 99.527 35.24 98.887 35.24ZM110.404 35.192C109.908 35.192 109.524 35.064 109.252 34.808C108.996 34.536 108.868 34.152 108.868 33.656V24.584C108.868 24.088 108.996 23.712 109.252 23.456C109.508 23.2 109.868 23.072 110.332 23.072C110.796 23.072 111.156 23.2 111.412 23.456C111.668 23.712 111.796 24.088 111.796 24.584V26.096H111.556C111.78 25.136 112.22 24.408 112.876 23.912C113.532 23.416 114.404 23.12 115.492 23.024C115.828 22.992 116.092 23.08 116.284 23.288C116.492 23.48 116.612 23.784 116.644 24.2C116.676 24.6 116.58 24.928 116.356 25.184C116.148 25.424 115.828 25.568 115.396 25.616L114.868 25.664C113.892 25.76 113.156 26.064 112.66 26.576C112.164 27.072 111.916 27.776 111.916 28.688V33.656C111.916 34.152 111.788 34.536 111.532 34.808C111.276 35.064 110.9 35.192 110.404 35.192ZM132.342 35.24C131.638 35.24 130.934 35.184 130.23 35.072C129.526 34.976 128.862 34.824 128.238 34.616C127.614 34.392 127.054 34.12 126.558 33.8C126.27 33.608 126.07 33.376 125.958 33.104C125.846 32.832 125.806 32.568 125.838 32.312C125.886 32.04 125.99 31.808 126.15 31.616C126.326 31.408 126.542 31.28 126.798 31.232C127.054 31.184 127.334 31.256 127.638 31.448C128.342 31.864 129.086 32.168 129.87 32.36C130.654 32.552 131.478 32.648 132.342 32.648C133.606 32.648 134.526 32.44 135.102 32.024C135.678 31.592 135.966 31.04 135.966 30.368C135.966 29.808 135.758 29.368 135.342 29.048C134.942 28.728 134.246 28.464 133.254 28.256L130.614 27.704C129.094 27.384 127.958 26.848 127.206 26.096C126.47 25.328 126.102 24.32 126.102 23.072C126.102 22.288 126.262 21.576 126.582 20.936C126.902 20.296 127.35 19.744 127.926 19.28C128.518 18.816 129.214 18.464 130.014 18.224C130.83 17.968 131.726 17.84 132.702 17.84C133.662 17.84 134.574 17.96 135.438 18.2C136.302 18.44 137.078 18.792 137.766 19.256C138.022 19.432 138.19 19.648 138.27 19.904C138.366 20.16 138.39 20.416 138.342 20.672C138.294 20.912 138.182 21.12 138.006 21.296C137.83 21.472 137.606 21.576 137.334 21.608C137.078 21.64 136.782 21.56 136.446 21.368C135.854 21.032 135.254 20.792 134.646 20.648C134.038 20.504 133.382 20.432 132.678 20.432C131.942 20.432 131.31 20.536 130.782 20.744C130.254 20.952 129.846 21.248 129.558 21.632C129.286 22 129.15 22.44 129.15 22.952C129.15 23.528 129.342 23.992 129.726 24.344C130.11 24.68 130.766 24.944 131.694 25.136L134.31 25.688C135.894 26.024 137.07 26.552 137.838 27.272C138.622 27.992 139.014 28.952 139.014 30.152C139.014 30.92 138.854 31.616 138.534 32.24C138.23 32.864 137.782 33.4 137.19 33.848C136.614 34.296 135.918 34.64 135.102 34.88C134.286 35.12 133.366 35.24 132.342 35.24ZM147.867 35.24C146.539 35.24 145.395 34.992 144.435 34.496C143.475 34 142.731 33.296 142.203 32.384C141.691 31.472 141.435 30.392 141.435 29.144C141.435 27.928 141.683 26.864 142.179 25.952C142.691 25.04 143.387 24.328 144.267 23.816C145.163 23.288 146.179 23.024 147.315 23.024C148.147 23.024 148.891 23.16 149.547 23.432C150.219 23.704 150.787 24.096 151.251 24.608C151.731 25.12 152.091 25.744 152.331 26.48C152.587 27.2 152.715 28.016 152.715 28.928C152.715 29.216 152.611 29.44 152.403 29.6C152.211 29.744 151.931 29.816 151.563 29.816H143.859V28.088H150.603L150.219 28.448C150.219 27.712 150.107 27.096 149.883 26.6C149.675 26.104 149.363 25.728 148.947 25.472C148.547 25.2 148.043 25.064 147.435 25.064C146.763 25.064 146.187 25.224 145.707 25.544C145.243 25.848 144.883 26.288 144.627 26.864C144.387 27.424 144.267 28.096 144.267 28.88V29.048C144.267 30.36 144.571 31.344 145.179 32C145.803 32.64 146.715 32.96 147.915 32.96C148.331 32.96 148.795 32.912 149.307 32.816C149.835 32.704 150.331 32.52 150.795 32.264C151.131 32.072 151.427 31.992 151.683 32.024C151.939 32.04 152.139 32.128 152.283 32.288C152.443 32.448 152.539 32.648 152.571 32.888C152.603 33.112 152.555 33.344 152.427 33.584C152.315 33.824 152.115 34.032 151.827 34.208C151.267 34.56 150.619 34.824 149.883 35C149.163 35.16 148.491 35.24 147.867 35.24ZM160.106 35.24C159.418 35.24 158.69 35.168 157.922 35.024C157.154 34.88 156.466 34.632 155.858 34.28C155.602 34.12 155.418 33.936 155.306 33.728C155.21 33.504 155.17 33.288 155.186 33.08C155.218 32.856 155.298 32.664 155.426 32.504C155.57 32.344 155.746 32.24 155.954 32.192C156.178 32.144 156.418 32.184 156.674 32.312C157.314 32.616 157.914 32.832 158.474 32.96C159.034 33.072 159.586 33.128 160.13 33.128C160.898 33.128 161.466 33 161.834 32.744C162.218 32.472 162.41 32.12 162.41 31.688C162.41 31.32 162.282 31.04 162.026 30.848C161.786 30.64 161.418 30.488 160.922 30.392L158.522 29.936C157.53 29.744 156.77 29.384 156.242 28.856C155.73 28.312 155.474 27.616 155.474 26.768C155.474 26 155.682 25.336 156.098 24.776C156.53 24.216 157.122 23.784 157.874 23.48C158.626 23.176 159.49 23.024 160.466 23.024C161.17 23.024 161.826 23.104 162.434 23.264C163.058 23.408 163.658 23.64 164.234 23.96C164.474 24.088 164.634 24.256 164.714 24.464C164.81 24.672 164.834 24.888 164.786 25.112C164.738 25.32 164.642 25.512 164.498 25.688C164.354 25.848 164.17 25.952 163.946 26C163.738 26.032 163.498 25.984 163.226 25.856C162.73 25.6 162.25 25.416 161.786 25.304C161.338 25.192 160.906 25.136 160.49 25.136C159.706 25.136 159.122 25.272 158.738 25.544C158.37 25.816 158.186 26.176 158.186 26.624C158.186 26.96 158.298 27.24 158.522 27.464C158.746 27.688 159.09 27.84 159.554 27.92L161.954 28.376C162.994 28.568 163.778 28.92 164.306 29.432C164.85 29.944 165.122 30.632 165.122 31.496C165.122 32.664 164.666 33.584 163.754 34.256C162.842 34.912 161.626 35.24 160.106 35.24ZM172.545 35.24C171.857 35.24 171.129 35.168 170.361 35.024C169.593 34.88 168.905 34.632 168.297 34.28C168.041 34.12 167.857 33.936 167.745 33.728C167.649 33.504 167.609 33.288 167.625 33.08C167.657 32.856 167.737 32.664 167.865 32.504C168.009 32.344 168.185 32.24 168.393 32.192C168.617 32.144 168.857 32.184 169.113 32.312C169.753 32.616 170.353 32.832 170.913 32.96C171.473 33.072 172.025 33.128 172.569 33.128C173.337 33.128 173.905 33 174.273 32.744C174.657 32.472 174.849 32.12 174.849 31.688C174.849 31.32 174.721 31.04 174.465 30.848C174.225 30.64 173.857 30.488 173.361 30.392L170.961 29.936C169.969 29.744 169.209 29.384 168.681 28.856C168.169 28.312 167.913 27.616 167.913 26.768C167.913 26 168.121 25.336 168.537 24.776C168.969 24.216 169.561 23.784 170.313 23.48C171.065 23.176 171.929 23.024 172.905 23.024C173.609 23.024 174.265 23.104 174.873 23.264C175.497 23.408 176.097 23.64 176.673 23.96C176.913 24.088 177.073 24.256 177.153 24.464C177.249 24.672 177.273 24.888 177.225 25.112C177.177 25.32 177.081 25.512 176.937 25.688C176.793 25.848 176.609 25.952 176.385 26C176.177 26.032 175.937 25.984 175.665 25.856C175.169 25.6 174.689 25.416 174.225 25.304C173.777 25.192 173.345 25.136 172.929 25.136C172.145 25.136 171.561 25.272 171.177 25.544C170.809 25.816 170.625 26.176 170.625 26.624C170.625 26.96 170.737 27.24 170.961 27.464C171.185 27.688 171.529 27.84 171.993 27.92L174.393 28.376C175.433 28.568 176.217 28.92 176.745 29.432C177.289 29.944 177.561 30.632 177.561 31.496C177.561 32.664 177.105 33.584 176.193 34.256C175.281 34.912 174.065 35.24 172.545 35.24ZM184.552 35.24C183.704 35.24 182.944 35.08 182.272 34.76C181.616 34.424 181.096 33.976 180.712 33.416C180.344 32.856 180.16 32.224 180.16 31.52C180.16 30.656 180.384 29.976 180.832 29.48C181.28 28.968 182.008 28.6 183.016 28.376C184.024 28.152 185.376 28.04 187.072 28.04H188.272V29.768H187.096C186.104 29.768 185.312 29.816 184.72 29.912C184.128 30.008 183.704 30.176 183.448 30.416C183.208 30.64 183.088 30.96 183.088 31.376C183.088 31.904 183.272 32.336 183.64 32.672C184.008 33.008 184.52 33.176 185.176 33.176C185.704 33.176 186.168 33.056 186.568 32.816C186.984 32.56 187.312 32.216 187.552 31.784C187.792 31.352 187.912 30.856 187.912 30.296V27.536C187.912 26.736 187.736 26.16 187.384 25.808C187.032 25.456 186.44 25.28 185.608 25.28C185.144 25.28 184.64 25.336 184.096 25.448C183.568 25.56 183.008 25.752 182.416 26.024C182.112 26.168 181.84 26.208 181.6 26.144C181.376 26.08 181.2 25.952 181.072 25.76C180.944 25.552 180.88 25.328 180.88 25.088C180.88 24.848 180.944 24.616 181.072 24.392C181.2 24.152 181.416 23.976 181.72 23.864C182.456 23.56 183.16 23.344 183.832 23.216C184.52 23.088 185.144 23.024 185.704 23.024C186.856 23.024 187.8 23.2 188.536 23.552C189.288 23.904 189.848 24.44 190.216 25.16C190.584 25.864 190.768 26.776 190.768 27.896V33.656C190.768 34.152 190.648 34.536 190.408 34.808C190.168 35.064 189.824 35.192 189.376 35.192C188.928 35.192 188.576 35.064 188.32 34.808C188.08 34.536 187.96 34.152 187.96 33.656V32.504H188.152C188.04 33.064 187.816 33.552 187.48 33.968C187.16 34.368 186.752 34.68 186.256 34.904C185.76 35.128 185.192 35.24 184.552 35.24ZM181.912 21.056C181.672 21.04 181.488 20.96 181.36 20.816C181.232 20.672 181.2 20.448 181.264 20.144C181.328 19.808 181.424 19.48 181.552 19.16C181.696 18.824 181.88 18.52 182.104 18.248C182.328 17.976 182.6 17.76 182.92 17.6C183.24 17.424 183.616 17.336 184.048 17.336C184.448 17.336 184.8 17.416 185.104 17.576C185.408 17.736 185.688 17.92 185.944 18.128C186.2 18.336 186.456 18.52 186.712 18.68C186.968 18.84 187.248 18.92 187.552 18.92C187.888 18.92 188.176 18.808 188.416 18.584C188.672 18.344 188.832 18.048 188.896 17.696C188.928 17.52 189.008 17.384 189.136 17.288C189.28 17.192 189.48 17.152 189.736 17.168C189.976 17.184 190.16 17.264 190.288 17.408C190.416 17.552 190.448 17.776 190.384 18.08C190.304 18.512 190.152 18.944 189.928 19.376C189.704 19.808 189.4 20.168 189.016 20.456C188.648 20.744 188.176 20.888 187.6 20.888C187.2 20.888 186.848 20.808 186.544 20.648C186.24 20.488 185.952 20.304 185.68 20.096C185.424 19.888 185.168 19.704 184.912 19.544C184.656 19.384 184.384 19.304 184.096 19.304C183.76 19.304 183.472 19.416 183.232 19.64C182.992 19.864 182.832 20.16 182.752 20.528C182.72 20.704 182.632 20.84 182.488 20.936C182.36 21.032 182.168 21.072 181.912 21.056ZM199.885 35.24C198.669 35.24 197.613 34.992 196.717 34.496C195.821 34 195.125 33.296 194.629 32.384C194.133 31.456 193.885 30.368 193.885 29.12C193.885 28.176 194.021 27.336 194.293 26.6C194.581 25.848 194.989 25.208 195.517 24.68C196.045 24.136 196.677 23.728 197.413 23.456C198.149 23.168 198.973 23.024 199.885 23.024C201.101 23.024 202.157 23.272 203.053 23.768C203.949 24.264 204.645 24.968 205.141 25.88C205.637 26.792 205.885 27.872 205.885 29.12C205.885 30.064 205.741 30.912 205.453 31.664C205.181 32.416 204.781 33.064 204.253 33.608C203.725 34.136 203.093 34.544 202.357 34.832C201.621 35.104 200.797 35.24 199.885 35.24ZM199.885 32.96C200.477 32.96 200.997 32.816 201.445 32.528C201.893 32.24 202.237 31.816 202.477 31.256C202.733 30.68 202.861 29.968 202.861 29.12C202.861 27.84 202.589 26.888 202.045 26.264C201.501 25.624 200.781 25.304 199.885 25.304C199.293 25.304 198.773 25.448 198.325 25.736C197.877 26.008 197.525 26.432 197.269 27.008C197.029 27.568 196.909 28.272 196.909 29.12C196.909 30.384 197.181 31.344 197.725 32C198.269 32.64 198.989 32.96 199.885 32.96Z" fill="white"/>
</svg>
