<svg width="143" height="31" viewBox="0 0 143 31" fill="none" xmlns="http://www.w3.org/2000/svg">
<path d="M125.833 26.433C125.562 26.0575 125.439 25.5747 125.467 24.9846C125.494 24.3946 125.847 23.8849 126.526 23.4558C126.961 23.1876 127.423 23.0803 127.912 23.1339C128.401 23.1608 128.876 23.4022 129.338 23.8581C130.126 24.636 130.954 25.2394 131.824 25.6686C132.693 26.0977 133.78 26.3123 135.084 26.3123C135.491 26.2855 135.94 26.2319 136.429 26.1514C136.918 26.0441 137.339 25.8295 137.692 25.5077C138.072 25.159 138.263 24.636 138.263 23.9386C138.263 23.3485 138.059 22.8791 137.651 22.5304C137.244 22.1818 136.7 21.8867 136.021 21.6453C135.369 21.4039 134.636 21.1759 133.821 20.9614C132.978 20.72 132.109 20.4517 131.213 20.1567C130.343 19.8617 129.542 19.4862 128.808 19.0302C128.075 18.5474 127.477 17.9171 127.015 17.1392C126.553 16.3614 126.322 15.3824 126.322 14.2022C126.322 12.8612 126.703 11.7212 127.463 10.7825C128.224 9.84369 129.202 9.1195 130.398 8.60988C131.62 8.10027 132.897 7.84546 134.228 7.84546C135.07 7.84546 135.953 7.95275 136.877 8.16732C137.801 8.35507 138.684 8.67694 139.526 9.13291C140.368 9.56206 141.074 10.1387 141.645 10.8629C141.944 11.2652 142.12 11.748 142.175 12.3113C142.229 12.8746 141.971 13.3842 141.4 13.8402C140.993 14.162 140.518 14.3095 139.974 14.2827C139.898 14.2752 139.825 14.2652 139.753 14.2525C138.926 14.107 138.401 13.3416 137.718 12.8547C137.43 12.6492 137.109 12.468 136.755 12.3113C135.994 11.9626 135.111 11.7883 134.106 11.7883C133.698 11.7883 133.25 11.8419 132.761 11.9492C132.299 12.0297 131.892 12.2308 131.539 12.5527C131.185 12.8477 131.009 13.3305 131.009 14.0011C131.009 14.618 131.213 15.1142 131.62 15.4897C132.028 15.8384 132.571 16.1334 133.25 16.3748C133.957 16.5894 134.704 16.804 135.491 17.0185C136.307 17.2331 137.135 17.4879 137.977 17.783C138.82 18.078 139.594 18.4669 140.3 18.9497C141.007 19.4325 141.577 20.0628 142.012 20.8407C142.446 21.5917 142.664 22.5573 142.664 23.7374C142.664 25.1053 142.256 26.2721 141.441 27.2377C140.626 28.2033 139.607 28.9409 138.385 29.4505C137.162 29.9333 135.913 30.1747 134.636 30.1747C133.033 30.1747 131.43 29.9065 129.827 29.37C128.224 28.8068 126.893 27.8278 125.833 26.433Z" fill="white"/>
<path d="M124.04 19.0302C124.04 21.2296 123.537 23.1742 122.532 24.8639C121.554 26.5269 120.223 27.8278 118.539 28.7665C116.881 29.7053 115.02 30.1747 112.956 30.1747C110.891 30.1747 109.016 29.7053 107.332 28.7665C105.675 27.8278 104.343 26.5269 103.338 24.8639C102.36 23.1742 101.871 21.2296 101.871 19.0302C101.871 16.8308 102.36 14.8996 103.338 13.2367C104.343 11.5469 105.675 10.2326 107.332 9.29384C109.016 8.32825 110.891 7.84546 112.956 7.84546C115.02 7.84546 116.881 8.32825 118.539 9.29384C120.223 10.2326 121.554 11.5469 122.532 13.2367C123.537 14.8996 124.04 16.8308 124.04 19.0302ZM119.15 19.0302C119.15 17.6623 118.865 16.4821 118.294 15.4897C117.751 14.4705 117.004 13.6792 116.053 13.116C115.129 12.5527 114.097 12.2711 112.956 12.2711C111.814 12.2711 110.769 12.5527 109.818 13.116C108.894 13.6792 108.147 14.4705 107.576 15.4897C107.033 16.4821 106.761 17.6623 106.761 19.0302C106.761 20.3713 107.033 21.5514 107.576 22.5707C108.147 23.5631 108.894 24.3409 109.818 24.9042C110.769 25.4674 111.814 25.7491 112.956 25.7491C114.097 25.7491 115.129 25.4674 116.053 24.9042C117.004 24.3409 117.751 23.5631 118.294 22.5707C118.865 21.5514 119.15 20.3713 119.15 19.0302Z" fill="white"/>
<path d="M89.8116 7.8454C91.7134 7.8454 93.4114 8.3282 94.9056 9.29378C96.427 10.2325 97.6224 11.5334 98.4917 13.1964C99.3883 14.8593 99.8365 16.7905 99.8365 18.9899C99.8365 21.1893 99.3883 23.1339 98.4917 24.8237C97.6224 26.4866 96.4406 27.8009 94.9463 28.7665C93.4793 29.7052 91.822 30.1746 89.9746 30.1746C88.8879 30.1746 87.8691 30.0003 86.9183 29.6516C85.9674 29.3029 85.1252 28.8603 84.3917 28.3239C83.6853 27.7875 83.1284 27.251 82.7209 26.7146C82.4698 26.3428 82.3016 26.0119 82.2163 25.7219C82.1441 25.4768 82.3043 25.2427 82.5404 25.145C82.9562 24.9728 83.4136 25.2785 83.4136 25.7286V27.7204C83.4136 28.4178 83.1827 29.0079 82.7209 29.4907C82.259 29.9466 81.6749 30.1746 80.9685 30.1746C80.2622 30.1746 79.6781 29.9466 79.2162 29.4907C78.7544 29.0347 78.5234 28.4446 78.5234 27.7204V2.4542C78.5234 1.75683 78.7544 1.18016 79.2162 0.724189C79.6781 0.241396 80.2622 0 80.9685 0C81.6749 0 82.259 0.241396 82.7209 0.724189C83.1827 1.18016 83.4136 1.75683 83.4136 2.4542V12.1014C83.4136 12.3617 83.1374 12.529 82.9068 12.4084C82.7925 12.3487 82.7172 12.2294 82.7419 12.1029C82.8009 11.8003 82.9841 11.4541 83.2914 11.064C83.6717 10.5544 84.1879 10.0582 84.8399 9.57541C85.492 9.0658 86.2391 8.65006 87.0813 8.32819C87.9506 8.00633 88.8608 7.8454 89.8116 7.8454ZM89.2004 12.271C88.005 12.271 86.959 12.5661 86.0625 13.1561C85.1659 13.7462 84.4596 14.5509 83.9434 15.5701C83.4544 16.5625 83.2099 17.7024 83.2099 18.9899C83.2099 20.2505 83.4544 21.4039 83.9434 22.4499C84.4596 23.4691 85.1659 24.2738 86.0625 24.8639C86.959 25.454 88.005 25.749 89.2004 25.749C90.3957 25.749 91.4281 25.454 92.2975 24.8639C93.194 24.2738 93.8868 23.4691 94.3758 22.4499C94.892 21.4039 95.1501 20.2505 95.1501 18.9899C95.1501 17.7024 94.892 16.5625 94.3758 15.5701C93.8868 14.5509 93.194 13.7462 92.2975 13.1561C91.4281 12.5661 90.3957 12.271 89.2004 12.271Z" fill="white"/>
<path d="M74.7195 27.3182C74.7195 28.0155 74.4885 28.6056 74.0267 29.0884C73.5648 29.5444 72.9807 29.7724 72.2744 29.7724C71.568 29.7724 70.9839 29.5444 70.5221 29.0884C70.0602 28.6056 69.8293 28.0155 69.8293 27.3182V10.702C69.8293 10.0046 70.0602 9.42798 70.5221 8.972C70.9839 8.48921 71.568 8.24781 72.2744 8.24781C72.9807 8.24781 73.5648 8.48921 74.0267 8.972C74.4885 9.42798 74.7195 10.0046 74.7195 10.702V27.3182ZM72.2336 5.63268C71.3099 5.63268 70.6579 5.48516 70.2775 5.19012C69.8972 4.89508 69.707 4.37205 69.707 3.62104V2.85661C69.707 2.07878 69.9108 1.55575 70.3183 1.28753C70.753 0.992492 71.405 0.844971 72.2744 0.844971C73.2253 0.844971 73.8909 0.992492 74.2712 1.28753C74.6516 1.58257 74.8417 2.1056 74.8417 2.85661V3.62104C74.8417 4.39887 74.638 4.93531 74.2305 5.23035C73.8229 5.49857 73.1573 5.63268 72.2336 5.63268Z" fill="white"/>
<path d="M57.0362 7.8454C58.938 7.8454 60.636 8.3282 62.1302 9.29378C63.6516 10.2325 64.847 11.5334 65.7163 13.1964C66.6129 14.8593 67.0611 16.7905 67.0611 18.9899C67.0611 21.1893 66.6129 23.1339 65.7163 24.8237C64.847 26.4866 63.6652 27.8009 62.1709 28.7665C60.7039 29.7052 59.0467 30.1746 57.1993 30.1746C56.1125 30.1746 55.0938 30.0003 54.1429 29.6516C53.192 29.3029 52.3498 28.8603 51.6163 28.3239C50.9099 27.7875 50.353 27.251 49.9455 26.7146C49.6944 26.3428 49.5262 26.0119 49.4409 25.7219C49.3687 25.4768 49.5289 25.2427 49.765 25.145C50.1809 24.9728 50.6382 25.2785 50.6382 25.7286V27.7204C50.6382 28.4178 50.4073 29.0079 49.9455 29.4907C49.4836 29.9466 48.8995 30.1746 48.1931 30.1746C47.4868 30.1746 46.9027 29.9466 46.4408 29.4907C45.979 29.0347 45.748 28.4446 45.748 27.7204V2.4542C45.748 1.75683 45.979 1.18016 46.4408 0.724189C46.9027 0.241396 47.4868 0 48.1931 0C48.8995 0 49.4836 0.241396 49.9455 0.724189C50.4073 1.18016 50.6382 1.75683 50.6382 2.4542V12.1014C50.6382 12.3617 50.362 12.529 50.1314 12.4084C50.0171 12.3487 49.9418 12.2294 49.9665 12.1029C50.0256 11.8003 50.2087 11.4541 50.516 11.064C50.8963 10.5544 51.4125 10.0582 52.0645 9.57541C52.7166 9.0658 53.4637 8.65006 54.3059 8.32819C55.1753 8.00633 56.0854 7.8454 57.0362 7.8454ZM56.425 12.271C55.2296 12.271 54.1836 12.5661 53.2871 13.1561C52.3906 13.7462 51.6842 14.5509 51.168 15.5701C50.679 16.5625 50.4345 17.7024 50.4345 18.9899C50.4345 20.2505 50.679 21.4039 51.168 22.4499C51.6842 23.4691 52.3906 24.2738 53.2871 24.8639C54.1836 25.454 55.2296 25.749 56.425 25.749C57.6203 25.749 58.6527 25.454 59.5221 24.8639C60.4186 24.2738 61.1114 23.4691 61.6004 22.4499C62.1166 21.4039 62.3747 20.2505 62.3747 18.9899C62.3747 17.7024 62.1166 16.5625 61.6004 15.5701C61.1114 14.5509 60.4186 13.7462 59.5221 13.1561C58.6527 12.5661 57.6203 12.271 56.425 12.271Z" fill="white"/>
<path d="M39.2311 8.24768C39.9375 8.24768 40.5216 8.48908 40.9834 8.97187C41.4453 9.42784 41.6762 10.0045 41.6762 10.7019V20.921C41.6762 23.7641 40.8748 26.0172 39.2719 27.6801C37.669 29.3431 35.3597 30.1746 32.3441 30.1746C29.3285 30.1746 27.0192 29.3431 25.4163 27.6801C23.8406 26.0172 23.0527 23.7641 23.0527 20.921V10.7019C23.0527 10.0045 23.2837 9.42784 23.7455 8.97187C24.2074 8.48908 24.7915 8.24768 25.4978 8.24768C26.2042 8.24768 26.7883 8.48908 27.2501 8.97187C27.712 9.42784 27.9429 10.0045 27.9429 10.7019V20.921C27.9429 22.5572 28.3097 23.7776 29.0432 24.5822C29.7768 25.36 30.877 25.749 32.3441 25.749C33.8383 25.749 34.9522 25.36 35.6857 24.5822C36.4193 23.7776 36.786 22.5572 36.786 20.921V10.7019C36.786 10.0045 37.017 9.42784 37.4788 8.97187C37.9407 8.48908 38.5248 8.24768 39.2311 8.24768Z" fill="white"/>
<path d="M11.655 7.84546C13.6654 7.84546 15.1868 8.2612 16.2191 9.09268C17.2787 9.92415 17.9986 11.0373 18.379 12.432C18.7865 13.7999 18.9903 15.3288 18.9903 17.0185V27.3181C18.9903 28.0155 18.7593 28.6056 18.2975 29.0884C17.8356 29.5444 17.2515 29.7723 16.5452 29.7723C15.8388 29.7723 15.2547 29.5444 14.7928 29.0884C14.331 28.6056 14.1001 28.0155 14.1001 27.3181V17.0185C14.1001 16.1334 13.9778 15.3422 13.7333 14.6448C13.516 13.9206 13.1084 13.3439 12.5107 12.9148C11.9131 12.4856 11.0573 12.2711 9.94339 12.2711C8.85668 12.2711 7.93298 12.4856 7.17228 12.9148C6.43876 13.3439 5.86823 13.9206 5.46072 14.6448C5.08037 15.3422 4.89019 16.1334 4.89019 17.0185V27.3181C4.89019 28.0155 4.65927 28.6056 4.19742 29.0884C3.73556 29.5444 3.15146 29.7723 2.4451 29.7723C1.73874 29.7723 1.15463 29.5444 0.692777 29.0884C0.230926 28.6056 0 28.0155 0 27.3181V10.702C0 10.0046 0.230926 9.42795 0.692777 8.97198C1.15463 8.48918 1.73874 8.24779 2.4451 8.24779C3.15146 8.24779 3.73556 8.48918 4.19742 8.97198C4.65927 9.42795 4.89019 10.0046 4.89019 10.702V12.1369C4.89019 12.2897 4.75059 12.4044 4.60067 12.3748C4.4407 12.3432 4.35719 12.1661 4.44301 12.0275C4.67282 11.6562 4.9713 11.2681 5.33846 10.8629C5.80031 10.3265 6.34367 9.83028 6.96853 9.37431C7.59338 8.91833 8.29974 8.55624 9.08761 8.28802C9.87547 7.99298 10.7313 7.84546 11.655 7.84546Z" fill="white"/>
</svg>
