<svg width="51" height="51" viewBox="0 0 51 51" fill="none" xmlns="http://www.w3.org/2000/svg">
<path d="M25.6197 19.0168L28.8601 15.7764L38.5859 25.5L28.8624 35.2235L25.622 31.9808L29.8089 27.7916L12.5366 27.7916L12.5366 23.2083L29.8089 23.2083L25.6197 19.0168Z" fill="#157A6E"/>
<path fill-rule="evenodd" clip-rule="evenodd" d="M43.3252 7.67539C53.1702 17.5204 53.1702 33.4796 43.3252 43.3246C33.4802 53.1696 17.5211 53.1696 7.67606 43.3246C-2.16894 33.4796 -2.16894 17.5204 7.67606 7.67539C17.5211 -2.16961 33.4802 -2.16961 43.3252 7.67539ZM40.0848 10.9158C43.9528 14.7838 46.1258 20.0299 46.1258 25.5C46.1258 30.9701 43.9528 36.2162 40.0848 40.0841C36.2169 43.9521 30.9708 46.1251 25.5006 46.1251C20.0305 46.1251 14.7844 43.9521 10.9165 40.0841C7.04851 36.2162 4.87552 30.9701 4.87552 25.5C4.87552 20.0299 7.04851 14.7838 10.9165 10.9158C14.7844 7.04784 20.0305 4.87485 25.5006 4.87485C30.9708 4.87485 36.2169 7.04784 40.0848 10.9158Z" fill="#157A6E"/>
</svg>
