<svg width="55" height="55" viewBox="0 0 55 55" fill="none" xmlns="http://www.w3.org/2000/svg">
<path d="M27.3803 33.9832L24.1399 37.2236L14.4141 27.5L24.1376 17.7765L27.378 21.0192L23.1911 25.2084H40.4634V29.7917H23.1911L27.3803 33.9832Z" fill="#157A6E"/>
<path fill-rule="evenodd" clip-rule="evenodd" d="M9.67477 45.3246C-0.170234 35.4796 -0.170234 19.5204 9.67477 9.67544C19.5198 -0.169563 35.4789 -0.169563 45.3239 9.67544C55.1689 19.5204 55.1689 35.4796 45.3239 45.3246C35.4789 55.1696 19.5198 55.1696 9.67477 45.3246ZM12.9152 42.0842C9.04722 38.2162 6.87422 32.9701 6.87422 27.5C6.87422 22.0299 9.04722 16.7838 12.9152 12.9159C16.7831 9.04789 22.0292 6.87489 27.4993 6.87489C32.9695 6.87489 38.2156 9.04789 42.0835 12.9159C45.9515 16.7838 48.1245 22.0299 48.1245 27.5C48.1245 32.9701 45.9515 38.2162 42.0835 42.0842C38.2156 45.9522 32.9695 48.1251 27.4993 48.1251C22.0292 48.1251 16.7831 45.9522 12.9152 42.0842Z" fill="#157A6E"/>
</svg>
