<svg width="33" height="22" viewBox="0 0 33 22" fill="none" xmlns="http://www.w3.org/2000/svg">
<g clip-path="url(#clip0_567_3247)">
<path d="M2.2 22C1.61652 22 1.05695 21.7682 0.644365 21.3556C0.231785 20.9431 0 20.3835 0 19.8L0 2.2C0 1.61652 0.231785 1.05695 0.644365 0.644365C1.05695 0.231785 1.61652 0 2.2 0L30.8 0C31.3835 0 31.9431 0.231785 32.3556 0.644365C32.7682 1.05695 33 1.61652 33 2.2V19.8C33 20.3835 32.7682 20.9431 32.3556 21.3556C31.9431 21.7682 31.3835 22 30.8 22H2.2ZM8.92925 5.13333C8.17336 5.88048 7.57713 6.77339 7.17674 7.75791C6.77634 8.74243 6.58013 9.79803 6.6 10.8607V10.8533C6.59973 11.8768 6.80449 12.89 7.20218 13.833C7.59987 14.7761 8.18244 15.6299 8.9155 16.3442L8.91733 16.346C10.3904 17.8142 12.3861 18.6374 14.4659 18.6349H18.2453C20.3643 18.6157 22.3978 17.7968 23.9388 16.3423L23.9342 16.346C24.7051 15.6528 25.3238 14.8071 25.7509 13.8624C26.178 12.9177 26.4044 11.8946 26.4156 10.8579V10.7956C26.417 9.73141 26.1965 8.67864 25.7681 7.70448C25.3397 6.73033 24.7129 5.8562 23.9278 5.13792L23.9223 5.13242C23.1739 4.44502 22.305 3.90179 21.3593 3.53008L21.3033 3.51083C20.3207 3.12449 19.2737 2.92821 18.2178 2.93242H14.4183C12.3715 2.92936 10.4031 3.71878 8.92558 5.13517L8.92925 5.13333ZM7.34708 10.7662C7.34635 8.86023 8.10282 7.03198 9.45006 5.6837C10.7973 4.33543 12.625 3.57756 14.531 3.57683C16.437 3.5761 18.2653 4.33257 19.6135 5.67982C20.9618 7.02706 21.7197 8.85473 21.7204 10.7608C21.7215 12.6668 20.9654 14.4952 19.6184 15.8437C18.2714 17.1922 16.4439 17.9504 14.5379 17.9515C12.6319 17.9526 10.8035 17.1965 9.45493 15.8495C8.10639 14.5025 7.34818 12.675 7.34708 10.769V10.7662ZM16.1636 15.0196C17.8906 14.3468 19.0933 12.6967 19.0933 10.7662C19.0933 8.83575 17.8915 7.18575 16.1947 6.52392L16.1636 6.51292V15.0196ZM9.97975 10.7662C9.98007 11.6819 10.256 12.5762 10.7717 13.3329C11.2873 14.0895 12.0188 14.6734 12.8709 15.0086L12.9021 15.0196V6.51567C11.1797 7.19308 9.98158 8.84125 9.97975 10.769V10.7662Z" fill="white"/>
</g>
<defs>
<clipPath id="clip0_567_3247">
<rect width="33" height="22" fill="white"/>
</clipPath>
</defs>
</svg>
