<svg width="52" height="23" viewBox="0 0 52 23" fill="none" xmlns="http://www.w3.org/2000/svg">
<g clip-path="url(#clip0_567_3249)">
<path d="M14.2751 0H8.8857C6.50447 0.114381 4.55792 1.08832 3.99588 3.09685C3.70287 4.14443 3.54159 5.29474 3.31236 6.3807C2.14744 11.902 1.11434 17.5753 0 22.9863H41.9575C45.2013 22.9863 47.4284 22.2902 48.0303 19.6759C48.3099 18.4614 48.5777 17.0857 48.8453 15.7514C49.8881 10.5489 50.9319 5.34652 52 0H14.2751Z" fill="white"/>
<path d="M35.9237 13.7333C35.3417 14.3118 33.7083 14.4761 33.8755 13.0933C34.0142 11.9447 35.2455 11.7007 36.5801 11.8666C36.4808 12.4948 36.3671 13.2925 35.9237 13.7334M34.0854 9.25334C34.0299 9.57018 33.9446 9.85691 33.8755 10.1599C34.5417 9.99037 36.6166 9.47024 36.8165 10.3733C36.8829 10.6735 36.7684 10.9922 36.6852 11.2267C34.8089 11.0462 33.2797 11.3628 32.8776 12.72C32.6082 13.6291 32.9078 14.5237 33.4816 14.7735C34.5867 15.2542 35.931 14.7034 36.3963 13.9468C36.348 14.2088 36.3022 14.4733 36.3175 14.8002H37.2891C37.2994 13.8552 37.4348 13.0903 37.5779 12.24C37.7 11.516 37.9295 10.7991 37.893 10.16C37.8097 8.69649 35.422 9.21404 34.0854 9.25334ZM43.8277 14.1868C43.0675 14.2033 42.6896 13.7256 42.6722 12.9335C42.6419 11.5463 43.2411 10.005 44.4579 9.86681C45.0244 9.80245 45.4345 9.93622 45.8496 10.0802C45.4686 11.6384 45.6061 14.148 43.8277 14.1868ZM46.3485 6.8535C46.2518 7.71512 46.1224 8.54384 45.9547 9.33337C43.185 8.44318 41.4864 10.5126 41.5168 13.0668C41.5228 13.5608 41.6065 14.0507 41.9108 14.4001C42.435 15.0024 43.9363 15.1464 44.6942 14.6402C44.8411 14.5422 44.9909 14.364 45.0883 14.2402C45.1612 14.1471 45.2772 13.9034 45.2981 13.9734C45.2584 14.2441 45.1988 14.4949 45.1932 14.8003H46.2173C46.4146 11.925 47.025 9.4692 47.4777 6.85339L46.3485 6.8535ZM17.4373 13.76C16.8331 14.4098 15.3479 14.3998 15.2315 13.3066C15.1807 12.8309 15.3553 12.3321 15.4416 11.84C15.5289 11.3418 15.5917 10.8639 15.6778 10.4265C16.2729 9.68869 18.0213 9.59968 18.1988 10.8266C18.3527 11.8918 17.9376 13.2219 17.4373 13.76ZM18.3301 9.25323C17.3744 8.88874 16.2096 9.32388 15.7047 9.73788C15.7064 9.75603 15.6927 9.75851 15.6778 9.75995C15.6864 9.75253 15.6958 9.74521 15.7047 9.73788C15.7047 9.73635 15.7045 9.73483 15.7041 9.73334C15.7126 9.55522 15.7744 9.43125 15.7829 9.25323H14.8114C14.4064 11.9888 13.9264 14.6478 13.4196 17.2799H14.5487C14.7121 16.2547 14.8201 15.1734 15.0477 14.2133C15.3056 15.223 16.9893 15.0302 17.6998 14.64C19.1659 13.835 20.2967 10.0035 18.3301 9.25323ZM23.6869 11.1733H21.0348C21.1187 10.5541 21.6672 9.87351 22.5315 9.83999C23.345 9.80833 23.9273 10.1432 23.6869 11.1733ZM22.6104 9.14659C21.7944 9.21043 21.1048 9.44878 20.6146 9.97325C20.0134 10.6164 19.5266 12.0384 19.6692 13.3333C19.8727 15.1807 22.1378 15.1145 23.9496 14.6666C23.9803 14.3424 24.0576 14.0653 24.1071 13.76C23.3607 14.0436 22.065 14.4395 21.2973 13.9467C20.7178 13.5746 20.7144 12.6322 20.9035 11.8132C22.1211 11.7739 23.3867 11.7815 24.606 11.8132C24.6833 11.2328 24.9047 10.5999 24.711 10.0267C24.4555 9.26973 23.541 9.07387 22.6104 9.14659ZM12.6843 9.25323C12.6538 9.25777 12.6558 9.29552 12.6579 9.33316C12.4092 11.2228 12.0725 13.0232 11.7127 14.8H12.8419C13.1131 12.8976 13.4239 11.0356 13.8134 9.25323H12.6843ZM42.1472 9.27984C41.1493 8.77322 40.3185 9.6234 39.9941 10.1332C40.0864 9.87165 40.0916 9.5215 40.1777 9.25323H39.1799C38.9109 11.1579 38.5864 13.0063 38.2083 14.8H39.3637C39.371 14.0649 39.5132 13.5211 39.6262 12.8C39.8678 11.2605 40.2222 9.57234 41.9896 10.08C42.0483 9.81957 42.0727 9.52428 42.1472 9.27984ZM29.4639 13.4933C29.3599 13.2203 29.3329 12.7692 29.3589 12.4266C29.4173 11.656 29.6937 10.7179 30.1204 10.2933C30.7092 9.70715 31.8717 9.8041 32.7988 10.1332C32.8276 9.81586 32.8904 9.53284 32.9302 9.22662C31.4095 8.97445 29.9665 9.13132 29.2013 9.94653C28.4524 10.7447 27.9614 12.5791 28.3085 13.7333C28.7148 15.0839 30.5362 15.1573 32.0112 14.64C32.0764 14.3685 32.1109 14.0659 32.1687 13.7866C31.3628 14.2118 29.8221 14.4329 29.4639 13.4933ZM28.8338 9.25323C27.8325 8.84264 27.0455 9.53655 26.6807 10.1866C26.7632 9.89744 26.7975 9.55873 26.8643 9.25323H25.8664C25.6225 11.1745 25.263 12.9783 24.9211 14.8H26.0504C26.2086 13.7186 26.2769 12.261 26.628 11.2266C26.9086 10.4 27.6429 9.6958 28.7025 10.08C28.7173 9.77501 28.8033 9.54223 28.8338 9.25323ZM10.636 7.01326C10.4747 8.07611 10.2931 9.11833 10.1109 10.1599C8.94105 10.1724 7.74668 10.2186 6.61842 10.1331C6.8315 9.1142 6.98435 8.03382 7.19601 7.01316H5.93562C5.48437 9.61298 5.07406 12.254 4.57031 14.8002H5.85691C6.05881 13.4939 6.24752 12.1744 6.5133 10.9335C7.61048 10.9059 8.92541 10.8582 9.97963 10.9601C9.76229 12.2505 9.49955 13.4947 9.29693 14.8002H10.5836C10.997 12.1622 11.4327 9.54677 11.9491 7.01336L10.636 7.01326ZM13.8396 8.18657C14.0648 8.02918 14.3546 7.31185 14.0234 7.01326C13.9185 6.91868 13.743 6.89125 13.4984 6.93333C13.2712 6.97221 13.1406 7.05049 13.0519 7.17323C12.9091 7.37053 12.7784 7.96554 12.9993 8.18657C13.2144 8.40182 13.6964 8.28661 13.8396 8.18657Z" fill="#FFA62B"/>
</g>
<defs>
<clipPath id="clip0_567_3249">
<rect width="52" height="23" fill="white"/>
</clipPath>
</defs>
</svg>
