<svg width="34" height="28" viewBox="0 0 34 28" fill="none" xmlns="http://www.w3.org/2000/svg">
<path d="M28.5045 22.4383C28.5045 22.8102 28.233 23.0781 27.8434 23.0781C27.442 23.0781 27.1823 22.7937 27.1823 22.4383C27.1823 22.0828 27.442 21.7984 27.8434 21.7984C28.233 21.7984 28.5045 22.0828 28.5045 22.4383ZM10.1587 21.7984C9.73958 21.7984 9.49757 22.0828 9.49757 22.4383C9.49757 22.7937 9.73958 23.0781 10.1587 23.0781C10.5424 23.0781 10.8021 22.8102 10.8021 22.4383C10.7962 22.0828 10.5424 21.7984 10.1587 21.7984ZM17.0944 21.782C16.7757 21.782 16.5809 21.9734 16.5337 22.2578H17.6611C17.608 21.9461 17.4014 21.782 17.0944 21.782ZM23.4576 21.7984C23.0562 21.7984 22.8142 22.0828 22.8142 22.4383C22.8142 22.7937 23.0562 23.0781 23.4576 23.0781C23.859 23.0781 24.1187 22.8102 24.1187 22.4383C24.1187 22.0828 23.859 21.7984 23.4576 21.7984ZM29.7087 23.2258C29.7087 23.2422 29.7264 23.2531 29.7264 23.2859C29.7264 23.3023 29.7087 23.3133 29.7087 23.3461C29.691 23.3625 29.691 23.3734 29.6792 23.3898C29.6615 23.4062 29.6497 23.4172 29.6142 23.4172C29.5965 23.4336 29.5847 23.4336 29.5493 23.4336C29.5316 23.4336 29.5198 23.4336 29.4844 23.4172C29.4667 23.4172 29.4549 23.4008 29.4372 23.3898C29.4194 23.3734 29.4076 23.3625 29.4076 23.3461C29.3899 23.3188 29.3899 23.3023 29.3899 23.2859C29.3899 23.2586 29.3899 23.2422 29.4076 23.2258C29.4076 23.1984 29.4253 23.182 29.4372 23.1656C29.4549 23.1492 29.4667 23.1492 29.4844 23.1383C29.5139 23.1219 29.5316 23.1219 29.5493 23.1219C29.5788 23.1219 29.5965 23.1219 29.6142 23.1383C29.6437 23.1547 29.6615 23.1547 29.6792 23.1656C29.6969 23.1766 29.691 23.1984 29.7087 23.2258ZM29.5788 23.3023C29.6083 23.3023 29.6083 23.2859 29.626 23.2859C29.6437 23.2695 29.6437 23.2586 29.6437 23.2422C29.6437 23.2258 29.6437 23.2148 29.626 23.1984C29.6083 23.1984 29.5965 23.182 29.5611 23.182H29.4667V23.3734H29.5139V23.2969H29.5316L29.5965 23.3734H29.6437L29.5788 23.3023ZM34 4.42969V23.6797C34 25.1289 32.7309 26.3047 31.1667 26.3047H2.83333C1.2691 26.3047 0 25.1289 0 23.6797V4.42969C0 2.98047 1.2691 1.80469 2.83333 1.80469H31.1667C32.7309 1.80469 34 2.98047 34 4.42969ZM3.77778 12.0641C3.77778 16.2477 7.4434 19.6383 11.9531 19.6383C13.5587 19.6383 15.1347 19.1898 16.4688 18.375C12.1656 15.132 12.1951 9.0125 16.4688 5.76953C15.1347 4.94922 13.5587 4.50625 11.9531 4.50625C7.4434 4.50078 3.77778 7.89688 3.77778 12.0641ZM17 18.0141C21.1615 15.0062 21.1437 9.14375 17 6.11953C12.8562 9.14375 12.8385 15.0117 17 18.0141ZM8.60035 22.1867C8.60035 21.7109 8.26389 21.3992 7.73264 21.3828C7.46111 21.3828 7.17187 21.4594 6.97708 21.7383C6.83542 21.5141 6.5934 21.3828 6.25694 21.3828C6.03264 21.3828 5.80833 21.4594 5.63125 21.6781V21.4375H5.14722V23.4445H5.63125C5.63125 22.4109 5.48368 21.793 6.1625 21.793C6.76458 21.793 6.64653 22.3508 6.64653 23.4445H7.11285C7.11285 22.4438 6.96528 21.793 7.6441 21.793C8.24618 21.793 8.12812 22.3398 8.12812 23.4445H8.61215V22.1867H8.60035ZM11.2507 21.4375H10.7844V21.6781C10.625 21.4977 10.4007 21.3828 10.0938 21.3828C9.48576 21.3828 9.01944 21.8312 9.01944 22.4383C9.01944 23.0508 9.48576 23.4937 10.0938 23.4937C10.4007 23.4937 10.625 23.3898 10.7844 23.1984V23.45H11.2507V21.4375ZM13.6413 22.8375C13.6413 22.0172 12.2896 22.3891 12.2896 22.0063C12.2896 21.6945 12.992 21.7437 13.3816 21.9461L13.5764 21.5906C13.0215 21.257 11.7937 21.2625 11.7937 22.0391C11.7937 22.8211 13.1455 22.493 13.1455 22.8594C13.1455 23.2039 12.3486 23.1766 11.9236 22.9031L11.717 23.2477C12.3781 23.6633 13.6413 23.5758 13.6413 22.8375ZM15.7309 23.3461L15.601 22.9742C15.3767 23.0891 14.8809 23.2148 14.8809 22.75V21.8422H15.6542V21.4375H14.8809V20.825H14.3969V21.4375H13.9483V21.8367H14.3969V22.75C14.3969 23.7125 15.4181 23.5375 15.7309 23.3461ZM16.516 22.6133H18.1392C18.1392 21.7273 17.7024 21.3773 17.1122 21.3773C16.4865 21.3773 16.0378 21.8094 16.0378 22.4328C16.0378 23.5539 17.3719 23.7398 18.033 23.2094L17.8087 22.8813C17.3483 23.2312 16.6517 23.1984 16.516 22.6133ZM20.0045 21.4375C19.733 21.3281 19.3198 21.3391 19.1073 21.6781V21.4375H18.6233V23.4445H19.1073V22.3125C19.1073 21.6781 19.6681 21.7602 19.8628 21.8531L20.0045 21.4375ZM20.6302 22.4383C20.6302 21.8148 21.3149 21.6125 21.8521 21.9789L22.0764 21.6234C21.3917 21.1258 20.1462 21.3992 20.1462 22.4438C20.1462 23.5266 21.4684 23.7453 22.0764 23.2641L21.8521 22.9086C21.309 23.2641 20.6302 23.0508 20.6302 22.4383ZM24.5674 21.4375H24.0833V21.6781C23.5934 21.0766 22.3184 21.4156 22.3184 22.4383C22.3184 23.4883 23.6406 23.7891 24.0833 23.1984V23.45H24.5674V21.4375ZM26.5566 21.4375C26.4149 21.3719 25.9073 21.2789 25.6594 21.6781V21.4375H25.1931V23.4445H25.6594V22.3125C25.6594 21.7109 26.1906 21.7492 26.4149 21.8531L26.5566 21.4375ZM28.9354 20.6227H28.4691V21.6781C27.9851 21.082 26.7042 21.3992 26.7042 22.4383C26.7042 23.4992 28.0323 23.7836 28.4691 23.1984V23.45H28.9354V20.6227ZM29.384 16.5156V16.7672H29.4312V16.5156H29.5434V16.4719H29.2719V16.5156H29.384ZM29.7736 23.2859C29.7736 23.2586 29.7736 23.2258 29.7559 23.1984C29.7382 23.182 29.7264 23.1547 29.7087 23.1383C29.691 23.1219 29.6615 23.1109 29.6437 23.0945C29.6142 23.0945 29.5788 23.0781 29.5493 23.0781C29.5316 23.0781 29.5021 23.0945 29.4667 23.0945C29.4372 23.1109 29.4194 23.1219 29.4017 23.1383C29.3722 23.1547 29.3545 23.182 29.3545 23.1984C29.3368 23.2258 29.3368 23.2586 29.3368 23.2859C29.3368 23.3023 29.3368 23.3297 29.3545 23.3625C29.3545 23.3789 29.3722 23.4062 29.4017 23.4227C29.4194 23.4391 29.4312 23.45 29.4667 23.4664C29.4962 23.4828 29.5316 23.4828 29.5493 23.4828C29.5788 23.4828 29.6142 23.4828 29.6437 23.4664C29.6615 23.45 29.691 23.4391 29.7087 23.4227C29.7264 23.4062 29.7382 23.3789 29.7559 23.3625C29.7736 23.3297 29.7736 23.3023 29.7736 23.2859ZM29.9625 16.4664H29.8799L29.7854 16.6578L29.691 16.4664H29.6083V16.7617H29.6556V16.5375L29.75 16.7289H29.8149L29.8976 16.5375V16.7617H29.9625V16.4664ZM30.2222 12.0641C30.2222 7.89688 26.5566 4.50078 22.0469 4.50078C20.4413 4.50078 18.8653 4.94922 17.5312 5.76406C21.7872 9.00703 21.8521 15.143 17.5312 18.3695C18.8653 19.1898 20.4531 19.6328 22.0469 19.6328C26.5566 19.6383 30.2222 16.2477 30.2222 12.0641Z" fill="white"/>
</svg>
