<svg width="32" height="32" viewBox="0 0 32 32" fill="none" xmlns="http://www.w3.org/2000/svg">
<g clip-path="url(#clip0_567_3237)">
<path d="M26.118 14.6281C26.118 14.6281 26.54 16.6951 26.635 17.1281H24.78L25.669 14.7111C25.658 14.7281 25.852 14.2051 25.963 13.8831L26.118 14.6281ZM32.001 6.22205V25.7781C32.0002 26.4851 31.719 27.163 31.219 27.663C30.719 28.163 30.0411 28.4443 29.334 28.4451H2.667C1.95991 28.4443 1.28201 28.163 0.782023 27.663C0.282036 27.163 0.000794036 26.4851 0 25.7781V6.22205C0.000794036 5.51497 0.282036 4.83706 0.782023 4.33708C1.28201 3.83709 1.95991 3.55585 2.667 3.55505H29.334C30.0411 3.55585 30.719 3.83709 31.219 4.33708C31.719 4.83706 32.0002 5.51497 32.001 6.22205ZM8.473 20.1781L11.984 11.5561H9.623L7.44 17.4451L7.201 16.2511L6.423 12.2841C6.295 11.7341 5.901 11.5781 5.412 11.5561H1.818L1.779 11.7281C2.602 11.9302 3.39149 12.2502 4.123 12.6781L6.112 20.1781H8.473ZM13.718 20.1891L15.118 11.5561H12.885L11.491 20.1891H13.718ZM21.49 17.3671C21.501 16.3841 20.901 15.6341 19.618 15.0171C18.835 14.6221 18.357 14.3561 18.357 13.9501C18.368 13.5831 18.763 13.2051 19.64 13.2051C20.2113 13.1881 20.779 13.3002 21.301 13.5331L21.501 13.6271L21.807 11.7601C21.1683 11.5167 20.4905 11.3923 19.807 11.3931C17.601 11.3931 16.051 12.5711 16.04 14.2481C16.023 15.4871 17.151 16.1761 17.996 16.5921C18.857 17.0141 19.152 17.2921 19.152 17.6641C19.141 18.2421 18.452 18.5081 17.813 18.5081C16.924 18.5081 16.446 18.3691 15.718 18.0471L15.424 17.9081L15.113 19.8471C15.635 20.0861 16.602 20.2971 17.602 20.3081C19.946 20.3131 21.474 19.1521 21.491 17.3641L21.49 17.3671ZM29.334 20.1891L27.534 11.5561H25.806C25.273 11.5561 24.867 11.7121 24.639 12.2731L21.322 20.1901H23.666C23.666 20.1901 24.049 19.1231 24.133 18.8961H27C27.067 19.2021 27.267 20.1901 27.267 20.1901L29.334 20.1891Z" fill="white"/>
</g>
<defs>
<clipPath id="clip0_567_3237">
<rect width="32" height="32" fill="white"/>
</clipPath>
</defs>
</svg>
