<svg width="104" height="61" viewBox="0 0 104 61" fill="none" xmlns="http://www.w3.org/2000/svg">
<rect x="1.5" y="1.5" width="101" height="58" rx="13.5" stroke="#157A6E" stroke-width="3"/>
<path d="M26.9008 15.1416C27.4041 13.6195 29.5959 13.6195 30.0992 15.1416L32.8416 23.4343C33.0667 24.115 33.7123 24.5759 34.4408 24.5759H43.3152C44.9442 24.5759 45.6215 26.624 44.3036 27.5647L37.1241 32.6899C36.5347 33.1106 36.2881 33.8564 36.5132 34.5371L39.2556 42.8298C39.7589 44.352 37.9858 45.6177 36.6679 44.677L29.4884 39.5518C28.899 39.1311 28.101 39.1311 27.5116 39.5518L20.3321 44.677C19.0142 45.6177 17.2411 44.3519 17.7444 42.8298L20.4868 34.5371C20.7119 33.8564 20.4653 33.1106 19.8759 32.6899L12.6964 27.5647C11.3785 26.624 12.0558 24.5759 13.6848 24.5759H22.5592C23.2877 24.5759 23.9333 24.115 24.1584 23.4343L26.9008 15.1416Z" fill="#FFA62B"/>
<path d="M58.984 39.168C58.6 39.168 58.296 39.064 58.072 38.856C57.848 38.632 57.736 38.328 57.736 37.944V35.568H51.304C50.904 35.568 50.584 35.48 50.344 35.304C50.104 35.128 49.984 34.856 49.984 34.488C49.984 34.28 50.032 34.056 50.128 33.816C50.24 33.576 50.432 33.264 50.704 32.88L57.688 22.728C57.864 22.456 58.064 22.256 58.288 22.128C58.512 21.984 58.768 21.912 59.056 21.912C59.392 21.912 59.664 22.016 59.872 22.224C60.096 22.416 60.208 22.72 60.208 23.136V33.48H61.72C62.104 33.48 62.384 33.568 62.56 33.744C62.752 33.92 62.848 34.176 62.848 34.512C62.848 34.864 62.752 35.128 62.56 35.304C62.384 35.48 62.104 35.568 61.72 35.568H60.208V37.944C60.208 38.328 60.096 38.632 59.872 38.856C59.664 39.064 59.368 39.168 58.984 39.168ZM57.736 33.48V25.008H58.384L52.12 34.152V33.48H57.736ZM67.2546 41.424C67.0786 41.648 66.8866 41.776 66.6786 41.808C66.4866 41.84 66.3186 41.8 66.1746 41.688C66.0306 41.576 65.9506 41.416 65.9346 41.208C65.9186 41.016 66.0066 40.8 66.1986 40.56C66.4866 40.208 66.6786 39.84 66.7746 39.456C66.8866 39.088 66.9426 38.76 66.9426 38.472L67.0386 39.096C66.5586 39.096 66.1666 38.96 65.8626 38.688C65.5746 38.4 65.4306 38.024 65.4306 37.56C65.4306 37.112 65.5666 36.752 65.8386 36.48C66.1106 36.192 66.4786 36.048 66.9426 36.048C67.4226 36.048 67.7986 36.216 68.0706 36.552C68.3586 36.872 68.5026 37.336 68.5026 37.944C68.5026 38.296 68.4626 38.664 68.3826 39.048C68.3186 39.432 68.1986 39.824 68.0226 40.224C67.8466 40.624 67.5906 41.024 67.2546 41.424ZM77.7259 39.216C76.4459 39.216 75.3419 39.032 74.4139 38.664C73.5019 38.296 72.7979 37.76 72.3019 37.056C71.8219 36.336 71.5819 35.48 71.5819 34.488C71.5819 33.688 71.7419 32.984 72.0619 32.376C72.3819 31.752 72.8299 31.248 73.4059 30.864C73.9819 30.48 74.6459 30.24 75.3979 30.144V30.576C74.3579 30.352 73.5259 29.864 72.9019 29.112C72.2939 28.344 71.9899 27.432 71.9899 26.376C71.9899 25.432 72.2219 24.624 72.6859 23.952C73.1659 23.264 73.8379 22.744 74.7019 22.392C75.5659 22.04 76.5739 21.864 77.7259 21.864C78.8939 21.864 79.9099 22.04 80.7739 22.392C81.6379 22.744 82.3019 23.264 82.7659 23.952C83.2459 24.624 83.4859 25.432 83.4859 26.376C83.4859 27.08 83.3419 27.728 83.0539 28.32C82.7819 28.896 82.3899 29.384 81.8779 29.784C81.3659 30.168 80.7659 30.424 80.0779 30.552V30.144C81.2139 30.304 82.1259 30.776 82.8139 31.56C83.5179 32.328 83.8699 33.304 83.8699 34.488C83.8699 35.48 83.6219 36.336 83.1259 37.056C82.6459 37.76 81.9499 38.296 81.0379 38.664C80.1259 39.032 79.0219 39.216 77.7259 39.216ZM77.7259 37.248C78.9899 37.248 79.9419 37.008 80.5819 36.528C81.2219 36.032 81.5419 35.296 81.5419 34.32C81.5419 33.344 81.2219 32.616 80.5819 32.136C79.9419 31.656 78.9899 31.416 77.7259 31.416C76.4779 31.416 75.5259 31.656 74.8699 32.136C74.2299 32.616 73.9099 33.344 73.9099 34.32C73.9099 35.296 74.2299 36.032 74.8699 36.528C75.5259 37.008 76.4779 37.248 77.7259 37.248ZM77.7259 29.448C78.4459 29.448 79.0539 29.336 79.5499 29.112C80.0619 28.872 80.4539 28.544 80.7259 28.128C80.9979 27.696 81.1339 27.192 81.1339 26.616C81.1339 25.752 80.8299 25.072 80.2219 24.576C79.6299 24.08 78.7979 23.832 77.7259 23.832C76.6539 23.832 75.8219 24.08 75.2299 24.576C74.6379 25.072 74.3419 25.752 74.3419 26.616C74.3419 27.496 74.6379 28.192 75.2299 28.704C75.8219 29.2 76.6539 29.448 77.7259 29.448Z" fill="#157A6E"/>
</svg>
