<svg width="28" height="28" viewBox="0 0 28 28" fill="none" xmlns="http://www.w3.org/2000/svg">
<g clip-path="url(#clip0_567_3252)">
<path d="M20.9764 13.4312V11.8615C22.9792 11.8615 22.848 11.8711 22.848 11.8711C23.0315 11.9008 23.1981 11.996 23.317 12.139C23.4358 12.2819 23.4989 12.4631 23.4946 12.649C23.4946 13.0768 23.2032 13.3542 22.848 13.4172C22.7894 13.4365 22.6879 13.4312 20.9764 13.4312ZM23.0571 14.413C22.9206 14.3788 22.897 14.3885 20.9764 14.3885V16.0895C22.9014 16.0895 22.9206 16.0991 23.0571 16.065C23.2463 16.0267 23.4159 15.9228 23.536 15.7717C23.656 15.6206 23.7189 15.4319 23.7134 15.239C23.7165 15.0466 23.6527 14.8591 23.5331 14.7085C23.4134 14.5579 23.2452 14.4534 23.0571 14.413ZM28.0009 5.44422V22.5557C28.0002 23.1744 27.7541 23.7676 27.3166 24.2051C26.8791 24.6426 26.286 24.8887 25.6672 24.8893H2.33362C1.71492 24.8887 1.12176 24.6426 0.68427 24.2051C0.246781 23.7676 0.000694782 23.1744 0 22.5557V5.44422C0.000694782 4.82552 0.246781 4.23236 0.68427 3.79487C1.12176 3.35738 1.71492 3.11129 2.33362 3.1106H25.6672C26.286 3.11129 26.8791 3.35738 27.3166 3.79487C27.7541 4.23236 28.0002 4.82552 28.0009 5.44422ZM8.848 10.9033H6.07687C6.07687 14.1653 6.59662 16.2356 4.3365 16.2356C3.38888 16.2356 2.45 15.9582 1.55575 15.5163V16.8778C3.01437 17.2812 4.8615 17.2812 4.8615 17.2812C9.62062 17.2812 8.848 14.9625 8.848 10.9033ZM17.5254 11.1221C14.4436 10.3442 9.50425 10.3976 9.50425 14.0052C9.50425 17.7528 14.7639 17.5831 17.5254 16.8831V15.5076C15.211 16.7081 12.2999 16.5768 12.2999 14.0008C12.2999 11.4248 15.2066 11.298 17.5254 12.4845V11.1221ZM26.4451 15.4822C26.4451 14.5827 25.6427 14 24.598 13.9265V13.888C25.5456 13.7567 26.0706 13.1346 26.0706 12.4197C26.0706 11.4957 25.3076 10.9611 24.2716 10.913C24.2716 10.913 24.5779 10.8981 18.424 10.8981V17.0957H24.3889C25.5701 17.101 26.4451 16.4683 26.4451 15.4822Z" fill="white"/>
</g>
<defs>
<clipPath id="clip0_567_3252">
<rect width="28" height="28" fill="white"/>
</clipPath>
</defs>
</svg>
