<svg width="366" height="105" viewBox="0 0 366 105" fill="none" xmlns="http://www.w3.org/2000/svg">
<path fill-rule="evenodd" clip-rule="evenodd" d="M194 0C182.805 0 172.873 5.41094 166.678 13.7603C158.742 7.64023 148.796 4 138 4C128.11 4 118.933 7.05479 111.362 12.2723C104.252 7.07075 95.4846 4 86 4C75.4581 4 65.8022 7.79357 58.323 14.0901C52.4859 7.87901 44.196 4 35 4C17.3269 4 3 18.3269 3 36C3 38.7269 3.3411 41.3742 3.98295 43.9015C1.4269 49.4026 0 55.5346 0 62C0 85.7482 19.2518 105 43 105C55.7092 105 67.1306 99.4863 75.0026 90.7205C79.7088 93.4423 85.1725 95 91 95C96.5564 95 101.782 93.5838 106.336 91.0928C114.195 99.6421 125.472 105 138 105C149.799 105 160.488 100.248 168.258 92.5526C176.499 99.685 187.246 104 199 104C207.975 104 216.362 101.484 223.495 97.1199C228.305 98.98 233.534 100 239 100C248.324 100 256.955 97.0322 264 91.9898C271.045 97.0322 279.676 100 289 100C295.038 100 300.786 98.7554 306 96.5088C311.214 98.7554 316.962 100 323 100C346.748 100 366 80.7482 366 57C366 35.3122 349.944 17.3746 329.07 14.4251C321.538 7.92841 311.728 4 301 4C293.986 4 287.365 5.67917 281.516 8.65741C278.204 7.58151 274.67 7 271 7C263.01 7 255.663 9.75616 249.86 14.3696C246.555 12.8484 242.877 12 239 12C233.509 12 228.415 13.7024 224.218 16.6083C223.976 16.6968 223.735 16.7874 223.495 16.8801C223.469 16.864 223.443 16.8479 223.416 16.8319C223.384 16.812 223.351 16.7922 223.319 16.7724C217.408 6.73542 206.491 0 194 0Z" fill="#FFE5F8"/>
<path d="M46.6164 62.224C46.1684 62.224 45.8044 62.1213 45.5244 61.916C45.263 61.7107 45.1044 61.44 45.0484 61.104C44.9924 60.7493 45.0577 60.3573 45.2444 59.928L52.6364 43.548C52.879 43.0067 53.1684 42.624 53.5044 42.4C53.859 42.1573 54.2604 42.036 54.7084 42.036C55.1377 42.036 55.5204 42.1573 55.8564 42.4C56.211 42.624 56.5097 43.0067 56.7524 43.548L64.1724 59.928C64.3777 60.3573 64.4524 60.7493 64.3964 61.104C64.3404 61.4587 64.1817 61.7387 63.9204 61.944C63.659 62.1307 63.3137 62.224 62.8844 62.224C62.3617 62.224 61.951 62.1027 61.6524 61.86C61.3724 61.5987 61.1204 61.2067 60.8964 60.684L59.0764 56.456L60.5884 57.436H48.7724L50.2844 56.456L48.4924 60.684C48.2497 61.2253 47.9977 61.6173 47.7364 61.86C47.475 62.1027 47.1017 62.224 46.6164 62.224ZM54.6524 46.152L50.7324 55.476L50.0044 54.58H59.3564L58.6564 55.476L54.7084 46.152H54.6524ZM74.0076 67.32C72.9996 67.32 72.0196 67.2267 71.0676 67.04C70.1343 66.8533 69.2849 66.564 68.5196 66.172C68.1649 65.9853 67.9223 65.7613 67.7916 65.5C67.6796 65.2387 67.6423 64.968 67.6796 64.688C67.7356 64.4267 67.8476 64.1933 68.0156 63.988C68.2023 63.7827 68.4263 63.6427 68.6876 63.568C68.9489 63.4933 69.2196 63.5307 69.4996 63.68C70.3209 64.0907 71.0956 64.352 71.8236 64.464C72.5703 64.5947 73.2049 64.66 73.7276 64.66C74.9783 64.66 75.9116 64.352 76.5276 63.736C77.1623 63.1387 77.4796 62.2427 77.4796 61.048V58.528H77.7316C77.4516 59.48 76.8636 60.2453 75.9676 60.824C75.0903 61.384 74.0916 61.664 72.9716 61.664C71.7396 61.664 70.6663 61.384 69.7516 60.824C68.8369 60.2453 68.1276 59.4427 67.6236 58.416C67.1196 57.3893 66.8676 56.1947 66.8676 54.832C66.8676 53.8053 67.0076 52.8813 67.2876 52.06C67.5863 51.22 67.9969 50.5013 68.5196 49.904C69.0609 49.3067 69.7049 48.8493 70.4516 48.532C71.2169 48.196 72.0569 48.028 72.9716 48.028C74.1289 48.028 75.1369 48.3173 75.9956 48.896C76.8729 49.456 77.4423 50.2027 77.7036 51.136L77.4236 51.836V49.848C77.4236 49.2693 77.5729 48.8307 77.8716 48.532C78.1889 48.2333 78.6183 48.084 79.1596 48.084C79.7196 48.084 80.1489 48.2333 80.4476 48.532C80.7463 48.8307 80.8956 49.2693 80.8956 49.848V60.628C80.8956 62.8493 80.3076 64.52 79.1316 65.64C77.9556 66.76 76.2476 67.32 74.0076 67.32ZM73.9236 59.004C74.6516 59.004 75.2769 58.836 75.7996 58.5C76.3223 58.164 76.7236 57.688 77.0036 57.072C77.3023 56.4373 77.4516 55.6907 77.4516 54.832C77.4516 53.544 77.1343 52.536 76.4996 51.808C75.8649 51.0613 75.0063 50.688 73.9236 50.688C73.1956 50.688 72.5703 50.856 72.0476 51.192C71.5249 51.528 71.1143 52.004 70.8156 52.62C70.5356 53.236 70.3956 53.9733 70.3956 54.832C70.3956 56.12 70.7129 57.1373 71.3476 57.884C71.9823 58.6307 72.8409 59.004 73.9236 59.004ZM92.11 62.28C90.5607 62.28 89.226 61.9907 88.106 61.412C86.986 60.8333 86.118 60.012 85.502 58.948C84.9047 57.884 84.606 56.624 84.606 55.168C84.606 53.7493 84.8954 52.508 85.474 51.444C86.0714 50.38 86.8834 49.5493 87.91 48.952C88.9554 48.336 90.1407 48.028 91.466 48.028C92.4367 48.028 93.3047 48.1867 94.07 48.504C94.854 48.8213 95.5167 49.2787 96.058 49.876C96.618 50.4733 97.038 51.2013 97.318 52.06C97.6167 52.9 97.766 53.852 97.766 54.916C97.766 55.252 97.6447 55.5133 97.402 55.7C97.178 55.868 96.8514 55.952 96.422 55.952H87.434V53.936H95.302L94.854 54.356C94.854 53.4973 94.7234 52.7787 94.462 52.2C94.2194 51.6213 93.8554 51.1827 93.37 50.884C92.9034 50.5667 92.3154 50.408 91.606 50.408C90.822 50.408 90.15 50.5947 89.59 50.968C89.0487 51.3227 88.6287 51.836 88.33 52.508C88.05 53.1613 87.91 53.9453 87.91 54.86V55.056C87.91 56.5867 88.2647 57.7347 88.974 58.5C89.702 59.2467 90.766 59.62 92.166 59.62C92.6514 59.62 93.1927 59.564 93.79 59.452C94.406 59.3213 94.9847 59.1067 95.526 58.808C95.918 58.584 96.2634 58.4907 96.562 58.528C96.8607 58.5467 97.094 58.6493 97.262 58.836C97.4487 59.0227 97.5607 59.256 97.598 59.536C97.6354 59.7973 97.5794 60.068 97.43 60.348C97.2994 60.628 97.066 60.8707 96.73 61.076C96.0767 61.4867 95.3207 61.7947 94.462 62C93.622 62.1867 92.838 62.28 92.11 62.28ZM103.114 62.224C102.554 62.224 102.124 62.0747 101.826 61.776C101.527 61.4587 101.378 61.0107 101.378 60.432V49.848C101.378 49.2693 101.527 48.8307 101.826 48.532C102.124 48.2333 102.544 48.084 103.086 48.084C103.627 48.084 104.047 48.2333 104.346 48.532C104.644 48.8307 104.794 49.2693 104.794 49.848V51.752L104.486 51.052C104.896 50.0627 105.531 49.316 106.39 48.812C107.267 48.2893 108.256 48.028 109.358 48.028C110.459 48.028 111.364 48.2333 112.074 48.644C112.783 49.0547 113.315 49.68 113.67 50.52C114.024 51.3413 114.202 52.3867 114.202 53.656V60.432C114.202 61.0107 114.052 61.4587 113.754 61.776C113.455 62.0747 113.026 62.224 112.466 62.224C111.906 62.224 111.467 62.0747 111.15 61.776C110.851 61.4587 110.702 61.0107 110.702 60.432V53.824C110.702 52.76 110.496 51.9853 110.086 51.5C109.694 51.0147 109.078 50.772 108.238 50.772C107.211 50.772 106.39 51.0987 105.774 51.752C105.176 52.3867 104.878 53.236 104.878 54.3V60.432C104.878 61.6267 104.29 62.224 103.114 62.224ZM123.861 62.28C122.666 62.28 121.611 61.9907 120.697 61.412C119.801 60.8333 119.101 60.012 118.597 58.948C118.093 57.8653 117.841 56.596 117.841 55.14C117.841 53.6653 118.093 52.4053 118.597 51.36C119.101 50.296 119.801 49.4747 120.697 48.896C121.611 48.3173 122.666 48.028 123.861 48.028C124.999 48.028 125.989 48.308 126.829 48.868C127.687 49.428 128.266 50.1653 128.565 51.08H128.257V43.8C128.257 43.2213 128.406 42.7827 128.705 42.484C129.003 42.1853 129.433 42.036 129.993 42.036C130.553 42.036 130.982 42.1853 131.281 42.484C131.598 42.7827 131.757 43.2213 131.757 43.8V60.432C131.757 61.0107 131.607 61.4587 131.309 61.776C131.01 62.0747 130.581 62.224 130.021 62.224C129.461 62.224 129.031 62.0747 128.733 61.776C128.434 61.4587 128.285 61.0107 128.285 60.432V58.248L128.593 59.088C128.313 60.0587 127.743 60.8333 126.885 61.412C126.026 61.9907 125.018 62.28 123.861 62.28ZM124.841 59.62C125.531 59.62 126.138 59.452 126.661 59.116C127.183 58.78 127.585 58.2853 127.865 57.632C128.163 56.96 128.313 56.1293 128.313 55.14C128.313 53.6467 127.995 52.536 127.361 51.808C126.726 51.0613 125.886 50.688 124.841 50.688C124.15 50.688 123.543 50.856 123.021 51.192C122.498 51.5093 122.087 52.004 121.789 52.676C121.509 53.3293 121.369 54.1507 121.369 55.14C121.369 56.6147 121.686 57.7347 122.321 58.5C122.955 59.2467 123.795 59.62 124.841 59.62ZM142.974 62.28C141.424 62.28 140.09 61.9907 138.97 61.412C137.85 60.8333 136.982 60.012 136.366 58.948C135.768 57.884 135.47 56.624 135.47 55.168C135.47 53.7493 135.759 52.508 136.338 51.444C136.935 50.38 137.747 49.5493 138.774 48.952C139.819 48.336 141.004 48.028 142.33 48.028C143.3 48.028 144.168 48.1867 144.934 48.504C145.718 48.8213 146.38 49.2787 146.922 49.876C147.482 50.4733 147.902 51.2013 148.182 52.06C148.48 52.9 148.63 53.852 148.63 54.916C148.63 55.252 148.508 55.5133 148.266 55.7C148.042 55.868 147.715 55.952 147.286 55.952H138.298V53.936H146.166L145.718 54.356C145.718 53.4973 145.587 52.7787 145.326 52.2C145.083 51.6213 144.719 51.1827 144.234 50.884C143.767 50.5667 143.179 50.408 142.47 50.408C141.686 50.408 141.014 50.5947 140.454 50.968C139.912 51.3227 139.492 51.836 139.194 52.508C138.914 53.1613 138.774 53.9453 138.774 54.86V55.056C138.774 56.5867 139.128 57.7347 139.838 58.5C140.566 59.2467 141.63 59.62 143.03 59.62C143.515 59.62 144.056 59.564 144.654 59.452C145.27 59.3213 145.848 59.1067 146.39 58.808C146.782 58.584 147.127 58.4907 147.426 58.528C147.724 58.5467 147.958 58.6493 148.126 58.836C148.312 59.0227 148.424 59.256 148.462 59.536C148.499 59.7973 148.443 60.068 148.294 60.348C148.163 60.628 147.93 60.8707 147.594 61.076C146.94 61.4867 146.184 61.7947 145.326 62C144.486 62.1867 143.702 62.28 142.974 62.28ZM165.639 62.28C164.5 62.28 163.558 62.0747 162.811 61.664C162.064 61.2347 161.504 60.6 161.131 59.76C160.776 58.92 160.599 57.8747 160.599 56.624V49.848C160.599 49.2507 160.748 48.812 161.047 48.532C161.346 48.2333 161.775 48.084 162.335 48.084C162.895 48.084 163.324 48.2333 163.623 48.532C163.94 48.812 164.099 49.2507 164.099 49.848V56.68C164.099 57.6507 164.295 58.3693 164.687 58.836C165.079 59.3027 165.704 59.536 166.563 59.536C167.496 59.536 168.262 59.2187 168.859 58.584C169.456 57.9307 169.755 57.072 169.755 56.008V49.848C169.755 49.2507 169.904 48.812 170.203 48.532C170.502 48.2333 170.931 48.084 171.491 48.084C172.051 48.084 172.48 48.2333 172.779 48.532C173.096 48.812 173.255 49.2507 173.255 49.848V60.432C173.255 61.6267 172.686 62.224 171.547 62.224C171.006 62.224 170.586 62.0747 170.287 61.776C169.988 61.4587 169.839 61.0107 169.839 60.432V58.304L170.231 59.144C169.839 60.152 169.242 60.9267 168.439 61.468C167.655 62.0093 166.722 62.28 165.639 62.28ZM179.53 62.224C178.97 62.224 178.541 62.0747 178.242 61.776C177.943 61.4587 177.794 61.0107 177.794 60.432V49.848C177.794 49.2693 177.943 48.8307 178.242 48.532C178.541 48.2333 178.961 48.084 179.502 48.084C180.043 48.084 180.463 48.2333 180.762 48.532C181.061 48.8307 181.21 49.2693 181.21 49.848V51.892L180.902 51.052C181.275 50.1187 181.854 49.3813 182.638 48.84C183.422 48.2987 184.355 48.028 185.438 48.028C186.539 48.028 187.445 48.2893 188.154 48.812C188.863 49.3347 189.358 50.1373 189.638 51.22H189.246C189.619 50.2307 190.235 49.456 191.094 48.896C191.953 48.3173 192.942 48.028 194.062 48.028C195.107 48.028 195.966 48.2333 196.638 48.644C197.329 49.0547 197.842 49.68 198.178 50.52C198.514 51.3413 198.682 52.3867 198.682 53.656V60.432C198.682 61.0107 198.523 61.4587 198.206 61.776C197.907 62.0747 197.478 62.224 196.918 62.224C196.358 62.224 195.929 62.0747 195.63 61.776C195.331 61.4587 195.182 61.0107 195.182 60.432V53.796C195.182 52.7507 195.005 51.9853 194.65 51.5C194.314 51.0147 193.735 50.772 192.914 50.772C191.999 50.772 191.281 51.0987 190.758 51.752C190.235 52.3867 189.974 53.2733 189.974 54.412V60.432C189.974 61.0107 189.825 61.4587 189.526 61.776C189.227 62.0747 188.798 62.224 188.238 62.224C187.678 62.224 187.239 62.0747 186.922 61.776C186.623 61.4587 186.474 61.0107 186.474 60.432V53.796C186.474 52.7507 186.297 51.9853 185.942 51.5C185.606 51.0147 185.037 50.772 184.234 50.772C183.319 50.772 182.601 51.0987 182.078 51.752C181.555 52.3867 181.294 53.2733 181.294 54.412V60.432C181.294 61.6267 180.706 62.224 179.53 62.224ZM207.641 62.28C206.651 62.28 205.765 62.0933 204.981 61.72C204.215 61.328 203.609 60.8053 203.161 60.152C202.731 59.4987 202.517 58.7613 202.517 57.94C202.517 56.932 202.778 56.1387 203.301 55.56C203.823 54.9627 204.673 54.5333 205.849 54.272C207.025 54.0107 208.602 53.88 210.581 53.88H211.981V55.896H210.609C209.451 55.896 208.527 55.952 207.837 56.064C207.146 56.176 206.651 56.372 206.353 56.652C206.073 56.9133 205.933 57.2867 205.933 57.772C205.933 58.388 206.147 58.892 206.577 59.284C207.006 59.676 207.603 59.872 208.369 59.872C208.985 59.872 209.526 59.732 209.993 59.452C210.478 59.1533 210.861 58.752 211.141 58.248C211.421 57.744 211.561 57.1653 211.561 56.512V53.292C211.561 52.3587 211.355 51.6867 210.945 51.276C210.534 50.8653 209.843 50.66 208.873 50.66C208.331 50.66 207.743 50.7253 207.109 50.856C206.493 50.9867 205.839 51.2107 205.149 51.528C204.794 51.696 204.477 51.7427 204.197 51.668C203.935 51.5933 203.73 51.444 203.581 51.22C203.431 50.9773 203.357 50.716 203.357 50.436C203.357 50.156 203.431 49.8853 203.581 49.624C203.73 49.344 203.982 49.1387 204.337 49.008C205.195 48.6533 206.017 48.4013 206.801 48.252C207.603 48.1027 208.331 48.028 208.985 48.028C210.329 48.028 211.43 48.2333 212.289 48.644C213.166 49.0547 213.819 49.68 214.249 50.52C214.678 51.3413 214.893 52.4053 214.893 53.712V60.432C214.893 61.0107 214.753 61.4587 214.473 61.776C214.193 62.0747 213.791 62.224 213.269 62.224C212.746 62.224 212.335 62.0747 212.037 61.776C211.757 61.4587 211.617 61.0107 211.617 60.432V59.088H211.841C211.71 59.7413 211.449 60.3107 211.057 60.796C210.683 61.2627 210.207 61.6267 209.629 61.888C209.05 62.1493 208.387 62.28 207.641 62.28ZM234.867 62.28C234.045 62.28 233.224 62.2147 232.403 62.084C231.581 61.972 230.807 61.7947 230.079 61.552C229.351 61.2907 228.697 60.9733 228.119 60.6C227.783 60.376 227.549 60.1053 227.419 59.788C227.288 59.4707 227.241 59.1627 227.279 58.864C227.335 58.5467 227.456 58.276 227.643 58.052C227.848 57.8093 228.1 57.66 228.399 57.604C228.697 57.548 229.024 57.632 229.379 57.856C230.2 58.3413 231.068 58.696 231.983 58.92C232.897 59.144 233.859 59.256 234.867 59.256C236.341 59.256 237.415 59.0133 238.087 58.528C238.759 58.024 239.095 57.38 239.095 56.596C239.095 55.9427 238.852 55.4293 238.367 55.056C237.9 54.6827 237.088 54.3747 235.931 54.132L232.851 53.488C231.077 53.1147 229.752 52.4893 228.875 51.612C228.016 50.716 227.587 49.54 227.587 48.084C227.587 47.1693 227.773 46.3387 228.147 45.592C228.52 44.8453 229.043 44.2013 229.715 43.66C230.405 43.1187 231.217 42.708 232.151 42.428C233.103 42.1293 234.148 41.98 235.287 41.98C236.407 41.98 237.471 42.12 238.479 42.4C239.487 42.68 240.392 43.0907 241.195 43.632C241.493 43.8373 241.689 44.0893 241.783 44.388C241.895 44.6867 241.923 44.9853 241.867 45.284C241.811 45.564 241.68 45.8067 241.475 46.012C241.269 46.2173 241.008 46.3387 240.691 46.376C240.392 46.4133 240.047 46.32 239.655 46.096C238.964 45.704 238.264 45.424 237.555 45.256C236.845 45.088 236.08 45.004 235.259 45.004C234.4 45.004 233.663 45.1253 233.047 45.368C232.431 45.6107 231.955 45.956 231.619 46.404C231.301 46.8333 231.143 47.3467 231.143 47.944C231.143 48.616 231.367 49.1573 231.815 49.568C232.263 49.96 233.028 50.268 234.111 50.492L237.163 51.136C239.011 51.528 240.383 52.144 241.279 52.984C242.193 53.824 242.651 54.944 242.651 56.344C242.651 57.24 242.464 58.052 242.091 58.78C241.736 59.508 241.213 60.1333 240.523 60.656C239.851 61.1787 239.039 61.58 238.087 61.86C237.135 62.14 236.061 62.28 234.867 62.28ZM252.979 62.28C251.429 62.28 250.095 61.9907 248.975 61.412C247.855 60.8333 246.987 60.012 246.371 58.948C245.773 57.884 245.475 56.624 245.475 55.168C245.475 53.7493 245.764 52.508 246.343 51.444C246.94 50.38 247.752 49.5493 248.779 48.952C249.824 48.336 251.009 48.028 252.335 48.028C253.305 48.028 254.173 48.1867 254.939 48.504C255.723 48.8213 256.385 49.2787 256.927 49.876C257.487 50.4733 257.907 51.2013 258.187 52.06C258.485 52.9 258.635 53.852 258.635 54.916C258.635 55.252 258.513 55.5133 258.271 55.7C258.047 55.868 257.72 55.952 257.291 55.952H248.303V53.936H256.171L255.723 54.356C255.723 53.4973 255.592 52.7787 255.331 52.2C255.088 51.6213 254.724 51.1827 254.239 50.884C253.772 50.5667 253.184 50.408 252.475 50.408C251.691 50.408 251.019 50.5947 250.459 50.968C249.917 51.3227 249.497 51.836 249.199 52.508C248.919 53.1613 248.779 53.9453 248.779 54.86V55.056C248.779 56.5867 249.133 57.7347 249.843 58.5C250.571 59.2467 251.635 59.62 253.035 59.62C253.52 59.62 254.061 59.564 254.659 59.452C255.275 59.3213 255.853 59.1067 256.395 58.808C256.787 58.584 257.132 58.4907 257.431 58.528C257.729 58.5467 257.963 58.6493 258.131 58.836C258.317 59.0227 258.429 59.256 258.467 59.536C258.504 59.7973 258.448 60.068 258.299 60.348C258.168 60.628 257.935 60.8707 257.599 61.076C256.945 61.4867 256.189 61.7947 255.331 62C254.491 62.1867 253.707 62.28 252.979 62.28ZM267.259 62.28C266.456 62.28 265.607 62.196 264.711 62.028C263.815 61.86 263.012 61.5707 262.303 61.16C262.004 60.9733 261.789 60.7587 261.659 60.516C261.547 60.2547 261.5 60.0027 261.519 59.76C261.556 59.4987 261.649 59.2747 261.799 59.088C261.967 58.9013 262.172 58.78 262.415 58.724C262.676 58.668 262.956 58.7147 263.255 58.864C264.001 59.2187 264.701 59.4707 265.355 59.62C266.008 59.7507 266.652 59.816 267.287 59.816C268.183 59.816 268.845 59.6667 269.275 59.368C269.723 59.0507 269.947 58.64 269.947 58.136C269.947 57.7067 269.797 57.38 269.499 57.156C269.219 56.9133 268.789 56.736 268.211 56.624L265.411 56.092C264.253 55.868 263.367 55.448 262.751 54.832C262.153 54.1973 261.855 53.3853 261.855 52.396C261.855 51.5 262.097 50.7253 262.583 50.072C263.087 49.4187 263.777 48.9147 264.655 48.56C265.532 48.2053 266.54 48.028 267.679 48.028C268.5 48.028 269.265 48.1213 269.975 48.308C270.703 48.476 271.403 48.7467 272.075 49.12C272.355 49.2693 272.541 49.4653 272.635 49.708C272.747 49.9507 272.775 50.2027 272.719 50.464C272.663 50.7067 272.551 50.9307 272.383 51.136C272.215 51.3227 272 51.444 271.739 51.5C271.496 51.5373 271.216 51.4813 270.899 51.332C270.32 51.0333 269.76 50.8187 269.219 50.688C268.696 50.5573 268.192 50.492 267.707 50.492C266.792 50.492 266.111 50.6507 265.663 50.968C265.233 51.2853 265.019 51.7053 265.019 52.228C265.019 52.62 265.149 52.9467 265.411 53.208C265.672 53.4693 266.073 53.6467 266.615 53.74L269.415 54.272C270.628 54.496 271.543 54.9067 272.159 55.504C272.793 56.1013 273.111 56.904 273.111 57.912C273.111 59.2747 272.579 60.348 271.515 61.132C270.451 61.8973 269.032 62.28 267.259 62.28ZM281.77 62.28C280.968 62.28 280.118 62.196 279.222 62.028C278.326 61.86 277.524 61.5707 276.814 61.16C276.516 60.9733 276.301 60.7587 276.17 60.516C276.058 60.2547 276.012 60.0027 276.03 59.76C276.068 59.4987 276.161 59.2747 276.31 59.088C276.478 58.9013 276.684 58.78 276.926 58.724C277.188 58.668 277.468 58.7147 277.766 58.864C278.513 59.2187 279.213 59.4707 279.866 59.62C280.52 59.7507 281.164 59.816 281.798 59.816C282.694 59.816 283.357 59.6667 283.786 59.368C284.234 59.0507 284.458 58.64 284.458 58.136C284.458 57.7067 284.309 57.38 284.01 57.156C283.73 56.9133 283.301 56.736 282.722 56.624L279.922 56.092C278.765 55.868 277.878 55.448 277.262 54.832C276.665 54.1973 276.366 53.3853 276.366 52.396C276.366 51.5 276.609 50.7253 277.094 50.072C277.598 49.4187 278.289 48.9147 279.166 48.56C280.044 48.2053 281.052 48.028 282.19 48.028C283.012 48.028 283.777 48.1213 284.486 48.308C285.214 48.476 285.914 48.7467 286.586 49.12C286.866 49.2693 287.053 49.4653 287.146 49.708C287.258 49.9507 287.286 50.2027 287.23 50.464C287.174 50.7067 287.062 50.9307 286.894 51.136C286.726 51.3227 286.512 51.444 286.25 51.5C286.008 51.5373 285.728 51.4813 285.41 51.332C284.832 51.0333 284.272 50.8187 283.73 50.688C283.208 50.5573 282.704 50.492 282.218 50.492C281.304 50.492 280.622 50.6507 280.174 50.968C279.745 51.2853 279.53 51.7053 279.53 52.228C279.53 52.62 279.661 52.9467 279.922 53.208C280.184 53.4693 280.585 53.6467 281.126 53.74L283.926 54.272C285.14 54.496 286.054 54.9067 286.67 55.504C287.305 56.1013 287.622 56.904 287.622 57.912C287.622 59.2747 287.09 60.348 286.026 61.132C284.962 61.8973 283.544 62.28 281.77 62.28ZM295.778 62.28C294.789 62.28 293.902 62.0933 293.118 61.72C292.353 61.328 291.746 60.8053 291.298 60.152C290.869 59.4987 290.654 58.7613 290.654 57.94C290.654 56.932 290.916 56.1387 291.438 55.56C291.961 54.9627 292.81 54.5333 293.986 54.272C295.162 54.0107 296.74 53.88 298.718 53.88H300.118V55.896H298.746C297.589 55.896 296.665 55.952 295.974 56.064C295.284 56.176 294.789 56.372 294.49 56.652C294.21 56.9133 294.07 57.2867 294.07 57.772C294.07 58.388 294.285 58.892 294.714 59.284C295.144 59.676 295.741 59.872 296.506 59.872C297.122 59.872 297.664 59.732 298.13 59.452C298.616 59.1533 298.998 58.752 299.278 58.248C299.558 57.744 299.698 57.1653 299.698 56.512V53.292C299.698 52.3587 299.493 51.6867 299.082 51.276C298.672 50.8653 297.981 50.66 297.01 50.66C296.469 50.66 295.881 50.7253 295.246 50.856C294.63 50.9867 293.977 51.2107 293.286 51.528C292.932 51.696 292.614 51.7427 292.334 51.668C292.073 51.5933 291.868 51.444 291.718 51.22C291.569 50.9773 291.494 50.716 291.494 50.436C291.494 50.156 291.569 49.8853 291.718 49.624C291.868 49.344 292.12 49.1387 292.474 49.008C293.333 48.6533 294.154 48.4013 294.938 48.252C295.741 48.1027 296.469 48.028 297.122 48.028C298.466 48.028 299.568 48.2333 300.426 48.644C301.304 49.0547 301.957 49.68 302.386 50.52C302.816 51.3413 303.03 52.4053 303.03 53.712V60.432C303.03 61.0107 302.89 61.4587 302.61 61.776C302.33 62.0747 301.929 62.224 301.406 62.224C300.884 62.224 300.473 62.0747 300.174 61.776C299.894 61.4587 299.754 61.0107 299.754 60.432V59.088H299.978C299.848 59.7413 299.586 60.3107 299.194 60.796C298.821 61.2627 298.345 61.6267 297.766 61.888C297.188 62.1493 296.525 62.28 295.778 62.28ZM292.698 45.732C292.418 45.7133 292.204 45.62 292.054 45.452C291.905 45.284 291.868 45.0227 291.942 44.668C292.017 44.276 292.129 43.8933 292.278 43.52C292.446 43.128 292.661 42.7733 292.922 42.456C293.184 42.1387 293.501 41.8867 293.874 41.7C294.248 41.4947 294.686 41.392 295.19 41.392C295.657 41.392 296.068 41.4853 296.422 41.672C296.777 41.8587 297.104 42.0733 297.402 42.316C297.701 42.5587 298 42.7733 298.298 42.96C298.597 43.1467 298.924 43.24 299.278 43.24C299.67 43.24 300.006 43.1093 300.286 42.848C300.585 42.568 300.772 42.2227 300.846 41.812C300.884 41.6067 300.977 41.448 301.126 41.336C301.294 41.224 301.528 41.1773 301.826 41.196C302.106 41.2147 302.321 41.308 302.47 41.476C302.62 41.644 302.657 41.9053 302.582 42.26C302.489 42.764 302.312 43.268 302.05 43.772C301.789 44.276 301.434 44.696 300.986 45.032C300.557 45.368 300.006 45.536 299.334 45.536C298.868 45.536 298.457 45.4427 298.102 45.256C297.748 45.0693 297.412 44.8547 297.094 44.612C296.796 44.3693 296.497 44.1547 296.198 43.968C295.9 43.7813 295.582 43.688 295.246 43.688C294.854 43.688 294.518 43.8187 294.238 44.08C293.958 44.3413 293.772 44.6867 293.678 45.116C293.641 45.3213 293.538 45.48 293.37 45.592C293.221 45.704 292.997 45.7507 292.698 45.732ZM313.667 62.28C312.248 62.28 311.016 61.9907 309.971 61.412C308.925 60.8333 308.113 60.012 307.535 58.948C306.956 57.8653 306.667 56.596 306.667 55.14C306.667 54.0387 306.825 53.0587 307.143 52.2C307.479 51.3227 307.955 50.576 308.571 49.96C309.187 49.3253 309.924 48.8493 310.783 48.532C311.641 48.196 312.603 48.028 313.667 48.028C315.085 48.028 316.317 48.3173 317.363 48.896C318.408 49.4747 319.22 50.296 319.799 51.36C320.377 52.424 320.667 53.684 320.667 55.14C320.667 56.2413 320.499 57.2307 320.163 58.108C319.845 58.9853 319.379 59.7413 318.763 60.376C318.147 60.992 317.409 61.468 316.551 61.804C315.692 62.1213 314.731 62.28 313.667 62.28ZM313.667 59.62C314.357 59.62 314.964 59.452 315.487 59.116C316.009 58.78 316.411 58.2853 316.691 57.632C316.989 56.96 317.139 56.1293 317.139 55.14C317.139 53.6467 316.821 52.536 316.187 51.808C315.552 51.0613 314.712 50.688 313.667 50.688C312.976 50.688 312.369 50.856 311.847 51.192C311.324 51.5093 310.913 52.004 310.615 52.676C310.335 53.3293 310.195 54.1507 310.195 55.14C310.195 56.6147 310.512 57.7347 311.147 58.5C311.781 59.2467 312.621 59.62 313.667 59.62Z" fill="#FF188A"/>
</svg>
