<svg width="150" height="67" viewBox="0 0 150 67" fill="none" xmlns="http://www.w3.org/2000/svg">
<path fill-rule="evenodd" clip-rule="evenodd" d="M76.1875 1.63804C65.3695 -2.26719 52.9883 1.04836 45.7386 9.05368C45.0005 8.8119 44.2177 8.65492 43.4047 8.59575C42.0208 7.76651 40.5182 7.05111 38.9054 6.46889C25.8591 1.75928 10.5396 7.55138 4.68832 19.4059C2.02452 24.8028 1.7823 30.5257 3.53986 35.6036C2.93435 36.4597 2.39248 37.3651 1.92276 38.3168C-3.02589 48.3426 1.90714 59.6991 12.941 63.6823C20.5432 66.4267 29.0581 64.9547 35.2377 60.4945C35.7483 60.6043 36.275 60.6793 36.8144 60.7161C38.8657 62.8008 41.4801 64.4976 44.5743 65.6146C53.995 69.0154 64.817 65.9417 70.8601 58.7301C72.6215 60.5496 75.2827 61.7086 78.2605 61.7086C80.2439 61.7086 82.0868 61.1944 83.617 60.3133C85.2095 61.3504 86.9723 62.2317 88.8911 62.9244C97.3649 65.9834 106.798 64.612 113.972 60.0268C115.498 61.1144 117.227 62.0259 119.138 62.7161C130.172 66.6992 143.129 61.8006 148.077 51.7748C152.134 43.5548 149.549 34.4405 142.406 29.2285C142.964 28.4426 143.464 27.6105 143.896 26.7354C148.382 17.6467 143.91 7.35174 133.907 3.74095C126.488 1.06266 118.11 2.8142 112.447 7.60661C112.414 7.60581 112.382 7.60516 112.349 7.60463C112.309 7.60401 112.269 7.60357 112.229 7.6033L112.153 7.60307C111.607 7.60307 111.072 7.63975 110.551 7.71019C108.776 6.25064 106.678 5.04714 104.296 4.18727C97.4652 1.72142 89.8976 2.65955 83.9493 6.11082C81.7745 4.24639 79.1694 2.71448 76.1875 1.63804Z" fill="#D5941D"/>
<path d="M38.3 27.68C38.6467 27.8533 38.8467 28.1267 38.9 28.5C38.9667 28.8733 38.8733 29.2133 38.62 29.52C38.4467 29.76 38.22 29.8933 37.94 29.92C37.6733 29.9467 37.4 29.8933 37.12 29.76C36.8 29.6133 36.46 29.5 36.1 29.42C35.7533 29.34 35.3867 29.3 35 29.3C34.28 29.3 33.6333 29.4133 33.06 29.64C32.5 29.8667 32.02 30.1933 31.62 30.62C31.22 31.0333 30.9133 31.5267 30.7 32.1C30.5 32.6733 30.4 33.3067 30.4 34C30.4 34.8133 30.5133 35.52 30.74 36.12C30.98 36.72 31.3067 37.22 31.72 37.62C32.1333 38.02 32.62 38.32 33.18 38.52C33.74 38.7067 34.3467 38.8 35 38.8C35.36 38.8 35.72 38.7667 36.08 38.7C36.44 38.6333 36.7867 38.5133 37.12 38.34C37.4 38.2067 37.6733 38.16 37.94 38.2C38.22 38.24 38.4533 38.38 38.64 38.62C38.9067 38.9533 39 39.3 38.92 39.66C38.8533 40.0067 38.6533 40.26 38.32 40.42C37.9733 40.5933 37.6133 40.74 37.24 40.86C36.88 40.9667 36.5133 41.0467 36.14 41.1C35.7667 41.1667 35.3867 41.2 35 41.2C34.04 41.2 33.1267 41.0467 32.26 40.74C31.4067 40.4333 30.64 39.98 29.96 39.38C29.2933 38.78 28.7667 38.0333 28.38 37.14C27.9933 36.2333 27.8 35.1867 27.8 34C27.8 32.9733 27.9733 32.0267 28.32 31.16C28.68 30.2933 29.18 29.5467 29.82 28.92C30.4733 28.28 31.24 27.7867 32.12 27.44C33 27.08 33.96 26.9 35 26.9C35.5867 26.9 36.16 26.9667 36.72 27.1C37.28 27.2333 37.8067 27.4267 38.3 27.68ZM51.8191 35.66C51.8191 36.7533 51.5724 37.72 51.0791 38.56C50.5991 39.3867 49.9457 40.0333 49.1191 40.5C48.3057 40.9667 47.3924 41.2 46.3791 41.2C45.3657 41.2 44.4457 40.9667 43.6191 40.5C42.8057 40.0333 42.1524 39.3867 41.6591 38.56C41.1791 37.72 40.9391 36.7533 40.9391 35.66C40.9391 34.5667 41.1791 33.6067 41.6591 32.78C42.1524 31.94 42.8057 31.2867 43.6191 30.82C44.4457 30.34 45.3657 30.1 46.3791 30.1C47.3924 30.1 48.3057 30.34 49.1191 30.82C49.9457 31.2867 50.5991 31.94 51.0791 32.78C51.5724 33.6067 51.8191 34.5667 51.8191 35.66ZM49.4191 35.66C49.4191 34.98 49.2791 34.3933 48.9991 33.9C48.7324 33.3933 48.3657 33 47.8991 32.72C47.4457 32.44 46.9391 32.3 46.3791 32.3C45.8191 32.3 45.3057 32.44 44.8391 32.72C44.3857 33 44.0191 33.3933 43.7391 33.9C43.4724 34.3933 43.3391 34.98 43.3391 35.66C43.3391 36.3267 43.4724 36.9133 43.7391 37.42C44.0191 37.9133 44.3857 38.3 44.8391 38.58C45.3057 38.86 45.8191 39 46.3791 39C46.9391 39 47.4457 38.86 47.8991 38.58C48.3657 38.3 48.7324 37.9133 48.9991 37.42C49.2791 36.9133 49.4191 36.3267 49.4191 35.66ZM60.2395 30.1C61.2262 30.1 61.9729 30.3067 62.4795 30.72C62.9995 31.1333 63.3529 31.6867 63.5395 32.38C63.7395 33.06 63.8395 33.82 63.8395 34.66V39.78C63.8395 40.1267 63.7262 40.42 63.4995 40.66C63.2729 40.8867 62.9862 41 62.6395 41C62.2929 41 62.0062 40.8867 61.7795 40.66C61.5529 40.42 61.4395 40.1267 61.4395 39.78V34.66C61.4395 34.22 61.3795 33.8267 61.2595 33.48C61.1529 33.12 60.9529 32.8333 60.6595 32.62C60.3662 32.4067 59.9462 32.3 59.3995 32.3C58.8662 32.3 58.4129 32.4067 58.0395 32.62C57.6795 32.8333 57.3995 33.12 57.1995 33.48C57.0129 33.8267 56.9195 34.22 56.9195 34.66V39.78C56.9195 40.1267 56.8062 40.42 56.5795 40.66C56.3529 40.8867 56.0662 41 55.7195 41C55.3729 41 55.0862 40.8867 54.8595 40.66C54.6329 40.42 54.5195 40.1267 54.5195 39.78V31.52C54.5195 31.1733 54.6329 30.8867 54.8595 30.66C55.0862 30.42 55.3729 30.3 55.7195 30.3C56.0662 30.3 56.3529 30.42 56.5795 30.66C56.8062 30.8867 56.9195 31.1733 56.9195 31.52V32.38L56.6195 32.32C56.7395 32.0933 56.9129 31.8533 57.1395 31.6C57.3662 31.3333 57.6329 31.0867 57.9395 30.86C58.2462 30.6333 58.5929 30.4533 58.9795 30.32C59.3662 30.1733 59.7862 30.1 60.2395 30.1ZM72.6536 30.1C73.6136 30.1 74.3403 30.3067 74.8336 30.72C75.3403 31.1333 75.6869 31.6867 75.8736 32.38C76.0603 33.06 76.1536 33.82 76.1536 34.66V39.78C76.1536 40.1267 76.0403 40.42 75.8136 40.66C75.5869 40.8867 75.3003 41 74.9536 41C74.6069 41 74.3203 40.8867 74.0936 40.66C73.8669 40.42 73.7536 40.1267 73.7536 39.78V34.66C73.7536 34.22 73.7003 33.8267 73.5936 33.48C73.4869 33.12 73.2936 32.8333 73.0136 32.62C72.7336 32.4067 72.3336 32.3 71.8136 32.3C71.3069 32.3 70.8736 32.4067 70.5136 32.62C70.1536 32.8333 69.8803 33.12 69.6936 33.48C69.5203 33.8267 69.4336 34.22 69.4336 34.66V39.78C69.4336 40.1267 69.3203 40.42 69.0936 40.66C68.8669 40.8867 68.5803 41 68.2336 41C67.8869 41 67.6003 40.8867 67.3736 40.66C67.1469 40.42 67.0336 40.1267 67.0336 39.78V27.42C67.0336 27.0733 67.1469 26.7867 67.3736 26.56C67.6003 26.32 67.8869 26.2 68.2336 26.2C68.5803 26.2 68.8669 26.32 69.0936 26.56C69.3203 26.7867 69.4336 27.0733 69.4336 27.42V32.38L69.1336 32.32C69.2536 32.0933 69.4203 31.8533 69.6336 31.6C69.8469 31.3333 70.1069 31.0867 70.4136 30.86C70.7203 30.6333 71.0603 30.4533 71.4336 30.32C71.8069 30.1733 72.2136 30.1 72.6536 30.1ZM84.3923 41.2C83.259 41.2 82.2723 40.9667 81.4323 40.5C80.6057 40.02 79.9657 39.3733 79.5123 38.56C79.0723 37.7467 78.8523 36.8267 78.8523 35.8C78.8523 34.6 79.0923 33.58 79.5723 32.74C80.0657 31.8867 80.7057 31.2333 81.4923 30.78C82.279 30.3267 83.1123 30.1 83.9923 30.1C84.6723 30.1 85.3123 30.24 85.9123 30.52C86.5257 30.8 87.0657 31.1867 87.5323 31.68C87.999 32.16 88.3657 32.72 88.6323 33.36C88.9123 34 89.0523 34.68 89.0523 35.4C89.039 35.72 88.9123 35.98 88.6723 36.18C88.4323 36.38 88.1523 36.48 87.8323 36.48H80.1923L79.5923 34.48H86.9323L86.4923 34.88V34.34C86.4657 33.9533 86.3257 33.6067 86.0723 33.3C85.8323 32.9933 85.5257 32.7533 85.1523 32.58C84.7923 32.3933 84.4057 32.3 83.9923 32.3C83.5923 32.3 83.219 32.3533 82.8723 32.46C82.5257 32.5667 82.2257 32.7467 81.9723 33C81.719 33.2533 81.519 33.5933 81.3723 34.02C81.2257 34.4467 81.1523 34.9867 81.1523 35.64C81.1523 36.36 81.299 36.9733 81.5923 37.48C81.899 37.9733 82.2857 38.3533 82.7523 38.62C83.2323 38.8733 83.739 39 84.2723 39C84.7657 39 85.159 38.96 85.4523 38.88C85.7457 38.8 85.979 38.7067 86.1523 38.6C86.339 38.48 86.5057 38.38 86.6523 38.3C86.8923 38.18 87.119 38.12 87.3323 38.12C87.6257 38.12 87.8657 38.22 88.0523 38.42C88.2523 38.62 88.3523 38.8533 88.3523 39.12C88.3523 39.48 88.1657 39.8067 87.7923 40.1C87.4457 40.3933 86.959 40.6533 86.3323 40.88C85.7057 41.0933 85.059 41.2 84.3923 41.2ZM96.5092 30.1C97.2692 30.1 97.9292 30.18 98.4892 30.34C99.0626 30.5 99.5026 30.7267 99.8092 31.02C100.129 31.3 100.289 31.64 100.289 32.04C100.289 32.3067 100.209 32.56 100.049 32.8C99.8892 33.0267 99.6559 33.14 99.3492 33.14C99.1359 33.14 98.9559 33.1133 98.8092 33.06C98.6759 32.9933 98.5559 32.9133 98.4492 32.82C98.3426 32.7267 98.2159 32.64 98.0692 32.56C97.9359 32.48 97.7292 32.42 97.4492 32.38C97.1826 32.3267 96.9826 32.3 96.8492 32.3C96.1692 32.3 95.5892 32.4467 95.1092 32.74C94.6426 33.0333 94.2826 33.4333 94.0292 33.94C93.7759 34.4333 93.6492 35.0067 93.6492 35.66C93.6492 36.3 93.7759 36.8733 94.0292 37.38C94.2959 37.8733 94.6559 38.2667 95.1092 38.56C95.5759 38.8533 96.1092 39 96.7092 39C97.0426 39 97.3292 38.98 97.5692 38.94C97.8092 38.9 98.0092 38.84 98.1692 38.76C98.3559 38.6533 98.5226 38.54 98.6692 38.42C98.8159 38.3 99.0359 38.24 99.3292 38.24C99.6759 38.24 99.9426 38.3533 100.129 38.58C100.316 38.7933 100.409 39.06 100.409 39.38C100.409 39.7133 100.223 40.02 99.8492 40.3C99.4759 40.5667 98.9826 40.7867 98.3692 40.96C97.7692 41.12 97.1159 41.2 96.4092 41.2C95.3559 41.2 94.4426 40.96 93.6692 40.48C92.8959 39.9867 92.2959 39.32 91.8692 38.48C91.4559 37.64 91.2492 36.7 91.2492 35.66C91.2492 34.5667 91.4692 33.6067 91.9092 32.78C92.3626 31.94 92.9826 31.2867 93.7692 30.82C94.5692 30.34 95.4826 30.1 96.5092 30.1ZM107.78 41.2C106.647 41.2 105.66 40.9667 104.82 40.5C103.993 40.02 103.353 39.3733 102.9 38.56C102.46 37.7467 102.24 36.8267 102.24 35.8C102.24 34.6 102.48 33.58 102.96 32.74C103.453 31.8867 104.093 31.2333 104.88 30.78C105.667 30.3267 106.5 30.1 107.38 30.1C108.06 30.1 108.7 30.24 109.3 30.52C109.913 30.8 110.453 31.1867 110.92 31.68C111.387 32.16 111.753 32.72 112.02 33.36C112.3 34 112.44 34.68 112.44 35.4C112.427 35.72 112.3 35.98 112.06 36.18C111.82 36.38 111.54 36.48 111.22 36.48H103.58L102.98 34.48H110.32L109.88 34.88V34.34C109.853 33.9533 109.713 33.6067 109.46 33.3C109.22 32.9933 108.913 32.7533 108.54 32.58C108.18 32.3933 107.793 32.3 107.38 32.3C106.98 32.3 106.607 32.3533 106.26 32.46C105.913 32.5667 105.613 32.7467 105.36 33C105.107 33.2533 104.907 33.5933 104.76 34.02C104.613 34.4467 104.54 34.9867 104.54 35.64C104.54 36.36 104.687 36.9733 104.98 37.48C105.287 37.9733 105.673 38.3533 106.14 38.62C106.62 38.8733 107.127 39 107.66 39C108.153 39 108.547 38.96 108.84 38.88C109.133 38.8 109.367 38.7067 109.54 38.6C109.727 38.48 109.893 38.38 110.04 38.3C110.28 38.18 110.507 38.12 110.72 38.12C111.013 38.12 111.253 38.22 111.44 38.42C111.64 38.62 111.74 38.8533 111.74 39.12C111.74 39.48 111.553 39.8067 111.18 40.1C110.833 40.3933 110.347 40.6533 109.72 40.88C109.093 41.0933 108.447 41.2 107.78 41.2ZM116.337 41C115.99 41 115.703 40.8867 115.477 40.66C115.25 40.42 115.137 40.1267 115.137 39.78V31.52C115.137 31.1733 115.25 30.8867 115.477 30.66C115.703 30.42 115.99 30.3 116.337 30.3C116.683 30.3 116.97 30.42 117.197 30.66C117.423 30.8867 117.537 31.1733 117.537 31.52V33.4L117.397 32.06C117.543 31.74 117.73 31.46 117.957 31.22C118.197 30.9667 118.463 30.76 118.757 30.6C119.05 30.4267 119.363 30.3 119.697 30.22C120.03 30.14 120.363 30.1 120.697 30.1C121.097 30.1 121.43 30.2133 121.697 30.44C121.977 30.6667 122.117 30.9333 122.117 31.24C122.117 31.68 122.003 32 121.777 32.2C121.55 32.3867 121.303 32.48 121.037 32.48C120.783 32.48 120.55 32.4333 120.337 32.34C120.137 32.2467 119.903 32.2 119.637 32.2C119.397 32.2 119.15 32.26 118.897 32.38C118.657 32.4867 118.43 32.66 118.217 32.9C118.017 33.14 117.85 33.44 117.717 33.8C117.597 34.1467 117.537 34.56 117.537 35.04V39.78C117.537 40.1267 117.423 40.42 117.197 40.66C116.97 40.8867 116.683 41 116.337 41Z" fill="#E3ECEA"/>
</svg>
