<svg width="1440" height="2976" viewBox="0 0 1440 2976" fill="none" xmlns="http://www.w3.org/2000/svg">
<g filter="url(#filter0_d_275_1106)">
<path fill-rule="evenodd" clip-rule="evenodd" d="M1468 126.753C1468 152.213 1458.66 174.974 1444 190.075V816.935V920.927V2976H4V920.927V816.935L4.00005 148.959C-16.1444 142.323 -31 119.377 -31 92.0887C-31 59.6117 -9.95737 33.2839 16 33.2839C27.5843 33.2839 38.1897 38.5275 46.3827 47.2212C59.5871 28.0765 79.1577 15.952 101 15.952C127.054 15.952 149.876 33.2035 162.517 59.0431C175.511 43.1121 193.335 33.2839 213 33.2839C224.973 33.2839 236.263 36.9269 246.196 43.3722C259.29 26.466 277.66 15.952 298 15.952C330.455 15.952 357.895 42.7211 366.886 79.5139C374.151 73.7568 382.764 70.4238 392 70.4238C396.679 70.4238 401.199 71.2794 405.465 72.8725C412.607 67.3929 421.008 64.2338 430 64.2338C441.947 64.2338 452.854 69.8113 461.146 78.9987C469.859 66.1855 482.912 58.0438 497.5 58.0438C512.17 58.0438 525.287 66.277 534 79.2145C542.713 66.277 555.83 58.0438 570.5 58.0438C584.09 58.0438 596.347 65.1092 605.005 76.4346C605.349 47.7443 624.243 24.618 647.5 24.618C658.578 24.618 668.666 29.8653 676.231 38.4618C686.739 29.7193 699.388 24.6179 713 24.6179C730.146 24.6179 745.765 32.7124 757.5 45.983C769.235 32.7124 784.854 24.6179 802 24.6179C820.471 24.6179 837.17 34.0117 849.15 49.1508C860.839 26.2267 881.483 11 905 11C934.434 11 959.367 34.8529 967.876 67.7964C973.906 61.7002 981.608 58.0438 990 58.0438C1008.06 58.0438 1022.92 74.9709 1024.8 96.7064C1035.85 73.5645 1056.21 58.0438 1079.5 58.0438C1084.2 58.0438 1088.78 58.6765 1093.2 59.8768C1104.84 42.1404 1122.6 30.8079 1142.5 30.8079C1153.17 30.8079 1163.23 34.0671 1172.06 39.8252C1186.91 21.9837 1207.17 11 1229.5 11C1255.33 11 1278.4 25.7005 1293.52 48.7131C1305.82 39.6971 1320.17 34.5219 1335.5 34.5219C1351.26 34.5219 1365.98 39.9911 1378.51 49.4799C1385.67 46.2109 1393.42 44.4259 1401.5 44.4259C1438.23 44.4259 1468 81.2848 1468 126.753ZM618.969 116.23H617.997C617.994 115.847 617.988 115.464 617.979 115.083C618.304 115.472 618.634 115.854 618.969 116.23Z" fill="#FFE6F8"/>
</g>
<g filter="url(#filter1_d_275_1106)">
<circle cx="1320.5" cy="178.5" r="82.5" transform="rotate(-180 1320.5 178.5)" fill="#FFE5F8"/>
</g>
<g filter="url(#filter2_d_275_1106)">
<circle cx="1213.5" cy="236.5" r="63.5" transform="rotate(-180 1213.5 236.5)" fill="#FFE5F8"/>
</g>
<g filter="url(#filter3_d_275_1106)">
<circle cx="1031.5" cy="210.5" r="63.5" transform="rotate(-180 1031.5 210.5)" fill="#FFE5F8"/>
</g>
<g filter="url(#filter4_d_275_1106)">
<circle cx="937" cy="192" r="66" transform="rotate(-180 937 192)" fill="#FFE5F8"/>
</g>
<g filter="url(#filter5_d_275_1106)">
<circle cx="788" cy="174" r="66" transform="rotate(-180 788 174)" fill="#FFE5F8"/>
</g>
<g filter="url(#filter6_d_275_1106)">
<circle cx="663.5" cy="206.5" r="42.5" transform="rotate(-180 663.5 206.5)" fill="#FFE5F8"/>
</g>
<g filter="url(#filter7_d_275_1106)">
<circle cx="536.5" cy="179.5" r="47.5" transform="rotate(-180 536.5 179.5)" fill="#FFE5F8"/>
</g>
<g filter="url(#filter8_d_275_1106)">
<circle cx="447.5" cy="155.5" r="47.5" transform="rotate(-180 447.5 155.5)" fill="#FFE5F8"/>
</g>
<g filter="url(#filter9_d_275_1106)">
<ellipse cx="364" cy="183.5" rx="47" ry="47.5" transform="rotate(-180 364 183.5)" fill="#FFE5F8"/>
</g>
<g filter="url(#filter10_d_275_1106)">
<ellipse cx="230" cy="251.5" rx="72" ry="72.5" transform="rotate(-180 230 251.5)" fill="#FFE5F8"/>
</g>
<g filter="url(#filter11_d_275_1106)">
<ellipse cx="136" cy="172.5" rx="72" ry="72.5" transform="rotate(-180 136 172.5)" fill="#FFE5F8"/>
</g>
<g filter="url(#filter12_d_275_1106)">
<ellipse cx="43" cy="263.5" rx="47" ry="47.5" transform="rotate(-180 43 263.5)" fill="#FFE5F8"/>
</g>
<defs>
<filter id="filter0_d_275_1106" x="-31" y="0" width="1499" height="2976" filterUnits="userSpaceOnUse" color-interpolation-filters="sRGB">
<feFlood flood-opacity="0" result="BackgroundImageFix"/>
<feColorMatrix in="SourceAlpha" type="matrix" values="0 0 0 0 0 0 0 0 0 0 0 0 0 0 0 0 0 0 127 0" result="hardAlpha"/>
<feOffset dy="-11"/>
<feComposite in2="hardAlpha" operator="out"/>
<feColorMatrix type="matrix" values="0 0 0 0 1 0 0 0 0 0.513726 0 0 0 0 0.862745 0 0 0 1 0"/>
<feBlend mode="normal" in2="BackgroundImageFix" result="effect1_dropShadow_275_1106"/>
<feBlend mode="normal" in="SourceGraphic" in2="effect1_dropShadow_275_1106" result="shape"/>
</filter>
<filter id="filter1_d_275_1106" x="1230" y="81" width="173" height="180" filterUnits="userSpaceOnUse" color-interpolation-filters="sRGB">
<feFlood flood-opacity="0" result="BackgroundImageFix"/>
<feColorMatrix in="SourceAlpha" type="matrix" values="0 0 0 0 0 0 0 0 0 0 0 0 0 0 0 0 0 0 127 0" result="hardAlpha"/>
<feOffset dx="-8" dy="-15"/>
<feComposite in2="hardAlpha" operator="out"/>
<feColorMatrix type="matrix" values="0 0 0 0 1 0 0 0 0 0.513726 0 0 0 0 0.862745 0 0 0 1 0"/>
<feBlend mode="normal" in2="BackgroundImageFix" result="effect1_dropShadow_275_1106"/>
<feBlend mode="normal" in="SourceGraphic" in2="effect1_dropShadow_275_1106" result="shape"/>
</filter>
<filter id="filter2_d_275_1106" x="1142" y="158" width="135" height="142" filterUnits="userSpaceOnUse" color-interpolation-filters="sRGB">
<feFlood flood-opacity="0" result="BackgroundImageFix"/>
<feColorMatrix in="SourceAlpha" type="matrix" values="0 0 0 0 0 0 0 0 0 0 0 0 0 0 0 0 0 0 127 0" result="hardAlpha"/>
<feOffset dx="-8" dy="-15"/>
<feComposite in2="hardAlpha" operator="out"/>
<feColorMatrix type="matrix" values="0 0 0 0 1 0 0 0 0 0.513726 0 0 0 0 0.862745 0 0 0 1 0"/>
<feBlend mode="normal" in2="BackgroundImageFix" result="effect1_dropShadow_275_1106"/>
<feBlend mode="normal" in="SourceGraphic" in2="effect1_dropShadow_275_1106" result="shape"/>
</filter>
<filter id="filter3_d_275_1106" x="960" y="132" width="135" height="142" filterUnits="userSpaceOnUse" color-interpolation-filters="sRGB">
<feFlood flood-opacity="0" result="BackgroundImageFix"/>
<feColorMatrix in="SourceAlpha" type="matrix" values="0 0 0 0 0 0 0 0 0 0 0 0 0 0 0 0 0 0 127 0" result="hardAlpha"/>
<feOffset dx="-8" dy="-15"/>
<feComposite in2="hardAlpha" operator="out"/>
<feColorMatrix type="matrix" values="0 0 0 0 1 0 0 0 0 0.513726 0 0 0 0 0.862745 0 0 0 1 0"/>
<feBlend mode="normal" in2="BackgroundImageFix" result="effect1_dropShadow_275_1106"/>
<feBlend mode="normal" in="SourceGraphic" in2="effect1_dropShadow_275_1106" result="shape"/>
</filter>
<filter id="filter4_d_275_1106" x="863" y="111" width="140" height="147" filterUnits="userSpaceOnUse" color-interpolation-filters="sRGB">
<feFlood flood-opacity="0" result="BackgroundImageFix"/>
<feColorMatrix in="SourceAlpha" type="matrix" values="0 0 0 0 0 0 0 0 0 0 0 0 0 0 0 0 0 0 127 0" result="hardAlpha"/>
<feOffset dx="-8" dy="-15"/>
<feComposite in2="hardAlpha" operator="out"/>
<feColorMatrix type="matrix" values="0 0 0 0 1 0 0 0 0 0.513726 0 0 0 0 0.862745 0 0 0 1 0"/>
<feBlend mode="normal" in2="BackgroundImageFix" result="effect1_dropShadow_275_1106"/>
<feBlend mode="normal" in="SourceGraphic" in2="effect1_dropShadow_275_1106" result="shape"/>
</filter>
<filter id="filter5_d_275_1106" x="722" y="97" width="137" height="143" filterUnits="userSpaceOnUse" color-interpolation-filters="sRGB">
<feFlood flood-opacity="0" result="BackgroundImageFix"/>
<feColorMatrix in="SourceAlpha" type="matrix" values="0 0 0 0 0 0 0 0 0 0 0 0 0 0 0 0 0 0 127 0" result="hardAlpha"/>
<feOffset dx="5" dy="-11"/>
<feComposite in2="hardAlpha" operator="out"/>
<feColorMatrix type="matrix" values="0 0 0 0 1 0 0 0 0 0.513726 0 0 0 0 0.862745 0 0 0 1 0"/>
<feBlend mode="normal" in2="BackgroundImageFix" result="effect1_dropShadow_275_1106"/>
<feBlend mode="normal" in="SourceGraphic" in2="effect1_dropShadow_275_1106" result="shape"/>
</filter>
<filter id="filter6_d_275_1106" x="621" y="152" width="86" height="97" filterUnits="userSpaceOnUse" color-interpolation-filters="sRGB">
<feFlood flood-opacity="0" result="BackgroundImageFix"/>
<feColorMatrix in="SourceAlpha" type="matrix" values="0 0 0 0 0 0 0 0 0 0 0 0 0 0 0 0 0 0 127 0" result="hardAlpha"/>
<feOffset dx="1" dy="-12"/>
<feComposite in2="hardAlpha" operator="out"/>
<feColorMatrix type="matrix" values="0 0 0 0 1 0 0 0 0 0.513726 0 0 0 0 0.862745 0 0 0 1 0"/>
<feBlend mode="normal" in2="BackgroundImageFix" result="effect1_dropShadow_275_1106"/>
<feBlend mode="normal" in="SourceGraphic" in2="effect1_dropShadow_275_1106" result="shape"/>
</filter>
<filter id="filter7_d_275_1106" x="488" y="121" width="97" height="106" filterUnits="userSpaceOnUse" color-interpolation-filters="sRGB">
<feFlood flood-opacity="0" result="BackgroundImageFix"/>
<feColorMatrix in="SourceAlpha" type="matrix" values="0 0 0 0 0 0 0 0 0 0 0 0 0 0 0 0 0 0 127 0" result="hardAlpha"/>
<feOffset dy="-10"/>
<feGaussianBlur stdDeviation="0.5"/>
<feComposite in2="hardAlpha" operator="out"/>
<feColorMatrix type="matrix" values="0 0 0 0 1 0 0 0 0 0.513726 0 0 0 0 0.862745 0 0 0 1 0"/>
<feBlend mode="normal" in2="BackgroundImageFix" result="effect1_dropShadow_275_1106"/>
<feBlend mode="normal" in="SourceGraphic" in2="effect1_dropShadow_275_1106" result="shape"/>
</filter>
<filter id="filter8_d_275_1106" x="399" y="97" width="97" height="106" filterUnits="userSpaceOnUse" color-interpolation-filters="sRGB">
<feFlood flood-opacity="0" result="BackgroundImageFix"/>
<feColorMatrix in="SourceAlpha" type="matrix" values="0 0 0 0 0 0 0 0 0 0 0 0 0 0 0 0 0 0 127 0" result="hardAlpha"/>
<feOffset dy="-10"/>
<feGaussianBlur stdDeviation="0.5"/>
<feComposite in2="hardAlpha" operator="out"/>
<feColorMatrix type="matrix" values="0 0 0 0 1 0 0 0 0 0.513726 0 0 0 0 0.862745 0 0 0 1 0"/>
<feBlend mode="normal" in2="BackgroundImageFix" result="effect1_dropShadow_275_1106"/>
<feBlend mode="normal" in="SourceGraphic" in2="effect1_dropShadow_275_1106" result="shape"/>
</filter>
<filter id="filter9_d_275_1106" x="316" y="125" width="96" height="106" filterUnits="userSpaceOnUse" color-interpolation-filters="sRGB">
<feFlood flood-opacity="0" result="BackgroundImageFix"/>
<feColorMatrix in="SourceAlpha" type="matrix" values="0 0 0 0 0 0 0 0 0 0 0 0 0 0 0 0 0 0 127 0" result="hardAlpha"/>
<feOffset dy="-10"/>
<feGaussianBlur stdDeviation="0.5"/>
<feComposite in2="hardAlpha" operator="out"/>
<feColorMatrix type="matrix" values="0 0 0 0 1 0 0 0 0 0.513726 0 0 0 0 0.862745 0 0 0 1 0"/>
<feBlend mode="normal" in2="BackgroundImageFix" result="effect1_dropShadow_275_1106"/>
<feBlend mode="normal" in="SourceGraphic" in2="effect1_dropShadow_275_1106" result="shape"/>
</filter>
<filter id="filter10_d_275_1106" x="158" y="164" width="152" height="160" filterUnits="userSpaceOnUse" color-interpolation-filters="sRGB">
<feFlood flood-opacity="0" result="BackgroundImageFix"/>
<feColorMatrix in="SourceAlpha" type="matrix" values="0 0 0 0 0 0 0 0 0 0 0 0 0 0 0 0 0 0 127 0" result="hardAlpha"/>
<feOffset dx="8" dy="-15"/>
<feComposite in2="hardAlpha" operator="out"/>
<feColorMatrix type="matrix" values="0 0 0 0 1 0 0 0 0 0.513726 0 0 0 0 0.862745 0 0 0 1 0"/>
<feBlend mode="normal" in2="BackgroundImageFix" result="effect1_dropShadow_275_1106"/>
<feBlend mode="normal" in="SourceGraphic" in2="effect1_dropShadow_275_1106" result="shape"/>
</filter>
<filter id="filter11_d_275_1106" x="64" y="85" width="151" height="160" filterUnits="userSpaceOnUse" color-interpolation-filters="sRGB">
<feFlood flood-opacity="0" result="BackgroundImageFix"/>
<feColorMatrix in="SourceAlpha" type="matrix" values="0 0 0 0 0 0 0 0 0 0 0 0 0 0 0 0 0 0 127 0" result="hardAlpha"/>
<feOffset dx="7" dy="-15"/>
<feComposite in2="hardAlpha" operator="out"/>
<feColorMatrix type="matrix" values="0 0 0 0 1 0 0 0 0 0.513726 0 0 0 0 0.862745 0 0 0 1 0"/>
<feBlend mode="normal" in2="BackgroundImageFix" result="effect1_dropShadow_275_1106"/>
<feBlend mode="normal" in="SourceGraphic" in2="effect1_dropShadow_275_1106" result="shape"/>
</filter>
<filter id="filter12_d_275_1106" x="-4" y="206" width="98" height="105" filterUnits="userSpaceOnUse" color-interpolation-filters="sRGB">
<feFlood flood-opacity="0" result="BackgroundImageFix"/>
<feColorMatrix in="SourceAlpha" type="matrix" values="0 0 0 0 0 0 0 0 0 0 0 0 0 0 0 0 0 0 127 0" result="hardAlpha"/>
<feOffset dx="4" dy="-10"/>
<feComposite in2="hardAlpha" operator="out"/>
<feColorMatrix type="matrix" values="0 0 0 0 1 0 0 0 0 0.5125 0 0 0 0 0.862228 0 0 0 1 0"/>
<feBlend mode="normal" in2="BackgroundImageFix" result="effect1_dropShadow_275_1106"/>
<feBlend mode="normal" in="SourceGraphic" in2="effect1_dropShadow_275_1106" result="shape"/>
</filter>
</defs>
</svg>
