<svg width="308" height="76" viewBox="0 0 308 76" fill="none" xmlns="http://www.w3.org/2000/svg">
<path fill-rule="evenodd" clip-rule="evenodd" d="M73.0655 4.83806C71.0413 1.82943 68.3683 0 65.438 0C61.8548 0 58.6563 2.73558 56.5585 7.01775C53.4855 4.50021 49.6182 3 45.4167 3C36.6023 3 29.2583 9.60293 27.6356 18.3501C19.2956 20.0519 13 27.7548 13 37C13 43.5953 16.2039 49.4058 21.0683 52.8126C20.7794 54.1598 20.627 55.5612 20.627 57C20.627 67.4934 28.7373 76 38.742 76C44.7767 76 50.1222 72.9049 53.4143 68.1457C56.7372 72.3339 61.7444 75 67.3454 75C72.0305 75 76.3002 73.1345 79.5161 70.0731C84.3947 73.8007 90.4028 76 96.9007 76C104.012 76 110.537 73.3656 115.637 68.9766C119.387 72.1204 124.143 74 129.317 74C136.141 74 142.237 70.731 146.258 65.6046C149.197 67.1378 152.509 68 156.013 68C160.513 68 164.695 66.5788 168.176 64.141C173.263 69.0221 180.038 72 187.476 72C192.689 72 197.577 70.5373 201.785 67.9818C205.31 70.5168 209.576 72 214.172 72C219.933 72 225.174 69.6705 229.087 65.8607C233.091 71.4126 239.44 75 246.588 75C253.515 75 259.692 71.6316 263.71 66.3713C265.826 66.9248 268.082 67.2237 270.424 67.2237C282.535 67.2237 292.353 59.2296 292.353 49.3684C292.353 46.9083 291.742 44.5644 290.637 42.4318C293.506 39.4132 295.213 35.6255 295.213 31.5131C295.213 21.6519 285.395 13.6578 273.284 13.6578C270.915 13.6578 268.633 13.9639 266.495 14.5302C262.475 9.32639 256.332 6 249.449 6C246.237 6 243.186 6.72437 240.437 8.02585C236.449 3.69398 230.854 1 224.66 1C218.149 1 212.301 3.976 208.285 8.70181C205.209 6.97755 201.695 6 197.963 6C192.708 6 187.884 7.93914 184.107 11.1725C179.112 6.70011 172.63 4 165.548 4C161.169 4 157.021 5.03179 153.311 6.87618C147.994 2.56512 141.325 0 134.085 0C127.558 0 121.495 2.08467 116.468 5.65383C113.184 2.16333 108.62 0 103.575 0C97.9212 0 92.8725 2.71649 89.5504 6.97291C87.4523 2.71649 84.2636 0 80.6929 0C77.7626 0 75.0896 1.82943 73.0655 4.83806Z" fill="#1376FF"/>
<path d="M44.5823 31C45.2757 31 45.9223 31.2 46.5223 31.6C47.1357 32 47.629 32.54 48.0023 33.22C48.3757 33.9 48.5623 34.66 48.5623 35.5C48.5623 36.3267 48.3757 37.08 48.0023 37.76C47.629 38.44 47.1357 38.9867 46.5223 39.4C45.9223 39.8 45.2757 40 44.5823 40H40.9023L41.1023 39.64V43.78C41.1023 44.1267 40.9957 44.42 40.7823 44.66C40.569 44.8867 40.289 45 39.9423 45C39.609 45 39.3357 44.8867 39.1223 44.66C38.909 44.42 38.8023 44.1267 38.8023 43.78V32.22C38.8023 31.8733 38.9157 31.5867 39.1423 31.36C39.3823 31.12 39.6757 31 40.0223 31H44.5823ZM44.5823 37.72C44.8357 37.72 45.0823 37.6133 45.3223 37.4C45.5623 37.1867 45.7623 36.9133 45.9223 36.58C46.0823 36.2333 46.1623 35.8733 46.1623 35.5C46.1623 35.1133 46.0823 34.7533 45.9223 34.42C45.7623 34.0867 45.5623 33.82 45.3223 33.62C45.0823 33.4067 44.8357 33.3 44.5823 33.3H40.8623L41.1023 32.94V38.04L40.8823 37.72H44.5823ZM52.4531 45C52.1065 45 51.8198 44.8867 51.5931 44.66C51.3665 44.42 51.2531 44.1267 51.2531 43.78V35.52C51.2531 35.1733 51.3665 34.8867 51.5931 34.66C51.8198 34.42 52.1065 34.3 52.4531 34.3C52.7998 34.3 53.0865 34.42 53.3131 34.66C53.5398 34.8867 53.6531 35.1733 53.6531 35.52V37.4L53.5131 36.06C53.6598 35.74 53.8465 35.46 54.0731 35.22C54.3131 34.9667 54.5798 34.76 54.8731 34.6C55.1665 34.4267 55.4798 34.3 55.8131 34.22C56.1465 34.14 56.4798 34.1 56.8131 34.1C57.2131 34.1 57.5465 34.2133 57.8131 34.44C58.0931 34.6667 58.2331 34.9333 58.2331 35.24C58.2331 35.68 58.1198 36 57.8931 36.2C57.6665 36.3867 57.4198 36.48 57.1531 36.48C56.8998 36.48 56.6665 36.4333 56.4531 36.34C56.2531 36.2467 56.0198 36.2 55.7531 36.2C55.5131 36.2 55.2665 36.26 55.0131 36.38C54.7731 36.4867 54.5465 36.66 54.3331 36.9C54.1331 37.14 53.9665 37.44 53.8331 37.8C53.7131 38.1467 53.6531 38.56 53.6531 39.04V43.78C53.6531 44.1267 53.5398 44.42 53.3131 44.66C53.0865 44.8867 52.7998 45 52.4531 45ZM62.785 43.78C62.785 44.1267 62.6717 44.42 62.445 44.66C62.2183 44.8867 61.9317 45 61.585 45C61.2383 45 60.9517 44.8867 60.725 44.66C60.4983 44.42 60.385 44.1267 60.385 43.78V35.52C60.385 35.1733 60.4983 34.8867 60.725 34.66C60.9517 34.42 61.2383 34.3 61.585 34.3C61.9317 34.3 62.2183 34.42 62.445 34.66C62.6717 34.8867 62.785 35.1733 62.785 35.52V43.78ZM61.565 33C61.1117 33 60.7917 32.9267 60.605 32.78C60.4183 32.6333 60.325 32.3733 60.325 32V31.62C60.325 31.2333 60.425 30.9733 60.625 30.84C60.8383 30.6933 61.1583 30.62 61.585 30.62C62.0517 30.62 62.3783 30.6933 62.565 30.84C62.7517 30.9867 62.845 31.2467 62.845 31.62V32C62.845 32.3867 62.745 32.6533 62.545 32.8C62.345 32.9333 62.0183 33 61.565 33ZM71.4716 34.1C72.5382 34.1 73.3249 34.36 73.8316 34.88C74.3382 35.3867 74.6716 36.0467 74.8316 36.86L74.4916 36.68L74.6516 36.36C74.8116 36.0533 75.0582 35.7267 75.3916 35.38C75.7249 35.02 76.1249 34.72 76.5916 34.48C77.0716 34.2267 77.6049 34.1 78.1916 34.1C79.1516 34.1 79.8782 34.3067 80.3716 34.72C80.8782 35.1333 81.2249 35.6867 81.4116 36.38C81.5982 37.06 81.6916 37.82 81.6916 38.66V43.78C81.6916 44.1267 81.5782 44.42 81.3516 44.66C81.1249 44.8867 80.8382 45 80.4916 45C80.1449 45 79.8582 44.8867 79.6316 44.66C79.4049 44.42 79.2916 44.1267 79.2916 43.78V38.66C79.2916 38.22 79.2382 37.8267 79.1316 37.48C79.0249 37.12 78.8316 36.8333 78.5516 36.62C78.2716 36.4067 77.8716 36.3 77.3516 36.3C76.8449 36.3 76.4116 36.4067 76.0516 36.62C75.6916 36.8333 75.4182 37.12 75.2316 37.48C75.0582 37.8267 74.9716 38.22 74.9716 38.66V43.78C74.9716 44.1267 74.8582 44.42 74.6316 44.66C74.4049 44.8867 74.1182 45 73.7716 45C73.4249 45 73.1382 44.8867 72.9116 44.66C72.6849 44.42 72.5716 44.1267 72.5716 43.78V38.66C72.5716 38.22 72.5182 37.8267 72.4116 37.48C72.3049 37.12 72.1116 36.8333 71.8316 36.62C71.5516 36.4067 71.1516 36.3 70.6316 36.3C70.1249 36.3 69.6916 36.4067 69.3316 36.62C68.9716 36.8333 68.6982 37.12 68.5116 37.48C68.3382 37.8267 68.2516 38.22 68.2516 38.66V43.78C68.2516 44.1267 68.1382 44.42 67.9116 44.66C67.6849 44.8867 67.3982 45 67.0516 45C66.7049 45 66.4182 44.8867 66.1916 44.66C65.9649 44.42 65.8516 44.1267 65.8516 43.78V35.52C65.8516 35.1733 65.9649 34.8867 66.1916 34.66C66.4182 34.42 66.7049 34.3 67.0516 34.3C67.3982 34.3 67.6849 34.42 67.9116 34.66C68.1382 34.8867 68.2516 35.1733 68.2516 35.52V36.38L67.9516 36.32C68.0716 36.0933 68.2382 35.8533 68.4516 35.6C68.6649 35.3333 68.9249 35.0867 69.2316 34.86C69.5382 34.6333 69.8782 34.4533 70.2516 34.32C70.6249 34.1733 71.0316 34.1 71.4716 34.1ZM89.9291 45.2C88.7957 45.2 87.8091 44.9667 86.9691 44.5C86.1424 44.02 85.5024 43.3733 85.0491 42.56C84.6091 41.7467 84.3891 40.8267 84.3891 39.8C84.3891 38.6 84.6291 37.58 85.1091 36.74C85.6024 35.8867 86.2424 35.2333 87.0291 34.78C87.8157 34.3267 88.6491 34.1 89.5291 34.1C90.2091 34.1 90.8491 34.24 91.4491 34.52C92.0624 34.8 92.6024 35.1867 93.0691 35.68C93.5357 36.16 93.9024 36.72 94.1691 37.36C94.4491 38 94.5891 38.68 94.5891 39.4C94.5757 39.72 94.4491 39.98 94.2091 40.18C93.9691 40.38 93.6891 40.48 93.3691 40.48H85.7291L85.1291 38.48H92.4691L92.0291 38.88V38.34C92.0024 37.9533 91.8624 37.6067 91.6091 37.3C91.3691 36.9933 91.0624 36.7533 90.6891 36.58C90.3291 36.3933 89.9424 36.3 89.5291 36.3C89.1291 36.3 88.7557 36.3533 88.4091 36.46C88.0624 36.5667 87.7624 36.7467 87.5091 37C87.2557 37.2533 87.0557 37.5933 86.9091 38.02C86.7624 38.4467 86.6891 38.9867 86.6891 39.64C86.6891 40.36 86.8357 40.9733 87.1291 41.48C87.4357 41.9733 87.8224 42.3533 88.2891 42.62C88.7691 42.8733 89.2757 43 89.8091 43C90.3024 43 90.6957 42.96 90.9891 42.88C91.2824 42.8 91.5157 42.7067 91.6891 42.6C91.8757 42.48 92.0424 42.38 92.1891 42.3C92.4291 42.18 92.6557 42.12 92.8691 42.12C93.1624 42.12 93.4024 42.22 93.5891 42.42C93.7891 42.62 93.8891 42.8533 93.8891 43.12C93.8891 43.48 93.7024 43.8067 93.3291 44.1C92.9824 44.3933 92.4957 44.6533 91.8691 44.88C91.2424 45.0933 90.5957 45.2 89.9291 45.2ZM99.5459 43.78C99.5459 44.1267 99.4326 44.42 99.2059 44.66C98.9793 44.8867 98.6926 45 98.3459 45C97.9993 45 97.7126 44.8867 97.4859 44.66C97.2593 44.42 97.1459 44.1267 97.1459 43.78V35.52C97.1459 35.1733 97.2593 34.8867 97.4859 34.66C97.7126 34.42 97.9993 34.3 98.3459 34.3C98.6926 34.3 98.9793 34.42 99.2059 34.66C99.4326 34.8867 99.5459 35.1733 99.5459 35.52V43.78ZM98.3259 33C97.8726 33 97.5526 32.9267 97.3659 32.78C97.1793 32.6333 97.0859 32.3733 97.0859 32V31.62C97.0859 31.2333 97.1859 30.9733 97.3859 30.84C97.5993 30.6933 97.9193 30.62 98.3459 30.62C98.8126 30.62 99.1393 30.6933 99.3259 30.84C99.5126 30.9867 99.6059 31.2467 99.6059 31.62V32C99.6059 32.3867 99.5059 32.6533 99.3059 32.8C99.1059 32.9333 98.7793 33 98.3259 33ZM103.812 45C103.466 45 103.179 44.8867 102.953 44.66C102.726 44.42 102.613 44.1267 102.613 43.78V35.52C102.613 35.1733 102.726 34.8867 102.953 34.66C103.179 34.42 103.466 34.3 103.812 34.3C104.159 34.3 104.446 34.42 104.673 34.66C104.899 34.8867 105.013 35.1733 105.013 35.52V37.4L104.873 36.06C105.019 35.74 105.206 35.46 105.433 35.22C105.673 34.9667 105.939 34.76 106.233 34.6C106.526 34.4267 106.839 34.3 107.173 34.22C107.506 34.14 107.839 34.1 108.173 34.1C108.573 34.1 108.906 34.2133 109.173 34.44C109.453 34.6667 109.593 34.9333 109.593 35.24C109.593 35.68 109.479 36 109.253 36.2C109.026 36.3867 108.779 36.48 108.513 36.48C108.259 36.48 108.026 36.4333 107.813 36.34C107.613 36.2467 107.379 36.2 107.113 36.2C106.873 36.2 106.626 36.26 106.373 36.38C106.133 36.4867 105.906 36.66 105.693 36.9C105.493 37.14 105.326 37.44 105.193 37.8C105.073 38.1467 105.013 38.56 105.013 39.04V43.78C105.013 44.1267 104.899 44.42 104.673 44.66C104.446 44.8867 104.159 45 103.812 45ZM120.41 34.1C120.757 34.1 121.043 34.2133 121.27 34.44C121.497 34.6667 121.61 34.96 121.61 35.32V43.78C121.61 44.1267 121.497 44.42 121.27 44.66C121.043 44.8867 120.757 45 120.41 45C120.063 45 119.777 44.8867 119.55 44.66C119.323 44.42 119.21 44.1267 119.21 43.78V42.8L119.65 42.98C119.65 43.1533 119.557 43.3667 119.37 43.62C119.183 43.86 118.93 44.1 118.61 44.34C118.29 44.58 117.91 44.7867 117.47 44.96C117.043 45.12 116.577 45.2 116.07 45.2C115.15 45.2 114.317 44.9667 113.57 44.5C112.823 44.02 112.23 43.3667 111.79 42.54C111.363 41.7 111.15 40.74 111.15 39.66C111.15 38.5667 111.363 37.6067 111.79 36.78C112.23 35.94 112.817 35.2867 113.55 34.82C114.283 34.34 115.097 34.1 115.99 34.1C116.563 34.1 117.09 34.1867 117.57 34.36C118.05 34.5333 118.463 34.7533 118.81 35.02C119.17 35.2867 119.443 35.56 119.63 35.84C119.83 36.1067 119.93 36.3333 119.93 36.52L119.21 36.78V35.32C119.21 34.9733 119.323 34.6867 119.55 34.46C119.777 34.22 120.063 34.1 120.41 34.1ZM116.37 43C116.957 43 117.47 42.8533 117.91 42.56C118.35 42.2667 118.69 41.8667 118.93 41.36C119.183 40.8533 119.31 40.2867 119.31 39.66C119.31 39.02 119.183 38.4467 118.93 37.94C118.69 37.4333 118.35 37.0333 117.91 36.74C117.47 36.4467 116.957 36.3 116.37 36.3C115.797 36.3 115.29 36.4467 114.85 36.74C114.41 37.0333 114.063 37.4333 113.81 37.94C113.57 38.4467 113.45 39.02 113.45 39.66C113.45 40.2867 113.57 40.8533 113.81 41.36C114.063 41.8667 114.41 42.2667 114.85 42.56C115.29 42.8533 115.797 43 116.37 43ZM130.394 43.34C130.261 43.1533 130.201 42.9133 130.214 42.62C130.227 42.3267 130.401 42.0733 130.734 41.86C130.947 41.7267 131.174 41.6733 131.414 41.7C131.654 41.7133 131.887 41.8333 132.114 42.06C132.501 42.4467 132.907 42.7467 133.334 42.96C133.761 43.1733 134.294 43.28 134.934 43.28C135.134 43.2667 135.354 43.24 135.594 43.2C135.834 43.1467 136.041 43.04 136.214 42.88C136.401 42.7067 136.494 42.4467 136.494 42.1C136.494 41.8067 136.394 41.5733 136.194 41.4C135.994 41.2267 135.727 41.08 135.394 40.96C135.074 40.84 134.714 40.7267 134.314 40.62C133.901 40.5 133.474 40.3667 133.034 40.22C132.607 40.0733 132.214 39.8867 131.854 39.66C131.494 39.42 131.201 39.1067 130.974 38.72C130.747 38.3333 130.634 37.8467 130.634 37.26C130.634 36.5933 130.821 36.0267 131.194 35.56C131.567 35.0933 132.047 34.7333 132.634 34.48C133.234 34.2267 133.861 34.1 134.514 34.1C134.927 34.1 135.361 34.1533 135.814 34.26C136.267 34.3533 136.701 34.5133 137.114 34.74C137.527 34.9533 137.874 35.24 138.154 35.6C138.301 35.8 138.387 36.04 138.414 36.32C138.441 36.6 138.314 36.8533 138.034 37.08C137.834 37.24 137.601 37.3133 137.334 37.3C137.067 37.2733 136.847 37.18 136.674 37.02C136.447 36.7267 136.141 36.4933 135.754 36.32C135.381 36.1467 134.947 36.06 134.454 36.06C134.254 36.06 134.034 36.0867 133.794 36.14C133.567 36.18 133.367 36.28 133.194 36.44C133.021 36.5867 132.934 36.8267 132.934 37.16C132.934 37.4667 133.034 37.7133 133.234 37.9C133.434 38.0733 133.701 38.22 134.034 38.34C134.381 38.4467 134.747 38.5533 135.134 38.66C135.534 38.7667 135.941 38.8933 136.354 39.04C136.767 39.1867 137.147 39.38 137.494 39.62C137.841 39.86 138.121 40.1733 138.334 40.56C138.547 40.9333 138.654 41.4133 138.654 42C138.654 42.68 138.454 43.26 138.054 43.74C137.654 44.22 137.154 44.5867 136.554 44.84C135.954 45.08 135.341 45.2 134.714 45.2C133.927 45.2 133.141 45.0667 132.354 44.8C131.567 44.52 130.914 44.0333 130.394 43.34ZM146.303 45.2C145.169 45.2 144.183 44.9667 143.343 44.5C142.516 44.02 141.876 43.3733 141.423 42.56C140.983 41.7467 140.763 40.8267 140.763 39.8C140.763 38.6 141.003 37.58 141.483 36.74C141.976 35.8867 142.616 35.2333 143.403 34.78C144.189 34.3267 145.023 34.1 145.903 34.1C146.583 34.1 147.223 34.24 147.823 34.52C148.436 34.8 148.976 35.1867 149.443 35.68C149.909 36.16 150.276 36.72 150.543 37.36C150.823 38 150.963 38.68 150.963 39.4C150.949 39.72 150.823 39.98 150.583 40.18C150.343 40.38 150.063 40.48 149.743 40.48H142.103L141.503 38.48H148.843L148.403 38.88V38.34C148.376 37.9533 148.236 37.6067 147.983 37.3C147.743 36.9933 147.436 36.7533 147.063 36.58C146.703 36.3933 146.316 36.3 145.903 36.3C145.503 36.3 145.129 36.3533 144.783 36.46C144.436 36.5667 144.136 36.7467 143.883 37C143.629 37.2533 143.429 37.5933 143.283 38.02C143.136 38.4467 143.063 38.9867 143.063 39.64C143.063 40.36 143.209 40.9733 143.503 41.48C143.809 41.9733 144.196 42.3533 144.663 42.62C145.143 42.8733 145.649 43 146.183 43C146.676 43 147.069 42.96 147.363 42.88C147.656 42.8 147.889 42.7067 148.063 42.6C148.249 42.48 148.416 42.38 148.563 42.3C148.803 42.18 149.029 42.12 149.243 42.12C149.536 42.12 149.776 42.22 149.963 42.42C150.163 42.62 150.263 42.8533 150.263 43.12C150.263 43.48 150.076 43.8067 149.703 44.1C149.356 44.3933 148.869 44.6533 148.243 44.88C147.616 45.0933 146.969 45.2 146.303 45.2ZM153.039 43.34C152.906 43.1533 152.846 42.9133 152.859 42.62C152.873 42.3267 153.046 42.0733 153.379 41.86C153.593 41.7267 153.819 41.6733 154.059 41.7C154.299 41.7133 154.533 41.8333 154.759 42.06C155.146 42.4467 155.553 42.7467 155.979 42.96C156.406 43.1733 156.939 43.28 157.579 43.28C157.779 43.2667 157.999 43.24 158.239 43.2C158.479 43.1467 158.686 43.04 158.859 42.88C159.046 42.7067 159.139 42.4467 159.139 42.1C159.139 41.8067 159.039 41.5733 158.839 41.4C158.639 41.2267 158.373 41.08 158.039 40.96C157.719 40.84 157.359 40.7267 156.959 40.62C156.546 40.5 156.119 40.3667 155.679 40.22C155.253 40.0733 154.859 39.8867 154.499 39.66C154.139 39.42 153.846 39.1067 153.619 38.72C153.393 38.3333 153.279 37.8467 153.279 37.26C153.279 36.5933 153.466 36.0267 153.839 35.56C154.213 35.0933 154.693 34.7333 155.279 34.48C155.879 34.2267 156.506 34.1 157.159 34.1C157.573 34.1 158.006 34.1533 158.459 34.26C158.913 34.3533 159.346 34.5133 159.759 34.74C160.173 34.9533 160.519 35.24 160.799 35.6C160.946 35.8 161.033 36.04 161.059 36.32C161.086 36.6 160.959 36.8533 160.679 37.08C160.479 37.24 160.246 37.3133 159.979 37.3C159.713 37.2733 159.493 37.18 159.319 37.02C159.093 36.7267 158.786 36.4933 158.399 36.32C158.026 36.1467 157.593 36.06 157.099 36.06C156.899 36.06 156.679 36.0867 156.439 36.14C156.213 36.18 156.013 36.28 155.839 36.44C155.666 36.5867 155.579 36.8267 155.579 37.16C155.579 37.4667 155.679 37.7133 155.879 37.9C156.079 38.0733 156.346 38.22 156.679 38.34C157.026 38.4467 157.393 38.5533 157.779 38.66C158.179 38.7667 158.586 38.8933 158.999 39.04C159.413 39.1867 159.793 39.38 160.139 39.62C160.486 39.86 160.766 40.1733 160.979 40.56C161.193 40.9333 161.299 41.4133 161.299 42C161.299 42.68 161.099 43.26 160.699 43.74C160.299 44.22 159.799 44.5867 159.199 44.84C158.599 45.08 157.986 45.2 157.359 45.2C156.573 45.2 155.786 45.0667 154.999 44.8C154.213 44.52 153.559 44.0333 153.039 43.34ZM163.288 43.34C163.154 43.1533 163.094 42.9133 163.108 42.62C163.121 42.3267 163.294 42.0733 163.628 41.86C163.841 41.7267 164.068 41.6733 164.308 41.7C164.548 41.7133 164.781 41.8333 165.008 42.06C165.394 42.4467 165.801 42.7467 166.228 42.96C166.654 43.1733 167.188 43.28 167.828 43.28C168.028 43.2667 168.248 43.24 168.488 43.2C168.728 43.1467 168.934 43.04 169.108 42.88C169.294 42.7067 169.388 42.4467 169.388 42.1C169.388 41.8067 169.288 41.5733 169.088 41.4C168.888 41.2267 168.621 41.08 168.288 40.96C167.968 40.84 167.608 40.7267 167.208 40.62C166.794 40.5 166.368 40.3667 165.928 40.22C165.501 40.0733 165.108 39.8867 164.748 39.66C164.388 39.42 164.094 39.1067 163.868 38.72C163.641 38.3333 163.528 37.8467 163.528 37.26C163.528 36.5933 163.714 36.0267 164.088 35.56C164.461 35.0933 164.941 34.7333 165.528 34.48C166.128 34.2267 166.754 34.1 167.408 34.1C167.821 34.1 168.254 34.1533 168.708 34.26C169.161 34.3533 169.594 34.5133 170.008 34.74C170.421 34.9533 170.768 35.24 171.048 35.6C171.194 35.8 171.281 36.04 171.308 36.32C171.334 36.6 171.208 36.8533 170.928 37.08C170.728 37.24 170.494 37.3133 170.228 37.3C169.961 37.2733 169.741 37.18 169.568 37.02C169.341 36.7267 169.034 36.4933 168.648 36.32C168.274 36.1467 167.841 36.06 167.348 36.06C167.148 36.06 166.928 36.0867 166.688 36.14C166.461 36.18 166.261 36.28 166.088 36.44C165.914 36.5867 165.828 36.8267 165.828 37.16C165.828 37.4667 165.928 37.7133 166.128 37.9C166.328 38.0733 166.594 38.22 166.928 38.34C167.274 38.4467 167.641 38.5533 168.028 38.66C168.428 38.7667 168.834 38.8933 169.248 39.04C169.661 39.1867 170.041 39.38 170.388 39.62C170.734 39.86 171.014 40.1733 171.228 40.56C171.441 40.9333 171.548 41.4133 171.548 42C171.548 42.68 171.348 43.26 170.948 43.74C170.548 44.22 170.048 44.5867 169.448 44.84C168.848 45.08 168.234 45.2 167.608 45.2C166.821 45.2 166.034 45.0667 165.248 44.8C164.461 44.52 163.808 44.0333 163.288 43.34ZM183.073 34.1C183.419 34.1 183.706 34.2133 183.933 34.44C184.159 34.6667 184.273 34.96 184.273 35.32V43.78C184.273 44.1267 184.159 44.42 183.933 44.66C183.706 44.8867 183.419 45 183.073 45C182.726 45 182.439 44.8867 182.213 44.66C181.986 44.42 181.873 44.1267 181.873 43.78V42.8L182.313 42.98C182.313 43.1533 182.219 43.3667 182.033 43.62C181.846 43.86 181.593 44.1 181.273 44.34C180.953 44.58 180.573 44.7867 180.133 44.96C179.706 45.12 179.239 45.2 178.733 45.2C177.813 45.2 176.979 44.9667 176.233 44.5C175.486 44.02 174.893 43.3667 174.453 42.54C174.026 41.7 173.813 40.74 173.813 39.66C173.813 38.5667 174.026 37.6067 174.453 36.78C174.893 35.94 175.479 35.2867 176.213 34.82C176.946 34.34 177.759 34.1 178.653 34.1C179.226 34.1 179.753 34.1867 180.233 34.36C180.713 34.5333 181.126 34.7533 181.473 35.02C181.833 35.2867 182.106 35.56 182.293 35.84C182.493 36.1067 182.593 36.3333 182.593 36.52L181.873 36.78V35.32C181.873 34.9733 181.986 34.6867 182.213 34.46C182.439 34.22 182.726 34.1 183.073 34.1ZM179.033 43C179.619 43 180.133 42.8533 180.573 42.56C181.013 42.2667 181.353 41.8667 181.593 41.36C181.846 40.8533 181.973 40.2867 181.973 39.66C181.973 39.02 181.846 38.4467 181.593 37.94C181.353 37.4333 181.013 37.0333 180.573 36.74C180.133 36.4467 179.619 36.3 179.033 36.3C178.459 36.3 177.953 36.4467 177.513 36.74C177.073 37.0333 176.726 37.4333 176.473 37.94C176.233 38.4467 176.113 39.02 176.113 39.66C176.113 40.2867 176.233 40.8533 176.473 41.36C176.726 41.8667 177.073 42.2667 177.513 42.56C177.953 42.8533 178.459 43 179.033 43ZM176.473 33.2C176.179 33.2 175.919 33.08 175.693 32.84C175.479 32.6 175.373 32.2667 175.373 31.84C175.373 31.4133 175.573 31.0133 175.973 30.64C176.373 30.2667 176.993 30.08 177.833 30.08C178.179 30.08 178.493 30.1467 178.773 30.28C179.053 30.4133 179.306 30.5667 179.533 30.74C179.773 30.9 179.993 31.0467 180.193 31.18C180.406 31.3133 180.599 31.38 180.773 31.38C180.919 31.38 181.033 31.3467 181.113 31.28C181.193 31.2 181.213 31.0933 181.173 30.96C181.079 30.6533 181.113 30.4133 181.273 30.24C181.433 30.0667 181.633 29.98 181.873 29.98C182.179 29.98 182.439 30.1 182.653 30.34C182.866 30.5667 182.973 30.8867 182.973 31.3C182.973 31.5267 182.899 31.78 182.753 32.06C182.606 32.34 182.366 32.5867 182.033 32.8C181.699 33 181.253 33.1 180.693 33.1C180.413 33.1 180.126 33.0333 179.833 32.9C179.553 32.7667 179.273 32.62 178.993 32.46C178.713 32.2867 178.453 32.1333 178.213 32C177.973 31.8667 177.759 31.8 177.573 31.8C177.439 31.8 177.326 31.84 177.233 31.92C177.153 31.9867 177.133 32.0867 177.173 32.22C177.266 32.5133 177.233 32.7533 177.073 32.94C176.913 33.1133 176.713 33.2 176.473 33.2ZM197.851 39.66C197.851 40.7533 197.604 41.72 197.111 42.56C196.631 43.3867 195.978 44.0333 195.151 44.5C194.338 44.9667 193.424 45.2 192.411 45.2C191.398 45.2 190.478 44.9667 189.651 44.5C188.838 44.0333 188.184 43.3867 187.691 42.56C187.211 41.72 186.971 40.7533 186.971 39.66C186.971 38.5667 187.211 37.6067 187.691 36.78C188.184 35.94 188.838 35.2867 189.651 34.82C190.478 34.34 191.398 34.1 192.411 34.1C193.424 34.1 194.338 34.34 195.151 34.82C195.978 35.2867 196.631 35.94 197.111 36.78C197.604 37.6067 197.851 38.5667 197.851 39.66ZM195.451 39.66C195.451 38.98 195.311 38.3933 195.031 37.9C194.764 37.3933 194.398 37 193.931 36.72C193.478 36.44 192.971 36.3 192.411 36.3C191.851 36.3 191.338 36.44 190.871 36.72C190.418 37 190.051 37.3933 189.771 37.9C189.504 38.3933 189.371 38.98 189.371 39.66C189.371 40.3267 189.504 40.9133 189.771 41.42C190.051 41.9133 190.418 42.3 190.871 42.58C191.338 42.86 191.851 43 192.411 43C192.971 43 193.478 42.86 193.931 42.58C194.398 42.3 194.764 41.9133 195.031 41.42C195.311 40.9133 195.451 40.3267 195.451 39.66ZM211.197 34.1C211.757 34.1 212.27 34.1867 212.737 34.36C213.204 34.5333 213.604 34.7533 213.937 35.02C214.284 35.2867 214.55 35.56 214.737 35.84C214.937 36.1067 215.037 36.3333 215.037 36.52L214.517 36.78V35.32C214.517 34.9733 214.63 34.6867 214.857 34.46C215.084 34.22 215.37 34.1 215.717 34.1C216.064 34.1 216.35 34.2133 216.577 34.44C216.804 34.6667 216.917 34.96 216.917 35.32V44.22C216.917 45.38 216.664 46.3067 216.157 47C215.664 47.7067 215.01 48.2133 214.197 48.52C213.384 48.84 212.51 49 211.577 49C211.31 49 210.964 48.9667 210.537 48.9C210.11 48.8333 209.704 48.7533 209.317 48.66C208.93 48.5667 208.637 48.48 208.437 48.4C208.037 48.2267 207.757 48.0067 207.597 47.74C207.45 47.4867 207.424 47.2133 207.517 46.92C207.637 46.5333 207.83 46.2667 208.097 46.12C208.364 45.9867 208.644 45.9733 208.937 46.08C209.07 46.12 209.29 46.2 209.597 46.32C209.904 46.44 210.237 46.5467 210.597 46.64C210.97 46.7467 211.297 46.8 211.577 46.8C212.577 46.8 213.317 46.6 213.797 46.2C214.277 45.8 214.517 45.2467 214.517 44.54V42.8L214.757 42.98C214.757 43.1533 214.664 43.3667 214.477 43.62C214.304 43.86 214.057 44.1 213.737 44.34C213.43 44.58 213.064 44.7867 212.637 44.96C212.21 45.12 211.757 45.2 211.277 45.2C210.33 45.2 209.477 44.9667 208.717 44.5C207.957 44.02 207.357 43.3667 206.917 42.54C206.477 41.7 206.257 40.74 206.257 39.66C206.257 38.5667 206.477 37.6067 206.917 36.78C207.357 35.94 207.95 35.2867 208.697 34.82C209.444 34.34 210.277 34.1 211.197 34.1ZM211.577 36.3C210.977 36.3 210.45 36.4467 209.997 36.74C209.544 37.0333 209.19 37.4333 208.937 37.94C208.684 38.4467 208.557 39.02 208.557 39.66C208.557 40.2867 208.684 40.8533 208.937 41.36C209.19 41.8667 209.544 42.2667 209.997 42.56C210.45 42.8533 210.977 43 211.577 43C212.19 43 212.724 42.8533 213.177 42.56C213.63 42.2667 213.984 41.8667 214.237 41.36C214.49 40.8533 214.617 40.2867 214.617 39.66C214.617 39.02 214.49 38.4467 214.237 37.94C213.984 37.4333 213.63 37.0333 213.177 36.74C212.724 36.4467 212.19 36.3 211.577 36.3ZM221.311 45C220.964 45 220.678 44.8867 220.451 44.66C220.224 44.42 220.111 44.1267 220.111 43.78V35.52C220.111 35.1733 220.224 34.8867 220.451 34.66C220.678 34.42 220.964 34.3 221.311 34.3C221.658 34.3 221.944 34.42 222.171 34.66C222.398 34.8867 222.511 35.1733 222.511 35.52V37.4L222.371 36.06C222.518 35.74 222.704 35.46 222.931 35.22C223.171 34.9667 223.438 34.76 223.731 34.6C224.024 34.4267 224.338 34.3 224.671 34.22C225.004 34.14 225.338 34.1 225.671 34.1C226.071 34.1 226.404 34.2133 226.671 34.44C226.951 34.6667 227.091 34.9333 227.091 35.24C227.091 35.68 226.978 36 226.751 36.2C226.524 36.3867 226.278 36.48 226.011 36.48C225.758 36.48 225.524 36.4333 225.311 36.34C225.111 36.2467 224.878 36.2 224.611 36.2C224.371 36.2 224.124 36.26 223.871 36.38C223.631 36.4867 223.404 36.66 223.191 36.9C222.991 37.14 222.824 37.44 222.691 37.8C222.571 38.1467 222.511 38.56 222.511 39.04V43.78C222.511 44.1267 222.398 44.42 222.171 44.66C221.944 44.8867 221.658 45 221.311 45ZM237.908 34.1C238.255 34.1 238.542 34.2133 238.768 34.44C238.995 34.6667 239.108 34.96 239.108 35.32V43.78C239.108 44.1267 238.995 44.42 238.768 44.66C238.542 44.8867 238.255 45 237.908 45C237.562 45 237.275 44.8867 237.048 44.66C236.822 44.42 236.708 44.1267 236.708 43.78V42.8L237.148 42.98C237.148 43.1533 237.055 43.3667 236.868 43.62C236.682 43.86 236.428 44.1 236.108 44.34C235.788 44.58 235.408 44.7867 234.968 44.96C234.542 45.12 234.075 45.2 233.568 45.2C232.648 45.2 231.815 44.9667 231.068 44.5C230.322 44.02 229.728 43.3667 229.288 42.54C228.862 41.7 228.648 40.74 228.648 39.66C228.648 38.5667 228.862 37.6067 229.288 36.78C229.728 35.94 230.315 35.2867 231.048 34.82C231.782 34.34 232.595 34.1 233.488 34.1C234.062 34.1 234.588 34.1867 235.068 34.36C235.548 34.5333 235.962 34.7533 236.308 35.02C236.668 35.2867 236.942 35.56 237.128 35.84C237.328 36.1067 237.428 36.3333 237.428 36.52L236.708 36.78V35.32C236.708 34.9733 236.822 34.6867 237.048 34.46C237.275 34.22 237.562 34.1 237.908 34.1ZM233.868 43C234.455 43 234.968 42.8533 235.408 42.56C235.848 42.2667 236.188 41.8667 236.428 41.36C236.682 40.8533 236.808 40.2867 236.808 39.66C236.808 39.02 236.682 38.4467 236.428 37.94C236.188 37.4333 235.848 37.0333 235.408 36.74C234.968 36.4467 234.455 36.3 233.868 36.3C233.295 36.3 232.788 36.4467 232.348 36.74C231.908 37.0333 231.562 37.4333 231.308 37.94C231.068 38.4467 230.948 39.02 230.948 39.66C230.948 40.2867 231.068 40.8533 231.308 41.36C231.562 41.8667 231.908 42.2667 232.348 42.56C232.788 42.8533 233.295 43 233.868 43ZM234.088 33.62C233.982 33.62 233.842 33.5667 233.668 33.46C233.508 33.34 233.435 33.1733 233.448 32.96C233.448 32.84 233.488 32.7133 233.568 32.58L234.728 30.54C234.848 30.3267 235.002 30.14 235.188 29.98C235.375 29.82 235.588 29.74 235.828 29.74C236.202 29.74 236.475 29.84 236.648 30.04C236.822 30.2267 236.902 30.46 236.888 30.74C236.875 30.8733 236.835 31.0133 236.768 31.16C236.715 31.3067 236.628 31.4533 236.508 31.6L234.988 33.28C234.855 33.4267 234.708 33.52 234.548 33.56C234.388 33.6 234.235 33.62 234.088 33.62ZM242.427 34.5H247.167C247.487 34.5 247.754 34.6067 247.967 34.82C248.18 35.0333 248.287 35.3 248.287 35.62C248.287 35.9267 248.18 36.1867 247.967 36.4C247.754 36.6 247.487 36.7 247.167 36.7H242.427C242.107 36.7 241.84 36.5933 241.627 36.38C241.414 36.1667 241.307 35.9 241.307 35.58C241.307 35.2733 241.414 35.02 241.627 34.82C241.84 34.6067 242.107 34.5 242.427 34.5ZM244.567 32C244.914 32 245.194 32.12 245.407 32.36C245.634 32.5867 245.747 32.8733 245.747 33.22V42.12C245.747 42.3067 245.78 42.46 245.847 42.58C245.927 42.7 246.027 42.7867 246.147 42.84C246.28 42.8933 246.42 42.92 246.567 42.92C246.727 42.92 246.874 42.8933 247.007 42.84C247.14 42.7733 247.294 42.74 247.467 42.74C247.654 42.74 247.82 42.8267 247.967 43C248.127 43.1733 248.207 43.4133 248.207 43.72C248.207 44.0933 248 44.4 247.587 44.64C247.187 44.88 246.754 45 246.287 45C246.007 45 245.694 44.98 245.347 44.94C245.014 44.8867 244.694 44.7733 244.387 44.6C244.094 44.4133 243.847 44.1333 243.647 43.76C243.447 43.3867 243.347 42.8733 243.347 42.22V33.22C243.347 32.8733 243.46 32.5867 243.687 32.36C243.927 32.12 244.22 32 244.567 32ZM253.351 43.78C253.351 44.1267 253.237 44.42 253.011 44.66C252.784 44.8867 252.497 45 252.151 45C251.804 45 251.517 44.8867 251.291 44.66C251.064 44.42 250.951 44.1267 250.951 43.78V35.52C250.951 35.1733 251.064 34.8867 251.291 34.66C251.517 34.42 251.804 34.3 252.151 34.3C252.497 34.3 252.784 34.42 253.011 34.66C253.237 34.8867 253.351 35.1733 253.351 35.52V43.78ZM252.131 33C251.677 33 251.357 32.9267 251.171 32.78C250.984 32.6333 250.891 32.3733 250.891 32V31.62C250.891 31.2333 250.991 30.9733 251.191 30.84C251.404 30.6933 251.724 30.62 252.151 30.62C252.617 30.62 252.944 30.6933 253.131 30.84C253.317 30.9867 253.411 31.2467 253.411 31.62V32C253.411 32.3867 253.311 32.6533 253.111 32.8C252.911 32.9333 252.584 33 252.131 33ZM255.797 43.34C255.664 43.1533 255.604 42.9133 255.617 42.62C255.631 42.3267 255.804 42.0733 256.137 41.86C256.351 41.7267 256.577 41.6733 256.817 41.7C257.057 41.7133 257.291 41.8333 257.517 42.06C257.904 42.4467 258.311 42.7467 258.737 42.96C259.164 43.1733 259.697 43.28 260.337 43.28C260.537 43.2667 260.757 43.24 260.997 43.2C261.237 43.1467 261.444 43.04 261.617 42.88C261.804 42.7067 261.897 42.4467 261.897 42.1C261.897 41.8067 261.797 41.5733 261.597 41.4C261.397 41.2267 261.131 41.08 260.797 40.96C260.477 40.84 260.117 40.7267 259.717 40.62C259.304 40.5 258.877 40.3667 258.437 40.22C258.011 40.0733 257.617 39.8867 257.257 39.66C256.897 39.42 256.604 39.1067 256.377 38.72C256.151 38.3333 256.037 37.8467 256.037 37.26C256.037 36.5933 256.224 36.0267 256.597 35.56C256.971 35.0933 257.451 34.7333 258.037 34.48C258.637 34.2267 259.264 34.1 259.917 34.1C260.331 34.1 260.764 34.1533 261.217 34.26C261.671 34.3533 262.104 34.5133 262.517 34.74C262.931 34.9533 263.277 35.24 263.557 35.6C263.704 35.8 263.791 36.04 263.817 36.32C263.844 36.6 263.717 36.8533 263.437 37.08C263.237 37.24 263.004 37.3133 262.737 37.3C262.471 37.2733 262.251 37.18 262.077 37.02C261.851 36.7267 261.544 36.4933 261.157 36.32C260.784 36.1467 260.351 36.06 259.857 36.06C259.657 36.06 259.437 36.0867 259.197 36.14C258.971 36.18 258.771 36.28 258.597 36.44C258.424 36.5867 258.337 36.8267 258.337 37.16C258.337 37.4667 258.437 37.7133 258.637 37.9C258.837 38.0733 259.104 38.22 259.437 38.34C259.784 38.4467 260.151 38.5533 260.537 38.66C260.937 38.7667 261.344 38.8933 261.757 39.04C262.171 39.1867 262.551 39.38 262.897 39.62C263.244 39.86 263.524 40.1733 263.737 40.56C263.951 40.9333 264.057 41.4133 264.057 42C264.057 42.68 263.857 43.26 263.457 43.74C263.057 44.22 262.557 44.5867 261.957 44.84C261.357 45.08 260.744 45.2 260.117 45.2C259.331 45.2 258.544 45.0667 257.757 44.8C256.971 44.52 256.317 44.0333 255.797 43.34ZM268.046 40.58C267.592 40.58 267.346 40.3267 267.306 39.82L266.726 32.46C266.699 32.0467 266.806 31.7 267.046 31.42C267.299 31.14 267.626 31 268.026 31C268.426 31 268.752 31.14 269.006 31.42C269.259 31.7 269.366 32.0467 269.326 32.46L268.766 39.82C268.726 40.3267 268.486 40.58 268.046 40.58ZM267.906 45C267.519 45 267.219 44.9 267.006 44.7C266.806 44.4867 266.706 44.1867 266.706 43.8V43.46C266.706 43.0733 266.806 42.78 267.006 42.58C267.219 42.3667 267.519 42.26 267.906 42.26H268.166C268.552 42.26 268.846 42.3667 269.046 42.58C269.259 42.78 269.366 43.0733 269.366 43.46V43.8C269.366 44.1867 269.259 44.4867 269.046 44.7C268.846 44.9 268.552 45 268.166 45H267.906Z" fill="#E3ECEA"/>
</svg>
