<svg width="144" height="64" viewBox="0 0 144 64" fill="none" xmlns="http://www.w3.org/2000/svg">
<path d="M35.7069 52.9134C36.3634 52.7843 37.0442 52.9237 37.597 53.3004C40.5604 55.3197 44.1386 56.5 48 56.5C49.7018 56.5 51.3462 56.2708 52.9058 55.8432C53.7485 55.6121 54.6508 55.8378 55.2855 56.4385C58.6027 59.5782 63.0742 61.5 68 61.5C71.5571 61.5 74.8725 60.4986 77.6886 58.7636C78.4927 58.2682 79.5073 58.2682 80.3113 58.7636C83.1275 60.4986 86.443 61.5 90 61.5C93.8613 61.5 97.4394 60.3198 100.403 58.3007C101.184 57.7683 102.199 57.7222 103.025 58.1816C105.681 59.6581 108.738 60.5 112 60.5C115.938 60.5 119.582 59.2723 122.579 57.1787C123.415 56.5954 124.52 56.5771 125.374 57.1324C126.704 57.9973 128.29 58.5 130 58.5C134.694 58.5 138.5 54.6944 138.5 50C138.5 48.9646 138.316 47.9779 137.981 47.067C137.627 46.1045 137.897 45.0236 138.662 44.3402C140.407 42.7801 141.5 40.5193 141.5 38C141.5 34.4536 139.327 31.4088 136.231 30.1349C135.052 29.65 134.427 28.3559 134.78 27.1311C135.248 25.5048 135.5 23.7839 135.5 22C135.5 11.7827 127.217 3.5 117 3.5C110.432 3.5 104.661 6.92105 101.375 12.0904C100.918 12.8083 100.128 13.2449 99.2775 13.2491C98.4268 13.2534 97.6323 12.8247 97.1687 12.1114C94.5792 8.12654 90.0956 5.5 85 5.5C82.5372 5.5 80.2248 6.11192 78.1992 7.18996C77.2283 7.70666 76.0338 7.52817 75.2564 6.75023C72.6294 4.12157 69.0064 2.5 65 2.5C59.992 2.5 55.5757 5.03663 52.9668 8.90668C52.2177 10.0179 50.7256 10.3408 49.584 9.6387C47.3793 8.28262 44.7849 7.5 42 7.5C39.0966 7.5 36.3996 8.35069 34.1355 9.81566C33.5358 10.2036 32.7989 10.3166 32.1106 10.1261C31.4223 9.93565 30.8483 9.45987 30.5334 8.81882C28.9836 5.66331 25.7421 3.5 22 3.5C16.7533 3.5 12.5 7.7533 12.5 13C12.5 13.0756 12.5009 13.1508 12.5026 13.2257L35.7069 52.9134ZM35.7069 52.9134C35.0505 53.0424 34.4732 53.4292 34.1041 53.9872M35.7069 52.9134L34.1041 53.9872M34.1041 53.9872C31.5049 57.9168 27.0536 60.5 22 60.5C13.9919 60.5 7.5 54.0081 7.5 46C7.5 44.6954 7.67168 43.4347 7.99229 42.2375C8.23452 41.3331 7.95102 40.3691 7.25773 39.7397M34.1041 53.9872L7.25773 39.7397M7.25773 39.7397C4.33166 37.0835 2.5 33.2574 2.5 29C2.5 23.1208 5.99921 18.0535 11.0392 15.7773C11.9686 15.3575 12.5499 14.4153 12.5081 13.3964M7.25773 39.7397L12.5081 13.3964M12.5081 13.3964C12.5058 13.3402 12.504 13.2834 12.5026 13.226L12.5081 13.3964Z" stroke="#0E315F" stroke-width="5" stroke-linejoin="round"/>
</svg>
