<svg width="150" height="67" viewBox="0 0 150 67" fill="none" xmlns="http://www.w3.org/2000/svg">
<path fill-rule="evenodd" clip-rule="evenodd" d="M76.1875 1.63804C65.3695 -2.26719 52.9883 1.04836 45.7386 9.05368C45.0005 8.8119 44.2177 8.65492 43.4047 8.59575C42.0208 7.76651 40.5182 7.05111 38.9054 6.46889C25.8591 1.75928 10.5396 7.55138 4.68832 19.4059C2.02452 24.8028 1.7823 30.5257 3.53986 35.6036C2.93435 36.4597 2.39248 37.3651 1.92276 38.3168C-3.02589 48.3426 1.90714 59.6991 12.941 63.6823C20.5432 66.4267 29.0581 64.9547 35.2377 60.4945C35.7483 60.6043 36.275 60.6793 36.8144 60.7161C38.8657 62.8008 41.4801 64.4976 44.5743 65.6146C53.995 69.0154 64.817 65.9417 70.8601 58.7301C72.6215 60.5496 75.2827 61.7086 78.2605 61.7086C80.2439 61.7086 82.0868 61.1944 83.617 60.3133C85.2095 61.3504 86.9723 62.2317 88.8911 62.9244C97.3649 65.9834 106.798 64.612 113.972 60.0268C115.498 61.1144 117.227 62.0259 119.138 62.7161C130.172 66.6992 143.129 61.8006 148.077 51.7748C152.134 43.5548 149.549 34.4405 142.406 29.2285C142.964 28.4426 143.464 27.6105 143.896 26.7354C148.382 17.6467 143.91 7.35174 133.907 3.74095C126.488 1.06266 118.11 2.8142 112.447 7.60661C112.414 7.60581 112.382 7.60516 112.349 7.60463C112.309 7.60401 112.269 7.60357 112.229 7.6033L112.153 7.60307C111.607 7.60307 111.072 7.63975 110.551 7.71019C108.776 6.25064 106.678 5.04714 104.296 4.18727C97.4652 1.72142 89.8976 2.65955 83.9493 6.11082C81.7745 4.24639 79.1694 2.71448 76.1875 1.63804Z" fill="#D5941D"/>
</svg>
