<svg width="53" height="41" viewBox="0 0 53 41" fill="none" xmlns="http://www.w3.org/2000/svg">
<mask id="path-1-inside-1_390_259" fill="white">
<path fill-rule="evenodd" clip-rule="evenodd" d="M6.4153 13.3501C6.67032 13.8929 6.99812 14.3965 7.38653 14.8488C7.38404 14.9084 7.38241 14.9682 7.38165 15.0282L7.36865 15.0248C7.31942 15.0118 7.26993 14.9995 7.22019 14.9878C6.78555 14.8854 6.33197 14.8304 5.8655 14.8287L5.86507 14.8287L5.84341 14.8286C5.72943 14.8286 5.6162 14.8318 5.50383 14.8381C2.43464 15.0097 0 17.4918 0 20.5287C0 20.6026 0.00144196 20.6761 0.00429916 20.7493C0.0471516 21.8475 0.40848 22.866 1.00077 23.7197C1.29171 24.139 1.63837 24.5185 2.03039 24.848C1.59107 25.1153 1.20471 25.4577 0.890194 25.8567C0.331919 26.565 0 27.4519 0 28.4144C0 30.734 1.92772 32.6144 4.30567 32.6144C4.97719 32.6144 5.61281 32.4645 6.17924 32.197C6.25808 32.1598 6.33557 32.1203 6.41164 32.0786L6.42112 32.0966C6.46868 32.1866 6.51871 32.275 6.57111 32.3617C7.47158 33.8518 9.07187 34.843 10.896 34.843C12.1544 34.843 13.3064 34.3712 14.1954 33.5894C16.7795 37.9675 21.586 40.91 27.0886 40.91C33.1467 40.91 38.361 37.3433 40.6948 32.2209C41.7664 33.4329 43.3522 34.2002 45.1217 34.2002C48.3489 34.2002 50.9651 31.6482 50.9651 28.5001C50.9651 27.8532 50.8546 27.2314 50.651 26.6518C51.8405 25.6923 52.5999 24.2327 52.5999 22.598C52.5999 19.8973 50.5273 17.6745 47.8667 17.3955C47.8819 17.1918 47.8896 16.9861 47.8896 16.7786C47.8896 12.1513 44.044 8.40004 39.3002 8.40004C37.9303 8.40004 36.6352 8.71289 35.4861 9.26935C34.8645 9.57033 34.2856 9.94259 33.7606 10.3752C33.921 9.73532 34.006 9.06665 34.006 8.37861L34.006 8.36378L34.006 8.36142C33.9965 3.74195 30.1545 0 25.4166 0C22.1893 0 19.3777 1.73626 17.9099 4.30345C17.6508 4.75671 17.4335 5.23588 17.2632 5.73597C16.8766 5.38282 16.4478 5.07315 15.9848 4.81496C14.9899 4.26003 13.8377 3.94287 12.6095 3.94287C8.84841 3.94287 5.79948 6.917 5.79948 10.5858C5.79948 11.5722 6.01989 12.5084 6.4153 13.3501ZM40.4358 25.0941C40.0768 25.5633 39.7901 26.0883 39.5918 26.6532C39.3886 27.2324 39.2783 27.8537 39.2783 28.5001C39.2783 28.8936 39.3191 29.2778 39.397 29.6489C39.4687 29.9909 39.5719 30.3218 39.7034 30.6385C37.8526 35.7513 32.9033 39.4099 27.0886 39.4099C21.9429 39.4099 17.4751 36.5449 15.2324 32.3425C15.4124 32.0418 15.564 31.721 15.6832 31.3841C15.8833 30.8189 15.9925 30.2084 15.9925 29.5716C15.9925 28.0676 15.3835 26.7107 14.4068 25.7503C14.467 25.4206 14.4987 25.0789 14.4987 24.7287C14.4987 24.6655 14.4977 24.6025 14.4956 24.5399C14.4762 23.947 14.366 23.3806 14.1804 22.8585C14.2488 22.8827 14.3175 22.9065 14.3866 22.9299C14.87 23.0934 15.371 23.2354 15.8869 23.3543C17.1021 23.6343 18.4003 23.7858 19.749 23.7858C20.0078 23.7858 20.2647 23.7802 20.5196 23.7693C24.3426 23.6043 27.6959 22.2207 29.8003 20.1652C30.244 19.7318 30.6322 19.2685 30.9576 18.7805C30.9668 18.8173 30.9763 18.8539 30.986 18.8904C31.1319 19.4386 31.3333 19.9649 31.5839 20.4634C32.8862 23.0534 35.5185 24.8916 38.6124 25.1308C38.8393 25.1483 39.0687 25.1573 39.3002 25.1573L39.3729 25.157C39.7326 25.1541 40.0871 25.1296 40.435 25.0848C40.4353 25.0879 40.4355 25.091 40.4358 25.0941Z"/>
</mask>
<path d="M7.38653 14.8488L9.38479 14.9321C9.4059 14.4258 9.23402 13.9303 8.90387 13.5458L7.38653 14.8488ZM6.4153 13.3501L4.6051 14.2005L4.6051 14.2005L6.4153 13.3501ZM7.38165 15.0282L6.87073 16.9618C7.46638 17.1192 8.10134 16.9933 8.59185 16.6205C9.08236 16.2477 9.37367 15.6696 9.38149 15.0536L7.38165 15.0282ZM7.36865 15.0248L7.87958 13.0911L7.87744 13.0906L7.36865 15.0248ZM7.22019 14.9878L6.76156 16.9345L6.76161 16.9345L7.22019 14.9878ZM5.8655 14.8287L5.87271 12.8287L5.86999 12.8287L5.8655 14.8287ZM5.86507 14.8287L5.86957 12.8287L5.8686 12.8287L5.86507 14.8287ZM5.84341 14.8286L5.84693 12.8286H5.84341V14.8286ZM5.50383 14.8381L5.39223 12.8412L5.39222 12.8412L5.50383 14.8381ZM0.00429916 20.7493L2.00278 20.6713L2.00278 20.6713L0.00429916 20.7493ZM1.00077 23.7197L-0.642419 24.8598L-0.642418 24.8598L1.00077 23.7197ZM2.03039 24.848L3.06985 26.5567C3.62012 26.222 3.97549 25.6427 4.02458 25.0005C4.07366 24.3582 3.81045 23.7317 3.31744 23.3172L2.03039 24.848ZM0.890194 25.8567L-0.680553 24.6187L-0.680554 24.6187L0.890194 25.8567ZM6.17924 32.197L7.03317 34.0056L7.03319 34.0056L6.17924 32.197ZM6.41164 32.0786L8.18168 31.1475C7.93197 30.6728 7.50206 30.3183 6.98849 30.1636C6.47492 30.0089 5.92073 30.067 5.45038 30.3248L6.41164 32.0786ZM6.42112 32.0966L4.65108 33.0277L4.65292 33.0312L6.42112 32.0966ZM6.57111 32.3617L4.85937 33.3961L4.85938 33.3961L6.57111 32.3617ZM14.1954 33.5894L15.9178 32.5728C15.6149 32.0596 15.0989 31.7082 14.5104 31.6143C13.9219 31.5205 13.3222 31.694 12.8747 32.0875L14.1954 33.5894ZM40.6948 32.2209L42.1932 30.8962C41.7445 30.3887 41.0694 30.1428 40.3995 30.2429C39.7295 30.3429 39.1557 30.7753 38.8748 31.3917L40.6948 32.2209ZM50.651 26.6518L49.3954 25.0951C48.7363 25.6267 48.4834 26.5157 48.764 27.3145L50.651 26.6518ZM47.8667 17.3955L45.8722 17.2467C45.7918 18.3249 46.5828 19.2718 47.6581 19.3846L47.8667 17.3955ZM35.4861 9.26935L36.3577 11.0694L36.3577 11.0694L35.4861 9.26935ZM33.7606 10.3752L31.8206 9.88899C31.6107 10.7267 31.9622 11.6045 32.6922 12.0659C33.4223 12.5272 34.366 12.4679 35.0325 11.9187L33.7606 10.3752ZM34.006 8.37861L36.006 8.37861L36.006 8.37706L34.006 8.37861ZM34.006 8.36378L36.006 8.36224L36.006 8.36055L34.006 8.36378ZM34.006 8.36142L36.006 8.35819L36.006 8.35731L34.006 8.36142ZM17.9099 4.30345L16.1737 3.31075L16.1737 3.31075L17.9099 4.30345ZM17.2632 5.73597L15.9144 7.21264C16.4126 7.66776 17.1068 7.84094 17.7604 7.67318C18.4141 7.50542 18.939 7.01936 19.1565 6.38054L17.2632 5.73597ZM15.9848 4.81496L16.9591 3.06828L16.9591 3.06828L15.9848 4.81496ZM39.5918 26.6532L41.479 27.3155L41.479 27.3155L39.5918 26.6532ZM40.4358 25.0941L42.0242 26.3094C42.3259 25.9151 42.4702 25.4226 42.4288 24.9277L40.4358 25.0941ZM39.397 29.6489L37.4396 30.0595L37.4396 30.0595L39.397 29.6489ZM39.7034 30.6385L41.5839 31.3192C41.754 30.8494 41.7421 30.333 41.5505 29.8716L39.7034 30.6385ZM15.2324 32.3425L13.5163 31.3153C13.1558 31.9176 13.1375 32.6648 13.468 33.2841L15.2324 32.3425ZM15.6832 31.3841L17.5686 32.0515L17.5686 32.0515L15.6832 31.3841ZM14.4068 25.7503L12.4393 25.3908C12.3202 26.0429 12.5319 26.7117 13.0046 27.1764L14.4068 25.7503ZM14.4956 24.5399L12.4967 24.6052L12.4967 24.6052L14.4956 24.5399ZM14.1804 22.8585L14.8486 20.9734C14.1214 20.7157 13.3108 20.8991 12.7656 21.4449C12.2203 21.9907 12.0375 22.8014 12.2959 23.5284L14.1804 22.8585ZM14.3866 22.9299L13.7458 24.8245L13.7459 24.8245L14.3866 22.9299ZM15.8869 23.3543L16.3361 21.4054L16.3361 21.4054L15.8869 23.3543ZM20.5196 23.7693L20.6058 25.7674L20.6058 25.7674L20.5196 23.7693ZM29.8003 20.1652L31.1978 21.596L31.1978 21.596L29.8003 20.1652ZM30.9576 18.7805L32.8973 18.2931C32.7044 17.5257 32.0774 16.9442 31.2977 16.8097C30.5181 16.6751 29.7324 17.0128 29.2935 17.6711L30.9576 18.7805ZM30.986 18.8904L32.9187 18.376L32.9187 18.3759L30.986 18.8904ZM31.5839 20.4634L29.797 21.3618L29.7971 21.3618L31.5839 20.4634ZM38.6124 25.1308L38.4582 27.1248L38.4582 27.1248L38.6124 25.1308ZM39.3002 25.1573L39.3002 27.1573L39.3083 27.1572L39.3002 25.1573ZM39.3729 25.157L39.3809 27.157L39.389 27.1569L39.3729 25.157ZM40.435 25.0848L42.4281 24.9183C42.3826 24.3742 42.1167 23.8724 41.6921 23.5293C41.2675 23.1861 40.7211 23.0314 40.1796 23.1012L40.435 25.0848ZM8.90387 13.5458C8.63098 13.228 8.40242 12.8763 8.2255 12.4997L4.6051 14.2005C4.93821 14.9096 5.36526 15.5649 5.86919 16.1517L8.90387 13.5458ZM9.38149 15.0536C9.38201 15.013 9.38311 14.9725 9.38479 14.9321L5.38827 14.7655C5.38497 14.8444 5.38282 14.9235 5.38181 15.0028L9.38149 15.0536ZM6.85772 16.9584L6.87073 16.9618L7.89258 13.0946L7.87958 13.0911L6.85772 16.9584ZM6.76161 16.9345C6.79449 16.9422 6.82724 16.9504 6.85987 16.959L7.87744 13.0906C7.81159 13.0732 7.74536 13.0567 7.67876 13.041L6.76161 16.9345ZM5.85828 16.8287C6.17181 16.8298 6.47397 16.8667 6.76156 16.9345L7.67881 13.0411C7.09714 12.904 6.49213 12.8309 5.87271 12.8287L5.85828 16.8287ZM5.86058 16.8287L5.861 16.8287L5.86999 12.8287L5.86957 12.8287L5.86058 16.8287ZM5.83989 16.8286L5.86155 16.8287L5.8686 12.8287L5.84693 12.8286L5.83989 16.8286ZM5.61543 16.835C5.69067 16.8308 5.76668 16.8286 5.84341 16.8286V12.8286C5.69217 12.8286 5.54173 12.8329 5.39223 12.8412L5.61543 16.835ZM2 20.5287C2 18.6018 3.55643 16.9501 5.61545 16.835L5.39222 12.8412C1.31285 13.0692 -2 16.3819 -2 20.5287H2ZM2.00278 20.6713C2.00093 20.6241 2 20.5765 2 20.5287H-2C-2 20.6286 -1.99805 20.7281 -1.99418 20.8273L2.00278 20.6713ZM2.64396 22.5795C2.26038 22.0267 2.03021 21.3743 2.00278 20.6713L-1.99418 20.8273C-1.9359 22.3207 -1.44342 23.7054 -0.642419 24.8598L2.64396 22.5795ZM3.31744 23.3172C3.05956 23.1004 2.833 22.852 2.64396 22.5795L-0.642418 24.8598C-0.249584 25.426 0.217189 25.9365 0.743346 26.3789L3.31744 23.3172ZM2.46094 27.0947C2.62708 26.884 2.83322 26.7007 3.06985 26.5567L0.990942 23.1394C0.348913 23.53 -0.217663 24.0314 -0.680553 24.6187L2.46094 27.0947ZM2 28.4144C2 27.9211 2.16803 27.4664 2.46094 27.0947L-0.680554 24.6187C-1.50419 25.6636 -2 26.9827 -2 28.4144H2ZM4.30567 30.6144C2.98515 30.6144 2 29.5829 2 28.4144H-2C-2 31.8851 0.870279 34.6144 4.30567 34.6144V30.6144ZM5.32532 30.3885C5.02141 30.532 4.67698 30.6144 4.30567 30.6144V34.6144C5.2774 34.6144 6.2042 34.397 7.03317 34.0056L5.32532 30.3885ZM5.45038 30.3248C5.40945 30.3472 5.36774 30.3685 5.3253 30.3885L7.03319 34.0056C7.14842 33.9511 7.2617 33.8934 7.3729 33.8325L5.45038 30.3248ZM8.19116 31.1655L8.18168 31.1475L4.6416 33.0097L4.65108 33.0277L8.19116 31.1655ZM8.28285 31.3273C8.25019 31.2733 8.21899 31.2182 8.18932 31.162L4.65292 33.0312C4.71838 33.1551 4.78724 33.2767 4.85937 33.3961L8.28285 31.3273ZM10.896 32.843C9.82191 32.843 8.84763 32.2619 8.28283 31.3273L4.85938 33.3961C6.09553 35.4417 8.32182 36.843 10.896 36.843V32.843ZM12.8747 32.0875C12.3309 32.5657 11.6426 32.843 10.896 32.843V36.843C12.6663 36.843 14.2818 36.1768 15.5162 35.0912L12.8747 32.0875ZM12.4731 34.6059C15.4064 39.5758 20.8579 42.91 27.0886 42.91V38.91C22.314 38.91 18.1527 36.3592 15.9178 32.5728L12.4731 34.6059ZM27.0886 42.91C33.9479 42.91 39.8635 38.8696 42.5148 33.0501L38.8748 31.3917C36.8586 35.8171 32.3455 38.91 27.0886 38.91V42.91ZM45.1217 32.2002C43.9401 32.2002 42.895 31.69 42.1932 30.8962L39.1965 33.5457C40.6378 35.1759 42.7643 36.2002 45.1217 36.2002V32.2002ZM48.9651 28.5001C48.9651 30.497 47.2915 32.2002 45.1217 32.2002V36.2002C49.4064 36.2002 52.9651 32.7993 52.9651 28.5001H48.9651ZM48.764 27.3145C48.894 27.6846 48.9651 28.0825 48.9651 28.5001H52.9651C52.9651 27.6239 52.8152 26.7782 52.538 25.989L48.764 27.3145ZM50.5999 22.598C50.5999 23.5971 50.1388 24.4955 49.3954 25.0951L51.9067 28.2085C53.5423 26.8892 54.5999 24.8684 54.5999 22.598H50.5999ZM47.6581 19.3846C49.3318 19.5601 50.5999 20.9523 50.5999 22.598H54.5999C54.5999 18.8422 51.7227 15.7889 48.0753 15.4064L47.6581 19.3846ZM45.8896 16.7786C45.8896 16.9364 45.8837 17.0925 45.8722 17.2467L49.8611 17.5443C49.88 17.2911 49.8896 17.0358 49.8896 16.7786H45.8896ZM39.3002 10.4C42.9866 10.4 45.8896 13.3024 45.8896 16.7786H49.8896C49.8896 11.0001 45.1014 6.40004 39.3002 6.40004V10.4ZM36.3577 11.0694C37.2398 10.6423 38.2374 10.4 39.3002 10.4V6.40004C37.6232 6.40004 36.0306 6.78352 34.6144 7.46929L36.3577 11.0694ZM35.0325 11.9187C35.4353 11.5868 35.8799 11.3008 36.3577 11.0694L34.6144 7.46928C33.8491 7.83987 33.136 8.2984 32.4888 8.83166L35.0325 11.9187ZM32.006 8.37861C32.006 8.90124 31.9415 9.40667 31.8206 9.88899L35.7007 10.8613C35.9005 10.064 36.006 9.23206 36.006 8.37861H32.006ZM32.006 8.36533L32.006 8.38015L36.006 8.37706L36.006 8.36224L32.006 8.36533ZM32.006 8.36466L32.006 8.36702L36.006 8.36055L36.006 8.35819L32.006 8.36466ZM25.4166 2C29.0983 2 31.9989 4.89521 32.006 8.36554L36.006 8.35731C35.9941 2.58868 31.2107 -2 25.4166 -2V2ZM19.6462 5.29614C20.7637 3.3415 22.9187 2 25.4166 2V-2C21.4599 -2 17.9916 0.131024 16.1737 3.31075L19.6462 5.29614ZM19.1565 6.38054C19.2851 6.00297 19.4494 5.64023 19.6462 5.29614L16.1737 3.31075C15.8521 3.87319 15.5819 4.46879 15.37 5.09139L19.1565 6.38054ZM15.0106 6.56164C15.3384 6.74447 15.6416 6.96349 15.9144 7.21264L18.6121 4.25929C18.1116 3.80216 17.5571 3.40183 16.9591 3.06828L15.0106 6.56164ZM12.6095 5.94287C13.4899 5.94287 14.3075 6.16949 15.0106 6.56164L16.9591 3.06828C15.6723 2.35056 14.1855 1.94287 12.6095 1.94287V5.94287ZM7.79948 10.5858C7.79948 8.06812 9.90585 5.94287 12.6095 5.94287V1.94287C7.79097 1.94287 3.79948 5.76588 3.79948 10.5858H7.79948ZM8.2255 12.4997C7.95199 11.9175 7.79948 11.271 7.79948 10.5858H3.79948C3.79948 11.8734 4.0878 13.0993 4.6051 14.2005L8.2255 12.4997ZM41.479 27.3155C41.6059 26.954 41.7904 26.615 42.0242 26.3094L38.8474 23.8788C38.3632 24.5116 37.9743 25.2226 37.7047 25.991L41.479 27.3155ZM41.2783 28.5001C41.2783 28.0828 41.3492 27.6853 41.479 27.3155L37.7047 25.991C37.4279 26.7796 37.2783 27.6246 37.2783 28.5001H41.2783ZM41.3544 29.2383C41.3047 29.0013 41.2783 28.7547 41.2783 28.5001H37.2783C37.2783 29.0325 37.3336 29.5543 37.4396 30.0595L41.3544 29.2383ZM41.5505 29.8716C41.4662 29.6685 41.4002 29.4568 41.3544 29.2383L37.4396 30.0595C37.5372 30.525 37.6776 30.975 37.8562 31.4053L41.5505 29.8716ZM27.0886 41.4099C33.7589 41.4099 39.4511 37.2111 41.5839 31.3192L37.8228 29.9577C36.254 34.2914 32.0478 37.4099 27.0886 37.4099V41.4099ZM13.468 33.2841C16.049 38.1206 21.1849 41.4099 27.0886 41.4099V37.4099C22.701 37.4099 18.9012 34.9692 16.9969 31.4008L13.468 33.2841ZM13.7979 30.7167C13.7232 30.9276 13.6285 31.1279 13.5163 31.3153L16.9485 33.3696C17.1963 32.9556 17.4047 32.5144 17.5686 32.0515L13.7979 30.7167ZM13.9925 29.5716C13.9925 29.9786 13.9229 30.3635 13.7979 30.7167L17.5686 32.0515C17.8437 31.2743 17.9925 30.4382 17.9925 29.5716H13.9925ZM13.0046 27.1764C13.6071 27.7689 13.9925 28.6152 13.9925 29.5716H17.9925C17.9925 27.5199 17.16 25.6525 15.809 24.3242L13.0046 27.1764ZM12.4987 24.7287C12.4987 24.9582 12.4779 25.1795 12.4393 25.3908L16.3742 26.1098C16.4561 25.6616 16.4987 25.1996 16.4987 24.7287H12.4987ZM12.4967 24.6052C12.498 24.6461 12.4987 24.6873 12.4987 24.7287H16.4987C16.4987 24.6437 16.4973 24.559 16.4945 24.4746L12.4967 24.6052ZM12.2959 23.5284C12.4124 23.856 12.484 24.2184 12.4967 24.6052L16.4945 24.4746C16.4684 23.6756 16.3197 22.9053 16.0649 22.1886L12.2959 23.5284ZM15.0273 21.0353C14.9673 21.015 14.9077 20.9944 14.8486 20.9734L13.5123 24.7436C13.5898 24.7711 13.6677 24.798 13.7458 24.8245L15.0273 21.0353ZM16.3361 21.4054C15.8837 21.3012 15.4467 21.1771 15.0272 21.0353L13.7459 24.8245C14.2934 25.0096 14.8583 25.1697 15.4378 25.3032L16.3361 21.4054ZM19.749 21.7858C18.5495 21.7858 17.402 21.651 16.3361 21.4054L15.4378 25.3032C16.8022 25.6177 18.2512 25.7858 19.749 25.7858V21.7858ZM20.4334 21.7711C20.2073 21.7809 19.979 21.7858 19.749 21.7858V25.7858C20.0365 25.7858 20.3222 25.7796 20.6058 25.7674L20.4334 21.7711ZM28.4028 18.7345C26.714 20.384 23.8606 21.6233 20.4334 21.7711L20.6058 25.7674C24.8246 25.5854 28.6777 24.0575 31.1978 21.596L28.4028 18.7345ZM29.2935 17.6711C29.0512 18.0345 28.7543 18.3912 28.4028 18.7345L31.1978 21.596C31.7337 21.0725 32.2132 20.5026 32.6216 19.89L29.2935 17.6711ZM32.9187 18.3759C32.9114 18.3484 32.9042 18.3207 32.8973 18.2931L29.0179 19.268C29.0294 19.3138 29.0412 19.3594 29.0533 19.4049L32.9187 18.3759ZM33.3708 19.565C33.1809 19.1873 33.0288 18.7895 32.9187 18.376L29.0533 19.4049C29.2351 20.0877 29.4857 20.7425 29.797 21.3618L33.3708 19.565ZM38.7665 23.1367C36.3762 22.952 34.3605 21.5334 33.3708 19.5649L29.7971 21.3618C31.4118 24.5734 34.6609 26.8313 38.4582 27.1248L38.7665 23.1367ZM39.3002 23.1573C39.1202 23.1573 38.9422 23.1503 38.7665 23.1367L38.4582 27.1248C38.7364 27.1463 39.0172 27.1573 39.3002 27.1573V23.1573ZM39.3648 23.157L39.2921 23.1573L39.3083 27.1572L39.3809 27.1569L39.3648 23.157ZM40.1796 23.1012C39.9109 23.1358 39.6363 23.1548 39.3567 23.157L39.389 27.1569C39.829 27.1533 40.2633 27.1234 40.6904 27.0684L40.1796 23.1012ZM42.4288 24.9277C42.4288 24.9268 42.4287 24.9259 42.4286 24.9242C42.4284 24.9227 42.4283 24.9206 42.4281 24.9183L38.442 25.2513C38.4436 25.2714 38.4408 25.2372 38.4427 25.2605L42.4288 24.9277Z" fill="white" mask="url(#path-1-inside-1_390_259)"/>
</svg>
