<svg width="163" height="82" viewBox="0 0 163 82" fill="none" xmlns="http://www.w3.org/2000/svg">
<path fill-rule="evenodd" clip-rule="evenodd" d="M84.3623 74.0131C82.6971 74.6507 80.8894 75 79 75C76.9472 75 74.9908 74.5877 73.209 73.8413C70.6672 75.8209 67.4713 77 64 77C61.6255 77 59.3798 76.4483 57.3843 75.466C54.6819 79.4114 50.1433 82 45 82C40.9029 82 37.1895 80.3574 34.4824 77.6949C32.1467 78.5395 29.6271 79 27 79C14.8497 79 5 69.1503 5 57C5 52.0883 6.6096 47.5525 9.33011 43.8914C3.85672 41.6551 0 36.2779 0 30C0 21.7157 6.71573 15 15 15C15.2837 15 15.5655 15.0079 15.8453 15.0234C17.8978 9.18523 23.4602 5 30 5C33.6224 5 36.9449 6.28402 39.5371 8.42174C43.4041 5.04537 48.4632 3 54 3C58.4108 3 62.5185 4.29806 65.9618 6.533C71.2159 2.43886 77.8231 0 85 0C92.8153 0 99.9551 2.89204 105.408 7.6643C109.255 5.95178 113.517 5 118 5C122.41 5 126.605 5.92088 130.403 7.58083C132.209 7.20019 134.081 7 136 7C150.912 7 163 19.0883 163 34C163 39.5079 161.351 44.6305 158.519 48.9011C158.835 50.5523 159 52.2569 159 54C159 68.9117 146.912 81 132 81C125.393 81 119.34 78.6266 114.647 74.6858C110.428 77.4153 105.399 79 100 79C94.1717 79 88.7747 77.1533 84.3623 74.0131Z" fill="#FF69B3"/>
<path d="M34.72 35.96C35.0533 35.96 35.34 36.0733 35.58 36.3C35.8333 36.5133 35.96 36.7867 35.96 37.12C35.96 37.2933 35.92 37.4733 35.84 37.66L30.9 49.22C30.78 49.4867 30.6067 49.6867 30.38 49.82C30.1667 49.94 29.9467 50 29.72 50C29.5067 49.9867 29.3 49.92 29.1 49.8C28.9 49.6667 28.7467 49.48 28.64 49.24L23.7 37.64C23.66 37.56 23.6333 37.48 23.62 37.4C23.6067 37.3067 23.6 37.22 23.6 37.14C23.6 36.7533 23.74 36.46 24.02 36.26C24.3 36.0467 24.5667 35.94 24.82 35.94C25.3267 35.94 25.6933 36.2 25.92 36.72L30.3 47.02L29.6 47.04L33.62 36.72C33.8467 36.2133 34.2133 35.96 34.72 35.96ZM43.0259 50.2C41.8926 50.2 40.9059 49.9667 40.0659 49.5C39.2393 49.02 38.5993 48.3733 38.1459 47.56C37.7059 46.7467 37.4859 45.8267 37.4859 44.8C37.4859 43.6 37.7259 42.58 38.2059 41.74C38.6993 40.8867 39.3393 40.2333 40.1259 39.78C40.9126 39.3267 41.7459 39.1 42.6259 39.1C43.3059 39.1 43.9459 39.24 44.5459 39.52C45.1593 39.8 45.6993 40.1867 46.1659 40.68C46.6326 41.16 46.9993 41.72 47.2659 42.36C47.5459 43 47.6859 43.68 47.6859 44.4C47.6726 44.72 47.5459 44.98 47.3059 45.18C47.0659 45.38 46.7859 45.48 46.4659 45.48H38.8259L38.2259 43.48H45.5659L45.1259 43.88V43.34C45.0993 42.9533 44.9593 42.6067 44.7059 42.3C44.4659 41.9933 44.1593 41.7533 43.7859 41.58C43.4259 41.3933 43.0393 41.3 42.6259 41.3C42.2259 41.3 41.8526 41.3533 41.5059 41.46C41.1593 41.5667 40.8593 41.7467 40.6059 42C40.3526 42.2533 40.1526 42.5933 40.0059 43.02C39.8593 43.4467 39.7859 43.9867 39.7859 44.64C39.7859 45.36 39.9326 45.9733 40.2259 46.48C40.5326 46.9733 40.9193 47.3533 41.3859 47.62C41.8659 47.8733 42.3726 48 42.9059 48C43.3993 48 43.7926 47.96 44.0859 47.88C44.3793 47.8 44.6126 47.7067 44.7859 47.6C44.9726 47.48 45.1393 47.38 45.2859 47.3C45.5259 47.18 45.7526 47.12 45.9659 47.12C46.2593 47.12 46.4993 47.22 46.6859 47.42C46.8859 47.62 46.9859 47.8533 46.9859 48.12C46.9859 48.48 46.7993 48.8067 46.4259 49.1C46.0793 49.3933 45.5926 49.6533 44.9659 49.88C44.3393 50.0933 43.6926 50.2 43.0259 50.2ZM51.5828 50C51.2361 50 50.9495 49.8867 50.7228 49.66C50.4961 49.42 50.3828 49.1267 50.3828 48.78V40.52C50.3828 40.1733 50.4961 39.8867 50.7228 39.66C50.9495 39.42 51.2361 39.3 51.5828 39.3C51.9295 39.3 52.2161 39.42 52.4428 39.66C52.6695 39.8867 52.7828 40.1733 52.7828 40.52V42.4L52.6428 41.06C52.7895 40.74 52.9761 40.46 53.2028 40.22C53.4428 39.9667 53.7095 39.76 54.0028 39.6C54.2961 39.4267 54.6095 39.3 54.9428 39.22C55.2761 39.14 55.6095 39.1 55.9428 39.1C56.3428 39.1 56.6761 39.2133 56.9428 39.44C57.2228 39.6667 57.3628 39.9333 57.3628 40.24C57.3628 40.68 57.2495 41 57.0228 41.2C56.7961 41.3867 56.5495 41.48 56.2828 41.48C56.0295 41.48 55.7961 41.4333 55.5828 41.34C55.3828 41.2467 55.1495 41.2 54.8828 41.2C54.6428 41.2 54.3961 41.26 54.1428 41.38C53.9028 41.4867 53.6761 41.66 53.4628 41.9C53.2628 42.14 53.0961 42.44 52.9628 42.8C52.8428 43.1467 52.7828 43.56 52.7828 44.04V48.78C52.7828 49.1267 52.6695 49.42 52.4428 49.66C52.2161 49.8867 51.9295 50 51.5828 50ZM76.2402 44.66C76.2402 45.7533 75.9935 46.72 75.5002 47.56C75.0202 48.3867 74.3668 49.0333 73.5402 49.5C72.7268 49.9667 71.8135 50.2 70.8002 50.2C69.7868 50.2 68.8668 49.9667 68.0402 49.5C67.2268 49.0333 66.5735 48.3867 66.0802 47.56C65.6002 46.72 65.3602 45.7533 65.3602 44.66C65.3602 43.5667 65.6002 42.6067 66.0802 41.78C66.5735 40.94 67.2268 40.2867 68.0402 39.82C68.8668 39.34 69.7868 39.1 70.8002 39.1C71.8135 39.1 72.7268 39.34 73.5402 39.82C74.3668 40.2867 75.0202 40.94 75.5002 41.78C75.9935 42.6067 76.2402 43.5667 76.2402 44.66ZM73.8402 44.66C73.8402 43.98 73.7002 43.3933 73.4202 42.9C73.1535 42.3933 72.7868 42 72.3202 41.72C71.8668 41.44 71.3602 41.3 70.8002 41.3C70.2402 41.3 69.7268 41.44 69.2602 41.72C68.8068 42 68.4402 42.3933 68.1602 42.9C67.8935 43.3933 67.7602 43.98 67.7602 44.66C67.7602 45.3267 67.8935 45.9133 68.1602 46.42C68.4402 46.9133 68.8068 47.3 69.2602 47.58C69.7268 47.86 70.2402 48 70.8002 48C71.3602 48 71.8668 47.86 72.3202 47.58C72.7868 47.3 73.1535 46.9133 73.4202 46.42C73.7002 45.9133 73.8402 45.3267 73.8402 44.66ZM84.4406 35.2C84.734 35.2 85.0206 35.24 85.3006 35.32C85.5806 35.4 85.814 35.5333 86.0006 35.72C86.1873 35.8933 86.2806 36.1267 86.2806 36.42C86.2806 36.7533 86.1806 37.02 85.9806 37.22C85.794 37.4067 85.574 37.5 85.3206 37.5C85.2006 37.5 85.0206 37.4733 84.7806 37.42C84.5406 37.3533 84.3073 37.32 84.0806 37.32C83.7473 37.32 83.4873 37.3933 83.3006 37.54C83.1273 37.6867 83.0073 37.86 82.9406 38.06C82.874 38.2467 82.8406 38.4133 82.8406 38.56V48.78C82.8406 49.1267 82.7273 49.42 82.5006 49.66C82.274 49.8867 81.9873 50 81.6406 50C81.294 50 81.0073 49.8867 80.7806 49.66C80.554 49.42 80.4406 49.1267 80.4406 48.78V38.58C80.4406 37.6333 80.774 36.8333 81.4406 36.18C82.1073 35.5267 83.1073 35.2 84.4406 35.2ZM84.6606 39.5C84.9806 39.5 85.2473 39.6067 85.4606 39.82C85.674 40.02 85.7806 40.28 85.7806 40.6C85.7806 40.92 85.674 41.1867 85.4606 41.4C85.2473 41.6 84.9806 41.7 84.6606 41.7H79.3606C79.0406 41.7 78.774 41.6 78.5606 41.4C78.3473 41.1867 78.2406 40.92 78.2406 40.6C78.2406 40.28 78.3473 40.02 78.5606 39.82C78.774 39.6067 79.0406 39.5 79.3606 39.5H84.6606ZM92.7056 50.2C91.5723 50.2 90.5856 49.9667 89.7456 49.5C88.919 49.02 88.279 48.3733 87.8256 47.56C87.3856 46.7467 87.1656 45.8267 87.1656 44.8C87.1656 43.6 87.4056 42.58 87.8856 41.74C88.379 40.8867 89.019 40.2333 89.8056 39.78C90.5923 39.3267 91.4256 39.1 92.3056 39.1C92.9856 39.1 93.6256 39.24 94.2256 39.52C94.839 39.8 95.379 40.1867 95.8456 40.68C96.3123 41.16 96.679 41.72 96.9456 42.36C97.2256 43 97.3656 43.68 97.3656 44.4C97.3523 44.72 97.2256 44.98 96.9856 45.18C96.7456 45.38 96.4656 45.48 96.1456 45.48H88.5056L87.9056 43.48H95.2456L94.8056 43.88V43.34C94.779 42.9533 94.639 42.6067 94.3856 42.3C94.1456 41.9933 93.839 41.7533 93.4656 41.58C93.1056 41.3933 92.719 41.3 92.3056 41.3C91.9056 41.3 91.5323 41.3533 91.1856 41.46C90.839 41.5667 90.539 41.7467 90.2856 42C90.0323 42.2533 89.8323 42.5933 89.6856 43.02C89.539 43.4467 89.4656 43.9867 89.4656 44.64C89.4656 45.36 89.6123 45.9733 89.9056 46.48C90.2123 46.9733 90.599 47.3533 91.0656 47.62C91.5456 47.8733 92.0523 48 92.5856 48C93.079 48 93.4723 47.96 93.7656 47.88C94.059 47.8 94.2923 47.7067 94.4656 47.6C94.6523 47.48 94.819 47.38 94.9656 47.3C95.2056 47.18 95.4323 47.12 95.6456 47.12C95.939 47.12 96.179 47.22 96.3656 47.42C96.5656 47.62 96.6656 47.8533 96.6656 48.12C96.6656 48.48 96.479 48.8067 96.1056 49.1C95.759 49.3933 95.2723 49.6533 94.6456 49.88C94.019 50.0933 93.3723 50.2 92.7056 50.2ZM101.262 50C100.916 50 100.629 49.8867 100.402 49.66C100.176 49.42 100.062 49.1267 100.062 48.78V40.52C100.062 40.1733 100.176 39.8867 100.402 39.66C100.629 39.42 100.916 39.3 101.262 39.3C101.609 39.3 101.896 39.42 102.122 39.66C102.349 39.8867 102.462 40.1733 102.462 40.52V42.4L102.322 41.06C102.469 40.74 102.656 40.46 102.882 40.22C103.122 39.9667 103.389 39.76 103.682 39.6C103.976 39.4267 104.289 39.3 104.622 39.22C104.956 39.14 105.289 39.1 105.622 39.1C106.022 39.1 106.356 39.2133 106.622 39.44C106.902 39.6667 107.042 39.9333 107.042 40.24C107.042 40.68 106.929 41 106.702 41.2C106.476 41.3867 106.229 41.48 105.962 41.48C105.709 41.48 105.476 41.4333 105.262 41.34C105.062 41.2467 104.829 41.2 104.562 41.2C104.322 41.2 104.076 41.26 103.822 41.38C103.582 41.4867 103.356 41.66 103.142 41.9C102.942 42.14 102.776 42.44 102.642 42.8C102.522 43.1467 102.462 43.56 102.462 44.04V48.78C102.462 49.1267 102.349 49.42 102.122 49.66C101.896 49.8867 101.609 50 101.262 50ZM109.454 39.5H114.194C114.514 39.5 114.781 39.6067 114.994 39.82C115.208 40.0333 115.314 40.3 115.314 40.62C115.314 40.9267 115.208 41.1867 114.994 41.4C114.781 41.6 114.514 41.7 114.194 41.7H109.454C109.134 41.7 108.868 41.5933 108.654 41.38C108.441 41.1667 108.334 40.9 108.334 40.58C108.334 40.2733 108.441 40.02 108.654 39.82C108.868 39.6067 109.134 39.5 109.454 39.5ZM111.594 37C111.941 37 112.221 37.12 112.434 37.36C112.661 37.5867 112.774 37.8733 112.774 38.22V47.12C112.774 47.3067 112.808 47.46 112.874 47.58C112.954 47.7 113.054 47.7867 113.174 47.84C113.308 47.8933 113.448 47.92 113.594 47.92C113.754 47.92 113.901 47.8933 114.034 47.84C114.168 47.7733 114.321 47.74 114.494 47.74C114.681 47.74 114.848 47.8267 114.994 48C115.154 48.1733 115.234 48.4133 115.234 48.72C115.234 49.0933 115.028 49.4 114.614 49.64C114.214 49.88 113.781 50 113.314 50C113.034 50 112.721 49.98 112.374 49.94C112.041 49.8867 111.721 49.7733 111.414 49.6C111.121 49.4133 110.874 49.1333 110.674 48.76C110.474 48.3867 110.374 47.8733 110.374 47.22V38.22C110.374 37.8733 110.488 37.5867 110.714 37.36C110.954 37.12 111.248 37 111.594 37ZM126.878 39.1C127.225 39.1 127.511 39.2133 127.738 39.44C127.965 39.6667 128.078 39.96 128.078 40.32V48.78C128.078 49.1267 127.965 49.42 127.738 49.66C127.511 49.8867 127.225 50 126.878 50C126.531 50 126.245 49.8867 126.018 49.66C125.791 49.42 125.678 49.1267 125.678 48.78V47.8L126.118 47.98C126.118 48.1533 126.025 48.3667 125.838 48.62C125.651 48.86 125.398 49.1 125.078 49.34C124.758 49.58 124.378 49.7867 123.938 49.96C123.511 50.12 123.045 50.2 122.538 50.2C121.618 50.2 120.785 49.9667 120.038 49.5C119.291 49.02 118.698 48.3667 118.258 47.54C117.831 46.7 117.618 45.74 117.618 44.66C117.618 43.5667 117.831 42.6067 118.258 41.78C118.698 40.94 119.285 40.2867 120.018 39.82C120.751 39.34 121.565 39.1 122.458 39.1C123.031 39.1 123.558 39.1867 124.038 39.36C124.518 39.5333 124.931 39.7533 125.278 40.02C125.638 40.2867 125.911 40.56 126.098 40.84C126.298 41.1067 126.398 41.3333 126.398 41.52L125.678 41.78V40.32C125.678 39.9733 125.791 39.6867 126.018 39.46C126.245 39.22 126.531 39.1 126.878 39.1ZM122.838 48C123.425 48 123.938 47.8533 124.378 47.56C124.818 47.2667 125.158 46.8667 125.398 46.36C125.651 45.8533 125.778 45.2867 125.778 44.66C125.778 44.02 125.651 43.4467 125.398 42.94C125.158 42.4333 124.818 42.0333 124.378 41.74C123.938 41.4467 123.425 41.3 122.838 41.3C122.265 41.3 121.758 41.4467 121.318 41.74C120.878 42.0333 120.531 42.4333 120.278 42.94C120.038 43.4467 119.918 44.02 119.918 44.66C119.918 45.2867 120.038 45.8533 120.278 46.36C120.531 46.8667 120.878 47.2667 121.318 47.56C121.758 47.8533 122.265 48 122.838 48ZM130.657 48.34C130.523 48.1533 130.463 47.9133 130.477 47.62C130.49 47.3267 130.663 47.0733 130.997 46.86C131.21 46.7267 131.437 46.6733 131.677 46.7C131.917 46.7133 132.15 46.8333 132.377 47.06C132.763 47.4467 133.17 47.7467 133.597 47.96C134.023 48.1733 134.557 48.28 135.197 48.28C135.397 48.2667 135.617 48.24 135.857 48.2C136.097 48.1467 136.303 48.04 136.477 47.88C136.663 47.7067 136.757 47.4467 136.757 47.1C136.757 46.8067 136.657 46.5733 136.457 46.4C136.257 46.2267 135.99 46.08 135.657 45.96C135.337 45.84 134.977 45.7267 134.577 45.62C134.163 45.5 133.737 45.3667 133.297 45.22C132.87 45.0733 132.477 44.8867 132.117 44.66C131.757 44.42 131.463 44.1067 131.237 43.72C131.01 43.3333 130.897 42.8467 130.897 42.26C130.897 41.5933 131.083 41.0267 131.457 40.56C131.83 40.0933 132.31 39.7333 132.897 39.48C133.497 39.2267 134.123 39.1 134.777 39.1C135.19 39.1 135.623 39.1533 136.077 39.26C136.53 39.3533 136.963 39.5133 137.377 39.74C137.79 39.9533 138.137 40.24 138.417 40.6C138.563 40.8 138.65 41.04 138.677 41.32C138.703 41.6 138.577 41.8533 138.297 42.08C138.097 42.24 137.863 42.3133 137.597 42.3C137.33 42.2733 137.11 42.18 136.937 42.02C136.71 41.7267 136.403 41.4933 136.017 41.32C135.643 41.1467 135.21 41.06 134.717 41.06C134.517 41.06 134.297 41.0867 134.057 41.14C133.83 41.18 133.63 41.28 133.457 41.44C133.283 41.5867 133.197 41.8267 133.197 42.16C133.197 42.4667 133.297 42.7133 133.497 42.9C133.697 43.0733 133.963 43.22 134.297 43.34C134.643 43.4467 135.01 43.5533 135.397 43.66C135.797 43.7667 136.203 43.8933 136.617 44.04C137.03 44.1867 137.41 44.38 137.757 44.62C138.103 44.86 138.383 45.1733 138.597 45.56C138.81 45.9333 138.917 46.4133 138.917 47C138.917 47.68 138.717 48.26 138.317 48.74C137.917 49.22 137.417 49.5867 136.817 49.84C136.217 50.08 135.603 50.2 134.977 50.2C134.19 50.2 133.403 50.0667 132.617 49.8C131.83 49.52 131.177 49.0333 130.657 48.34ZM142.905 45.58C142.452 45.58 142.205 45.3267 142.165 44.82L141.585 37.46C141.558 37.0467 141.665 36.7 141.905 36.42C142.158 36.14 142.485 36 142.885 36C143.285 36 143.612 36.14 143.865 36.42C144.118 36.7 144.225 37.0467 144.185 37.46L143.625 44.82C143.585 45.3267 143.345 45.58 142.905 45.58ZM142.765 50C142.378 50 142.078 49.9 141.865 49.7C141.665 49.4867 141.565 49.1867 141.565 48.8V48.46C141.565 48.0733 141.665 47.78 141.865 47.58C142.078 47.3667 142.378 47.26 142.765 47.26H143.025C143.412 47.26 143.705 47.3667 143.905 47.58C144.118 47.78 144.225 48.0733 144.225 48.46V48.8C144.225 49.1867 144.118 49.4867 143.905 49.7C143.705 49.9 143.412 50 143.025 50H142.765Z" fill="#E3ECEA"/>
</svg>
