<svg width="356" height="87" viewBox="0 0 356 87" fill="none" xmlns="http://www.w3.org/2000/svg">
<g clip-path="url(#clip0_567_3168)">
<rect width="356" height="87" rx="24" fill="white"/>
<path d="M94.5413 52.264C92.6693 52.264 91.0613 51.904 89.7173 51.184C88.3733 50.464 87.3413 49.448 86.6213 48.136C85.9173 46.824 85.5653 45.288 85.5653 43.528C85.5653 42.216 85.7653 41.024 86.1653 39.952C86.5813 38.88 87.1733 37.96 87.9413 37.192C88.7253 36.424 89.6693 35.84 90.7733 35.44C91.8933 35.024 93.1493 34.816 94.5413 34.816C95.2773 34.816 96.0373 34.904 96.8213 35.08C97.6213 35.24 98.3253 35.488 98.9333 35.824C99.3813 36.064 99.6933 36.368 99.8693 36.736C100.045 37.104 100.101 37.48 100.037 37.864C99.9893 38.248 99.8533 38.592 99.6293 38.896C99.4053 39.2 99.1173 39.408 98.7653 39.52C98.4133 39.616 98.0293 39.56 97.6133 39.352C97.1333 39.128 96.6533 38.96 96.1733 38.848C95.7093 38.72 95.2213 38.656 94.7093 38.656C93.7173 38.656 92.8853 38.848 92.2133 39.232C91.5573 39.6 91.0613 40.144 90.7253 40.864C90.3893 41.584 90.2213 42.472 90.2213 43.528C90.2213 44.584 90.3893 45.48 90.7253 46.216C91.0613 46.936 91.5573 47.488 92.2133 47.872C92.8853 48.24 93.7173 48.424 94.7093 48.424C95.1253 48.424 95.5733 48.376 96.0533 48.28C96.5333 48.168 97.0053 48 97.4693 47.776C97.9493 47.568 98.3733 47.512 98.7413 47.608C99.1253 47.704 99.4293 47.896 99.6533 48.184C99.8933 48.472 100.045 48.808 100.109 49.192C100.173 49.56 100.117 49.928 99.9413 50.296C99.7813 50.664 99.4933 50.96 99.0773 51.184C98.5173 51.52 97.8213 51.784 96.9893 51.976C96.1733 52.168 95.3573 52.264 94.5413 52.264ZM108.085 52.264C106.773 52.264 105.629 52.016 104.653 51.52C103.677 51.024 102.917 50.312 102.373 49.384C101.829 48.456 101.557 47.36 101.557 46.096C101.557 45.136 101.709 44.28 102.013 43.528C102.317 42.76 102.757 42.112 103.333 41.584C103.909 41.04 104.597 40.632 105.397 40.36C106.197 40.072 107.093 39.928 108.085 39.928C109.397 39.928 110.541 40.176 111.517 40.672C112.493 41.168 113.245 41.88 113.773 42.808C114.317 43.72 114.589 44.816 114.589 46.096C114.589 47.04 114.437 47.896 114.133 48.664C113.829 49.432 113.389 50.088 112.813 50.632C112.253 51.16 111.565 51.568 110.749 51.856C109.949 52.128 109.061 52.264 108.085 52.264ZM108.085 49.12C108.517 49.12 108.901 49.016 109.237 48.808C109.573 48.584 109.829 48.256 110.005 47.824C110.197 47.376 110.293 46.8 110.293 46.096C110.293 45.024 110.085 44.256 109.669 43.792C109.253 43.312 108.725 43.072 108.085 43.072C107.653 43.072 107.269 43.176 106.933 43.384C106.597 43.592 106.333 43.92 106.141 44.368C105.949 44.8 105.853 45.376 105.853 46.096C105.853 47.152 106.061 47.92 106.477 48.4C106.893 48.88 107.429 49.12 108.085 49.12ZM119.426 52.216C118.754 52.216 118.234 52.032 117.866 51.664C117.498 51.296 117.314 50.76 117.314 50.056V42.112C117.314 41.424 117.49 40.896 117.842 40.528C118.21 40.16 118.73 39.976 119.402 39.976C120.074 39.976 120.586 40.16 120.938 40.528C121.29 40.896 121.466 41.424 121.466 42.112V43.432L121.202 42.256C121.538 41.552 122.034 40.992 122.69 40.576C123.362 40.144 124.154 39.928 125.066 39.928C125.93 39.928 126.666 40.136 127.274 40.552C127.898 40.968 128.346 41.6 128.618 42.448H128.282C128.65 41.664 129.202 41.048 129.938 40.6C130.674 40.152 131.49 39.928 132.386 39.928C133.314 39.928 134.074 40.112 134.666 40.48C135.258 40.832 135.698 41.392 135.986 42.16C136.29 42.912 136.442 43.864 136.442 45.016V50.056C136.442 50.76 136.25 51.296 135.866 51.664C135.498 52.032 134.97 52.216 134.282 52.216C133.61 52.216 133.09 52.032 132.722 51.664C132.354 51.296 132.17 50.76 132.17 50.056V45.136C132.17 44.448 132.066 43.952 131.858 43.648C131.65 43.344 131.306 43.192 130.826 43.192C130.234 43.192 129.778 43.4 129.458 43.816C129.154 44.232 129.002 44.824 129.002 45.592V50.056C129.002 50.76 128.818 51.296 128.45 51.664C128.082 52.032 127.554 52.216 126.866 52.216C126.178 52.216 125.65 52.032 125.282 51.664C124.914 51.296 124.73 50.76 124.73 50.056V45.136C124.73 44.448 124.626 43.952 124.418 43.648C124.21 43.344 123.866 43.192 123.386 43.192C122.81 43.192 122.362 43.4 122.042 43.816C121.738 44.232 121.586 44.824 121.586 45.592V50.056C121.586 51.496 120.866 52.216 119.426 52.216ZM141.755 56.536C141.083 56.536 140.563 56.352 140.195 55.984C139.827 55.616 139.643 55.08 139.643 54.376V42.112C139.643 41.424 139.819 40.896 140.171 40.528C140.539 40.16 141.059 39.976 141.731 39.976C142.419 39.976 142.939 40.16 143.291 40.528C143.659 40.896 143.843 41.424 143.843 42.112V43.504L143.579 42.328C143.803 41.608 144.267 41.032 144.971 40.6C145.691 40.152 146.507 39.928 147.419 39.928C148.443 39.928 149.339 40.176 150.107 40.672C150.891 41.168 151.499 41.872 151.931 42.784C152.363 43.696 152.579 44.8 152.579 46.096C152.579 47.36 152.363 48.456 151.931 49.384C151.499 50.312 150.891 51.024 150.107 51.52C149.339 52.016 148.443 52.264 147.419 52.264C146.539 52.264 145.747 52.056 145.043 51.64C144.339 51.224 143.867 50.68 143.627 50.008H143.915V54.376C143.915 55.08 143.723 55.616 143.339 55.984C142.971 56.352 142.443 56.536 141.755 56.536ZM146.075 49.12C146.507 49.12 146.883 49.016 147.203 48.808C147.539 48.584 147.803 48.256 147.995 47.824C148.187 47.376 148.283 46.8 148.283 46.096C148.283 45.024 148.075 44.256 147.659 43.792C147.243 43.312 146.715 43.072 146.075 43.072C145.643 43.072 145.259 43.176 144.923 43.384C144.587 43.592 144.323 43.92 144.131 44.368C143.939 44.8 143.843 45.376 143.843 46.096C143.843 47.152 144.051 47.92 144.467 48.4C144.883 48.88 145.419 49.12 146.075 49.12ZM157.429 52.216C156.725 52.216 156.181 52.032 155.797 51.664C155.429 51.296 155.245 50.76 155.245 50.056V42.112C155.245 41.424 155.421 40.896 155.773 40.528C156.141 40.16 156.661 39.976 157.333 39.976C158.005 39.976 158.517 40.16 158.869 40.528C159.221 40.896 159.397 41.424 159.397 42.112V43.096H159.157C159.317 42.136 159.725 41.376 160.381 40.816C161.053 40.256 161.885 39.96 162.877 39.928C163.341 39.912 163.685 40.032 163.909 40.288C164.149 40.528 164.277 40.984 164.293 41.656C164.293 42.232 164.173 42.688 163.933 43.024C163.693 43.36 163.237 43.56 162.565 43.624L162.013 43.672C161.165 43.752 160.549 43.992 160.165 44.392C159.781 44.776 159.589 45.352 159.589 46.12V50.056C159.589 50.76 159.405 51.296 159.037 51.664C158.669 52.032 158.133 52.216 157.429 52.216ZM170.359 52.264C169.447 52.264 168.639 52.096 167.935 51.76C167.247 51.424 166.703 50.968 166.303 50.392C165.919 49.8 165.727 49.128 165.727 48.376C165.727 47.512 165.951 46.832 166.399 46.336C166.847 45.84 167.567 45.488 168.559 45.28C169.551 45.056 170.871 44.944 172.519 44.944H173.839V46.96H172.519C171.895 46.96 171.375 47.008 170.959 47.104C170.559 47.184 170.263 47.32 170.071 47.512C169.879 47.688 169.783 47.92 169.783 48.208C169.783 48.576 169.911 48.88 170.167 49.12C170.439 49.36 170.823 49.48 171.319 49.48C171.719 49.48 172.071 49.392 172.375 49.216C172.695 49.04 172.951 48.8 173.143 48.496C173.335 48.176 173.431 47.808 173.431 47.392V44.608C173.431 44.032 173.279 43.624 172.975 43.384C172.687 43.144 172.183 43.024 171.463 43.024C171.079 43.024 170.647 43.072 170.167 43.168C169.687 43.248 169.151 43.4 168.559 43.624C168.127 43.784 167.759 43.808 167.455 43.696C167.151 43.584 166.911 43.392 166.735 43.12C166.575 42.848 166.495 42.552 166.495 42.232C166.511 41.912 166.615 41.608 166.807 41.32C167.015 41.032 167.327 40.808 167.743 40.648C168.511 40.36 169.215 40.168 169.855 40.072C170.511 39.976 171.111 39.928 171.655 39.928C172.967 39.928 174.047 40.12 174.895 40.504C175.759 40.872 176.399 41.448 176.815 42.232C177.247 43 177.463 43.992 177.463 45.208V50.056C177.463 50.76 177.295 51.296 176.959 51.664C176.623 52.032 176.135 52.216 175.495 52.216C174.839 52.216 174.335 52.032 173.983 51.664C173.647 51.296 173.479 50.76 173.479 50.056V49.432L173.623 49.768C173.543 50.28 173.359 50.72 173.071 51.088C172.783 51.456 172.407 51.744 171.943 51.952C171.479 52.16 170.951 52.264 170.359 52.264ZM182.799 52.216C182.095 52.216 181.551 52.032 181.167 51.664C180.799 51.296 180.615 50.76 180.615 50.056V42.112C180.615 41.424 180.791 40.896 181.143 40.528C181.511 40.16 182.031 39.976 182.703 39.976C183.375 39.976 183.887 40.16 184.239 40.528C184.591 40.896 184.767 41.424 184.767 42.112V43.096H184.527C184.687 42.136 185.095 41.376 185.751 40.816C186.423 40.256 187.255 39.96 188.247 39.928C188.711 39.912 189.055 40.032 189.279 40.288C189.519 40.528 189.647 40.984 189.663 41.656C189.663 42.232 189.543 42.688 189.303 43.024C189.063 43.36 188.607 43.56 187.935 43.624L187.383 43.672C186.535 43.752 185.919 43.992 185.535 44.392C185.151 44.776 184.959 45.352 184.959 46.12V50.056C184.959 50.76 184.775 51.296 184.407 51.664C184.039 52.032 183.503 52.216 182.799 52.216ZM200.409 52.216C199.913 52.216 199.497 52.104 199.161 51.88C198.825 51.64 198.617 51.32 198.537 50.92C198.457 50.504 198.529 50.04 198.753 49.528L204.729 36.664C205.017 36.04 205.369 35.584 205.785 35.296C206.217 35.008 206.705 34.864 207.249 34.864C207.793 34.864 208.265 35.008 208.665 35.296C209.081 35.584 209.441 36.04 209.745 36.664L215.721 49.528C215.977 50.04 216.065 50.504 215.985 50.92C215.921 51.336 215.721 51.656 215.385 51.88C215.065 52.104 214.665 52.216 214.185 52.216C213.545 52.216 213.049 52.072 212.697 51.784C212.361 51.496 212.057 51.032 211.785 50.392L210.489 47.344L212.169 48.568H202.281L203.985 47.344L202.689 50.392C202.401 51.032 202.105 51.496 201.801 51.784C201.497 52.072 201.033 52.216 200.409 52.216ZM207.201 39.688L204.417 46.336L203.745 45.184H210.729L210.057 46.336L207.249 39.688H207.201ZM224.092 56.584C223.212 56.584 222.388 56.52 221.62 56.392C220.852 56.28 220.188 56.112 219.628 55.888C219.164 55.728 218.836 55.496 218.644 55.192C218.452 54.888 218.364 54.568 218.38 54.232C218.396 53.896 218.484 53.592 218.644 53.32C218.82 53.048 219.052 52.848 219.34 52.72C219.628 52.608 219.948 52.616 220.3 52.744C221.004 53.032 221.644 53.216 222.22 53.296C222.796 53.392 223.284 53.44 223.684 53.44C224.66 53.44 225.388 53.232 225.868 52.816C226.364 52.416 226.612 51.784 226.612 50.92V49.408H226.804C226.564 50.08 226.076 50.632 225.34 51.064C224.604 51.48 223.804 51.688 222.94 51.688C221.884 51.688 220.964 51.448 220.18 50.968C219.396 50.472 218.78 49.784 218.332 48.904C217.9 48.024 217.684 46.992 217.684 45.808C217.684 44.912 217.812 44.104 218.068 43.384C218.324 42.664 218.676 42.048 219.124 41.536C219.588 41.024 220.14 40.632 220.78 40.36C221.436 40.072 222.156 39.928 222.94 39.928C223.836 39.928 224.636 40.136 225.34 40.552C226.06 40.968 226.54 41.512 226.78 42.184L226.54 43.168V42.112C226.54 41.424 226.724 40.896 227.092 40.528C227.476 40.16 228.004 39.976 228.676 39.976C229.348 39.976 229.86 40.16 230.212 40.528C230.58 40.896 230.764 41.424 230.764 42.112V50.416C230.764 52.464 230.188 54 229.036 55.024C227.884 56.064 226.236 56.584 224.092 56.584ZM224.26 48.544C224.74 48.544 225.148 48.44 225.484 48.232C225.82 48.008 226.084 47.696 226.276 47.296C226.468 46.88 226.564 46.384 226.564 45.808C226.564 44.944 226.356 44.272 225.94 43.792C225.524 43.312 224.964 43.072 224.26 43.072C223.812 43.072 223.412 43.184 223.06 43.408C222.708 43.616 222.436 43.928 222.244 44.344C222.068 44.744 221.98 45.232 221.98 45.808C221.98 46.672 222.188 47.344 222.604 47.824C223.02 48.304 223.572 48.544 224.26 48.544ZM239.956 52.264C238.644 52.264 237.5 52.016 236.524 51.52C235.548 51.024 234.788 50.312 234.244 49.384C233.7 48.456 233.428 47.36 233.428 46.096C233.428 45.136 233.58 44.28 233.884 43.528C234.188 42.76 234.628 42.112 235.204 41.584C235.78 41.04 236.468 40.632 237.268 40.36C238.068 40.072 238.964 39.928 239.956 39.928C241.268 39.928 242.412 40.176 243.388 40.672C244.364 41.168 245.116 41.88 245.644 42.808C246.188 43.72 246.46 44.816 246.46 46.096C246.46 47.04 246.308 47.896 246.004 48.664C245.7 49.432 245.26 50.088 244.684 50.632C244.124 51.16 243.436 51.568 242.62 51.856C241.82 52.128 240.932 52.264 239.956 52.264ZM239.956 49.12C240.388 49.12 240.772 49.016 241.108 48.808C241.444 48.584 241.7 48.256 241.876 47.824C242.068 47.376 242.164 46.8 242.164 46.096C242.164 45.024 241.956 44.256 241.54 43.792C241.124 43.312 240.596 43.072 239.956 43.072C239.524 43.072 239.14 43.176 238.804 43.384C238.468 43.592 238.204 43.92 238.012 44.368C237.82 44.8 237.724 45.376 237.724 46.096C237.724 47.152 237.932 47.92 238.348 48.4C238.764 48.88 239.3 49.12 239.956 49.12ZM251.321 52.216C250.617 52.216 250.073 52.032 249.689 51.664C249.321 51.296 249.137 50.76 249.137 50.056V42.112C249.137 41.424 249.313 40.896 249.665 40.528C250.033 40.16 250.553 39.976 251.225 39.976C251.897 39.976 252.409 40.16 252.761 40.528C253.113 40.896 253.289 41.424 253.289 42.112V43.096H253.049C253.209 42.136 253.617 41.376 254.273 40.816C254.945 40.256 255.777 39.96 256.769 39.928C257.233 39.912 257.577 40.032 257.801 40.288C258.041 40.528 258.169 40.984 258.185 41.656C258.185 42.232 258.065 42.688 257.825 43.024C257.585 43.36 257.129 43.56 256.457 43.624L255.905 43.672C255.057 43.752 254.441 43.992 254.057 44.392C253.673 44.776 253.481 45.352 253.481 46.12V50.056C253.481 50.76 253.297 51.296 252.929 51.664C252.561 52.032 252.025 52.216 251.321 52.216ZM264.25 52.264C263.338 52.264 262.53 52.096 261.826 51.76C261.138 51.424 260.594 50.968 260.194 50.392C259.81 49.8 259.618 49.128 259.618 48.376C259.618 47.512 259.842 46.832 260.29 46.336C260.738 45.84 261.458 45.488 262.45 45.28C263.442 45.056 264.762 44.944 266.41 44.944H267.73V46.96H266.41C265.786 46.96 265.266 47.008 264.85 47.104C264.45 47.184 264.154 47.32 263.962 47.512C263.77 47.688 263.674 47.92 263.674 48.208C263.674 48.576 263.802 48.88 264.058 49.12C264.33 49.36 264.714 49.48 265.21 49.48C265.61 49.48 265.962 49.392 266.266 49.216C266.586 49.04 266.842 48.8 267.034 48.496C267.226 48.176 267.322 47.808 267.322 47.392V44.608C267.322 44.032 267.17 43.624 266.866 43.384C266.578 43.144 266.074 43.024 265.354 43.024C264.97 43.024 264.538 43.072 264.058 43.168C263.578 43.248 263.042 43.4 262.45 43.624C262.018 43.784 261.65 43.808 261.346 43.696C261.042 43.584 260.802 43.392 260.626 43.12C260.466 42.848 260.386 42.552 260.386 42.232C260.402 41.912 260.506 41.608 260.698 41.32C260.906 41.032 261.218 40.808 261.634 40.648C262.402 40.36 263.106 40.168 263.746 40.072C264.402 39.976 265.002 39.928 265.546 39.928C266.858 39.928 267.938 40.12 268.786 40.504C269.65 40.872 270.29 41.448 270.706 42.232C271.138 43 271.354 43.992 271.354 45.208V50.056C271.354 50.76 271.186 51.296 270.85 51.664C270.514 52.032 270.026 52.216 269.386 52.216C268.73 52.216 268.226 52.032 267.874 51.664C267.538 51.296 267.37 50.76 267.37 50.056V49.432L267.514 49.768C267.434 50.28 267.25 50.72 266.962 51.088C266.674 51.456 266.298 51.744 265.834 51.952C265.37 52.16 264.842 52.264 264.25 52.264Z" fill="#002A64"/>
</g>
<defs>
<clipPath id="clip0_567_3168">
<rect width="356" height="87" rx="24" fill="white"/>
</clipPath>
</defs>
</svg>
