<svg width="42" height="17" viewBox="0 0 42 17" fill="none" xmlns="http://www.w3.org/2000/svg">
<g clip-path="url(#clip0_567_3242)">
<path d="M6.54634 3.74035C7.03044 3.57065 7.53748 3.48456 8.04776 3.48543C10.3379 3.48543 12.25 5.19665 12.6879 7.4712L15.9344 6.77455C15.1893 2.90907 11.9421 3.01161e-06 8.04776 3.01161e-06C7.18047 -0.000766948 6.31878 0.146106 5.49609 0.434927L6.54634 3.74035Z" fill="white"/>
<path d="M2.71614 14.8085L4.91154 12.1974C3.93159 11.2841 3.31324 9.95118 3.31324 8.46613C3.31324 6.98222 3.93069 5.64992 4.91006 4.7377L2.7145 2.12634C1.05016 3.6774 0 5.94306 0 8.46613C0 10.9908 1.05057 13.2571 2.71614 14.8085Z" fill="white"/>
<path d="M12.69 9.46558C12.2501 11.739 10.3401 13.4469 8.05063 13.4469C7.52522 13.4469 7.01933 13.3578 6.54782 13.1911L5.49609 16.4979C6.29828 16.7795 7.15723 16.9321 8.05063 16.9321C11.9412 16.9321 15.1881 14.0279 15.936 10.1659L12.69 9.46558Z" fill="white"/>
<path d="M18.7748 12.3074C18.6684 12.1262 18.5238 11.8363 18.4369 11.623C17.9228 10.3674 17.8982 9.06804 18.3323 7.82074C18.8097 6.4528 19.7215 5.40553 20.8998 4.87232C22.381 4.20173 24.0192 4.33393 25.4389 5.22009C26.3407 5.76434 26.9801 6.60468 27.4655 7.79278L27.5106 7.90833L27.5946 8.13787C27.6081 8.17498 27.6215 8.21082 27.6347 8.2454L18.7748 12.3074ZM21.7333 6.8879C20.6814 7.36347 20.1392 8.4015 20.2506 9.6186L24.7065 7.60121C23.9402 6.65378 22.9429 6.33984 21.7333 6.8879ZM26.9844 12.4888L25.2621 11.2773L25.2596 11.28L25.1674 11.2146C24.9016 11.6685 24.4866 12.0361 23.9631 12.2749C22.9671 12.7305 22.0441 12.6134 21.3813 12.0019L21.3203 12.0994C21.3197 12.0983 21.3195 12.0974 21.3184 12.0974L20.188 13.8765C20.4692 14.0821 20.7703 14.2556 21.0864 14.3943C22.3351 14.9399 23.6128 14.9147 24.8715 14.3388C25.7819 13.9237 26.4963 13.2909 26.9844 12.4887M30.7315 2.25208V12.1431L32.1932 12.7664L31.3626 14.8052L29.749 14.0984C29.3868 13.9335 29.1404 13.6809 28.9537 13.396C28.7753 13.1055 28.6418 12.7068 28.6418 12.1701V2.25216L30.7315 2.25208ZM34.5184 9.62334C34.5192 8.78111 34.8728 8.02578 35.4323 7.51241L33.9325 5.75321C32.9153 6.699 32.2746 8.08109 32.2735 9.62093C32.2718 11.1613 32.9115 12.5448 33.9276 13.493L35.4257 11.7321C34.8689 11.2168 34.5178 10.4637 34.5184 9.62334ZM37.1831 12.4308C36.8878 12.4299 36.6034 12.3786 36.3382 12.2857L35.622 14.5259C36.1244 14.7031 36.6508 14.7936 37.1807 14.7939C39.5555 14.7963 41.5383 13.0239 41.9978 10.6676L39.7963 10.1947C39.546 11.4719 38.4709 12.4316 37.1831 12.4308ZM37.1897 4.45811C36.6604 4.45706 36.1345 4.54611 35.6323 4.72182L36.3423 6.9641C36.615 6.86914 36.9003 6.82072 37.1876 6.82067C38.4784 6.82197 39.5542 7.78743 39.7986 9.06821L42.0003 8.59851C41.5472 6.23879 39.5662 4.45974 37.1896 4.45819" fill="white"/>
</g>
<defs>
<clipPath id="clip0_567_3242">
<rect width="42" height="17" fill="white"/>
</clipPath>
</defs>
</svg>
