<svg width="79" height="56" viewBox="0 0 79 56" fill="none" xmlns="http://www.w3.org/2000/svg">
<mask id="path-1-inside-1_366_2184" fill="white">
<path fill-rule="evenodd" clip-rule="evenodd" d="M19.4153 20.3501C19.6703 20.8929 19.9981 21.3965 20.3865 21.8488C20.384 21.9084 20.3824 21.9682 20.3817 22.0282L20.3686 22.0248C20.3194 22.0118 20.2699 21.9995 20.2202 21.9878C19.7856 21.8854 19.332 21.8304 18.8655 21.8287L18.8651 21.8287L18.8434 21.8286C18.7294 21.8286 18.6162 21.8318 18.5038 21.8381C15.4346 22.0097 13 24.4918 13 27.5287C13 27.6026 13.0014 27.6761 13.0043 27.7493C13.0472 28.8475 13.4085 29.866 14.0008 30.7197C14.2917 31.139 14.6384 31.5185 15.0304 31.848C14.5911 32.1153 14.2047 32.4577 13.8902 32.8567C13.3319 33.565 13 34.4519 13 35.4144C13 37.734 14.9277 39.6144 17.3057 39.6144C17.9772 39.6144 18.6128 39.4645 19.1792 39.197C19.2581 39.1598 19.3356 39.1203 19.4116 39.0786L19.4116 39.0786L19.4211 39.0966C19.4687 39.1866 19.5187 39.275 19.5711 39.3617C20.4716 40.8518 22.0719 41.843 23.896 41.843C25.1544 41.843 26.3064 41.3712 27.1954 40.5894C29.7795 44.9675 34.586 47.91 40.0886 47.91C46.1467 47.91 51.361 44.3433 53.6948 39.2209C54.7664 40.4329 56.3522 41.2002 58.1217 41.2002C61.3489 41.2002 63.9651 38.6482 63.9651 35.5001C63.9651 34.8532 63.8546 34.2314 63.651 33.6518C64.8405 32.6923 65.5999 31.2327 65.5999 29.598C65.5999 26.8973 63.5273 24.6745 60.8667 24.3955C60.8819 24.1918 60.8896 23.9861 60.8896 23.7786C60.8896 19.1513 57.044 15.4 52.3002 15.4C50.9303 15.4 49.6352 15.7129 48.4861 16.2693C47.8645 16.5703 47.2856 16.9426 46.7606 17.3752C46.921 16.7353 47.006 16.0666 47.006 15.3786L47.006 15.3638L47.006 15.3614C46.9965 10.7419 43.1545 7 38.4166 7C35.1893 7 32.3777 8.73626 30.9099 11.3034C30.6508 11.7567 30.4335 12.2359 30.2632 12.736C29.8766 12.3828 29.4478 12.0732 28.9848 11.815C27.9899 11.26 26.8377 10.9429 25.6095 10.9429C21.8484 10.9429 18.7995 13.917 18.7995 17.5858C18.7995 18.5722 19.0199 19.5084 19.4153 20.3501ZM53.4358 32.0941C53.0768 32.5633 52.7901 33.0883 52.5918 33.6532C52.3886 34.2324 52.2783 34.8537 52.2783 35.5001C52.2783 35.8936 52.3191 36.2778 52.397 36.6489C52.4687 36.9909 52.5719 37.3218 52.7034 37.6385C50.8526 42.7513 45.9033 46.4099 40.0886 46.4099C34.9429 46.4099 30.4751 43.5449 28.2324 39.3425C28.7143 38.5374 28.9925 37.5881 28.9925 36.5716C28.9925 35.0676 28.3835 33.7107 27.4068 32.7503C27.467 32.4206 27.4987 32.0789 27.4987 31.7287L27.4987 31.7253C27.4987 31.6633 27.4976 31.6014 27.4956 31.5399C27.4762 30.947 27.366 30.3806 27.1804 29.8585C27.2488 29.8827 27.3175 29.9065 27.3866 29.9299C27.87 30.0934 28.371 30.2354 28.8869 30.3543C30.1021 30.6343 31.4003 30.7858 32.749 30.7858C33.0078 30.7858 33.2647 30.7802 33.5196 30.7693C37.3426 30.6043 40.6959 29.2207 42.8003 27.1652C43.244 26.7318 43.6322 26.2685 43.9576 25.7805C43.9668 25.8173 43.9763 25.8539 43.986 25.8904C44.1319 26.4386 44.3333 26.9649 44.5839 27.4634C45.8862 30.0534 48.5185 31.8916 51.6124 32.1308C51.8393 32.1483 52.0687 32.1573 52.3002 32.1573L52.3729 32.157C52.7326 32.1541 53.0871 32.1296 53.435 32.0848C53.4353 32.0879 53.4355 32.091 53.4358 32.0941Z"/>
</mask>
<path d="M20.3865 21.8488L22.3848 21.9321C22.4059 21.4257 22.234 20.9303 21.9039 20.5458L20.3865 21.8488ZM19.4153 20.3501L21.2255 19.4997L21.2255 19.4997L19.4153 20.3501ZM20.3817 22.0282L19.8707 23.9618C20.4663 24.1192 21.1013 23.9933 21.5918 23.6205C22.0823 23.2477 22.3737 22.6697 22.3815 22.0536L20.3817 22.0282ZM20.3686 22.0248L20.8796 20.0911L20.8774 20.0905L20.3686 22.0248ZM20.2202 21.9878L19.7616 23.9345L19.7616 23.9345L20.2202 21.9878ZM18.8655 21.8287L18.8727 19.8287L18.87 19.8287L18.8655 21.8287ZM18.8651 21.8287L18.8696 19.8287L18.8686 19.8287L18.8651 21.8287ZM18.8434 21.8286L18.8469 19.8286H18.8434V21.8286ZM18.5038 21.8381L18.3922 19.8412L18.3922 19.8412L18.5038 21.8381ZM13.0043 27.7493L11.0058 27.8273L13.0043 27.7493ZM14.0008 30.7197L12.3576 31.8598L12.3576 31.8598L14.0008 30.7197ZM15.0304 31.848L16.0698 33.5567C16.6201 33.222 16.9755 32.6427 17.0246 32.0005C17.0737 31.3582 16.8104 30.7317 16.3174 30.3172L15.0304 31.848ZM13.8902 32.8567L15.4609 34.0947L15.4609 34.0947L13.8902 32.8567ZM19.1792 39.197L20.0332 41.0056L20.0332 41.0055L19.1792 39.197ZM19.4116 39.0786L20.3729 40.8325L20.3778 40.8298L19.4116 39.0786ZM19.4116 39.0786L21.1817 38.1475C20.9315 37.6719 20.5005 37.317 19.9858 37.1628C19.4711 37.0085 18.916 37.0679 18.4455 37.3275L19.4116 39.0786ZM19.4211 39.0966L17.6511 40.0278L17.6529 40.0312L19.4211 39.0966ZM19.5711 39.3617L17.8594 40.3961L17.8594 40.3961L19.5711 39.3617ZM27.1954 40.5894L28.9178 39.5728C28.6149 39.0596 28.0989 38.7082 27.5104 38.6143C26.9219 38.5205 26.3222 38.694 25.8747 39.0875L27.1954 40.5894ZM53.6948 39.2209L55.1932 37.8962C54.7445 37.3887 54.0694 37.1428 53.3995 37.2429C52.7295 37.3429 52.1557 37.7753 51.8748 38.3917L53.6948 39.2209ZM63.651 33.6518L62.3954 32.0951C61.7363 32.6266 61.4834 33.5157 61.764 34.3145L63.651 33.6518ZM60.8667 24.3955L58.8722 24.2467C58.7918 25.3249 59.5828 26.2718 60.6581 26.3846L60.8667 24.3955ZM48.4861 16.2693L49.3577 18.0694L49.3577 18.0694L48.4861 16.2693ZM46.7606 17.3752L44.8206 16.889C44.6107 17.7267 44.9622 18.6045 45.6922 19.0659C46.4223 19.5272 47.366 19.4679 48.0325 18.9187L46.7606 17.3752ZM47.006 15.3786H49.006V15.3771L47.006 15.3786ZM47.006 15.3638L49.006 15.3622L49.006 15.3606L47.006 15.3638ZM47.006 15.3614L49.006 15.3582V15.3573L47.006 15.3614ZM30.9099 11.3034L29.1737 10.3108V10.3108L30.9099 11.3034ZM30.2632 12.736L28.9144 14.2126C29.4126 14.6678 30.1068 14.8409 30.7604 14.6732C31.4141 14.5054 31.939 14.0194 32.1565 13.3805L30.2632 12.736ZM28.9848 11.815L29.9591 10.0683L29.9591 10.0683L28.9848 11.815ZM52.5918 33.6532L54.479 34.3155L54.479 34.3155L52.5918 33.6532ZM53.4358 32.0941L55.0242 33.3094C55.3259 32.9151 55.4702 32.4226 55.4288 31.9277L53.4358 32.0941ZM52.397 36.6489L50.4396 37.0595V37.0595L52.397 36.6489ZM52.7034 37.6385L54.5839 38.3192C54.754 37.8494 54.7421 37.333 54.5505 36.8716L52.7034 37.6385ZM28.2324 39.3425L26.5163 38.3153C26.1558 38.9176 26.1375 39.6648 26.468 40.2841L28.2324 39.3425ZM27.4068 32.7503L25.4393 32.3908C25.3202 33.0429 25.5319 33.7117 26.0046 34.1764L27.4068 32.7503ZM27.4987 31.7287H29.4987V31.7281L27.4987 31.7287ZM27.4987 31.7253L29.4987 31.7248V31.7242L27.4987 31.7253ZM27.4956 31.5399L29.4945 31.4746L29.4945 31.4746L27.4956 31.5399ZM27.1804 29.8585L27.8486 27.9734C27.1214 27.7157 26.3108 27.8991 25.7656 28.4449C25.2203 28.9907 25.0375 29.8014 25.2959 30.5284L27.1804 29.8585ZM27.3866 29.9299L28.0272 28.0353L28.0272 28.0352L27.3866 29.9299ZM28.8869 30.3543L29.3361 28.4054L29.3361 28.4054L28.8869 30.3543ZM33.5196 30.7693L33.6058 32.7674H33.6058L33.5196 30.7693ZM42.8003 27.1652L44.1978 28.596L44.1978 28.596L42.8003 27.1652ZM43.9576 25.7805L45.8973 25.2931C45.7044 24.5257 45.0774 23.9442 44.2977 23.8097C43.5181 23.6751 42.7324 24.0128 42.2935 24.6711L43.9576 25.7805ZM43.986 25.8904L45.9187 25.376L45.9187 25.3759L43.986 25.8904ZM44.5839 27.4634L42.797 28.3618L42.7971 28.3618L44.5839 27.4634ZM51.6124 32.1308L51.4582 34.1248H51.4582L51.6124 32.1308ZM52.3002 32.1573V34.1573L52.3083 34.1572L52.3002 32.1573ZM52.3729 32.157L52.3809 34.157L52.389 34.1569L52.3729 32.157ZM53.435 32.0848L55.4281 31.9184C55.3826 31.3743 55.1168 30.8725 54.6922 30.5293C54.2676 30.1861 53.7211 30.0314 53.1796 30.1012L53.435 32.0848ZM21.9039 20.5458C21.631 20.228 21.4024 19.8763 21.2255 19.4997L17.6051 21.2005C17.9382 21.9096 18.3653 22.5649 18.8692 23.1517L21.9039 20.5458ZM22.3815 22.0536C22.382 22.013 22.3831 21.9725 22.3848 21.9321L18.3883 21.7655C18.385 21.8444 18.3828 21.9235 18.3818 22.0028L22.3815 22.0536ZM19.8576 23.9584L19.8707 23.9618L20.8926 20.0946L20.8796 20.0911L19.8576 23.9584ZM19.7616 23.9345C19.7945 23.9422 19.8272 23.9504 19.8599 23.959L20.8774 20.0905C20.8116 20.0732 20.7453 20.0567 20.6788 20.041L19.7616 23.9345ZM18.8583 23.8287C19.1718 23.8298 19.474 23.8667 19.7616 23.9345L20.6788 20.0411C20.0971 19.904 19.4921 19.8309 18.8727 19.8287L18.8583 23.8287ZM18.8606 23.8287H18.861L18.87 19.8287L18.8696 19.8287L18.8606 23.8287ZM18.8399 23.8286L18.8616 23.8287L18.8686 19.8287L18.8469 19.8286L18.8399 23.8286ZM18.6154 23.835C18.6907 23.8308 18.7667 23.8286 18.8434 23.8286V19.8286C18.6922 19.8286 18.5417 19.8329 18.3922 19.8412L18.6154 23.835ZM15 27.5287C15 25.6018 16.5564 23.9501 18.6154 23.835L18.3922 19.8412C14.3128 20.0692 11 23.3819 11 27.5287H15ZM15.0028 27.6713C15.0009 27.6241 15 27.5765 15 27.5287H11C11 27.6286 11.0019 27.7281 11.0058 27.8273L15.0028 27.6713ZM15.644 29.5795C15.2604 29.0267 15.0302 28.3743 15.0028 27.6713L11.0058 27.8273C11.0641 29.3207 11.5566 30.7054 12.3576 31.8598L15.644 29.5795ZM16.3174 30.3172C16.0596 30.1004 15.833 29.852 15.644 29.5795L12.3576 31.8598C12.7504 32.426 13.2172 32.9365 13.7433 33.3789L16.3174 30.3172ZM15.4609 34.0947C15.6271 33.884 15.8332 33.7007 16.0698 33.5567L13.9909 30.1394C13.3489 30.53 12.7823 31.0314 12.3194 31.6187L15.4609 34.0947ZM15 35.4144C15 34.9211 15.168 34.4664 15.4609 34.0947L12.3194 31.6187C11.4958 32.6636 11 33.9827 11 35.4144H15ZM17.3057 37.6144C15.9852 37.6144 15 36.5829 15 35.4144H11C11 38.8851 13.8703 41.6144 17.3057 41.6144V37.6144ZM18.3253 37.3885C18.0214 37.532 17.677 37.6144 17.3057 37.6144V41.6144C18.2774 41.6144 19.2042 41.397 20.0332 41.0056L18.3253 37.3885ZM18.4503 37.3248C18.4095 37.3472 18.3678 37.3684 18.3253 37.3885L20.0332 41.0055C20.1484 40.9512 20.2616 40.8934 20.3729 40.8325L18.4503 37.3248ZM18.4455 37.3275L18.4455 37.3275L20.3778 40.8298L20.3778 40.8298L18.4455 37.3275ZM21.1911 38.1655L21.1817 38.1475L17.6416 40.0098L17.6511 40.0278L21.1911 38.1655ZM21.2828 38.3273C21.2502 38.2733 21.219 38.2182 21.1893 38.162L17.6529 40.0312C17.7184 40.1551 17.7872 40.2767 17.8594 40.3961L21.2828 38.3273ZM23.896 39.843C22.8219 39.843 21.8476 39.2619 21.2828 38.3273L17.8594 40.3961C19.0955 42.4417 21.3218 43.843 23.896 43.843V39.843ZM25.8747 39.0875C25.3309 39.5657 24.6426 39.843 23.896 39.843V43.843C25.6663 43.843 27.2818 43.1768 28.5162 42.0912L25.8747 39.0875ZM25.4731 41.6059C28.4064 46.5758 33.8579 49.91 40.0886 49.91V45.91C35.314 45.91 31.1527 43.3592 28.9178 39.5728L25.4731 41.6059ZM40.0886 49.91C46.9479 49.91 52.8635 45.8696 55.5148 40.0501L51.8748 38.3917C49.8586 42.8171 45.3455 45.91 40.0886 45.91V49.91ZM58.1217 39.2002C56.9401 39.2002 55.895 38.69 55.1932 37.8962L52.1965 40.5457C53.6378 42.1759 55.7643 43.2002 58.1217 43.2002V39.2002ZM61.9651 35.5001C61.9651 37.497 60.2915 39.2002 58.1217 39.2002V43.2002C62.4064 43.2002 65.9651 39.7993 65.9651 35.5001H61.9651ZM61.764 34.3145C61.894 34.6846 61.9651 35.0825 61.9651 35.5001H65.9651C65.9651 34.6239 65.8152 33.7782 65.538 32.989L61.764 34.3145ZM63.5999 29.598C63.5999 30.5971 63.1388 31.4955 62.3954 32.0951L64.9067 35.2085C66.5423 33.8892 67.5999 31.8684 67.5999 29.598H63.5999ZM60.6581 26.3846C62.3318 26.5601 63.5999 27.9523 63.5999 29.598H67.5999C67.5999 25.8422 64.7227 22.7889 61.0753 22.4064L60.6581 26.3846ZM58.8896 23.7786C58.8896 23.9364 58.8837 24.0925 58.8722 24.2467L62.8611 24.5443C62.88 24.2911 62.8896 24.0358 62.8896 23.7786H58.8896ZM52.3002 17.4C55.9866 17.4 58.8896 20.3024 58.8896 23.7786H62.8896C62.8896 18.0001 58.1015 13.4 52.3002 13.4V17.4ZM49.3577 18.0694C50.2398 17.6423 51.2374 17.4 52.3002 17.4V13.4C50.6232 13.4 49.0306 13.7835 47.6144 14.4693L49.3577 18.0694ZM48.0325 18.9187C48.4353 18.5868 48.8799 18.3008 49.3577 18.0694L47.6144 14.4693C46.8491 14.8399 46.136 15.2984 45.4888 15.8317L48.0325 18.9187ZM45.006 15.3786C45.006 15.9012 44.9415 16.4067 44.8206 16.889L48.7007 17.8613C48.9005 17.064 49.006 16.2321 49.006 15.3786H45.006ZM45.006 15.3653L45.006 15.3802L49.006 15.3771L49.006 15.3622L45.006 15.3653ZM45.006 15.3647L45.006 15.367L49.006 15.3606L49.006 15.3582L45.006 15.3647ZM38.4166 9C42.0983 9 44.9989 11.8952 45.006 15.3655L49.006 15.3573C48.9941 9.58868 44.2107 5 38.4166 5V9ZM32.6462 12.2961C33.7637 10.3415 35.9187 9 38.4166 9V5C34.4599 5 30.9916 7.13102 29.1737 10.3108L32.6462 12.2961ZM32.1565 13.3805C32.2851 13.003 32.4494 12.6402 32.6462 12.2961L29.1737 10.3108C28.8521 10.8732 28.5819 11.4688 28.37 12.0914L32.1565 13.3805ZM28.0106 13.5616C28.3384 13.7445 28.6416 13.9635 28.9144 14.2126L31.6121 11.2593C31.1116 10.8022 30.5571 10.4018 29.9591 10.0683L28.0106 13.5616ZM25.6095 12.9429C26.4899 12.9429 27.3075 13.1695 28.0106 13.5616L29.9591 10.0683C28.6723 9.35056 27.1855 8.94288 25.6095 8.94288V12.9429ZM20.7995 17.5858C20.7995 15.0681 22.9059 12.9429 25.6095 12.9429V8.94288C20.791 8.94288 16.7995 12.7659 16.7995 17.5858H20.7995ZM21.2255 19.4997C20.952 18.9175 20.7995 18.271 20.7995 17.5858H16.7995C16.7995 18.8734 17.0878 20.0993 17.6051 21.2005L21.2255 19.4997ZM54.479 34.3155C54.6059 33.954 54.7904 33.615 55.0242 33.3094L51.8474 30.8788C51.3632 31.5116 50.9743 32.2226 50.7047 32.991L54.479 34.3155ZM54.2783 35.5001C54.2783 35.0828 54.3492 34.6853 54.479 34.3155L50.7047 32.991C50.4279 33.7796 50.2783 34.6246 50.2783 35.5001H54.2783ZM54.3544 36.2383C54.3047 36.0013 54.2783 35.7547 54.2783 35.5001H50.2783C50.2783 36.0325 50.3336 36.5543 50.4396 37.0595L54.3544 36.2383ZM54.5505 36.8716C54.4662 36.6685 54.4002 36.4568 54.3544 36.2383L50.4396 37.0595C50.5372 37.525 50.6776 37.975 50.8562 38.4053L54.5505 36.8716ZM40.0886 48.4099C46.7589 48.4099 52.4511 44.2111 54.5839 38.3192L50.8228 36.9577C49.254 41.2914 45.0478 44.4099 40.0886 44.4099V48.4099ZM26.468 40.2841C29.049 45.1206 34.1849 48.4099 40.0886 48.4099V44.4099C35.701 44.4099 31.9012 41.9692 29.9969 38.4009L26.468 40.2841ZM26.9925 36.5716C26.9925 37.2195 26.816 37.8147 26.5163 38.3153L29.9485 40.3696C30.6127 39.26 30.9925 37.9567 30.9925 36.5716H26.9925ZM26.0046 34.1764C26.6071 34.7689 26.9925 35.6152 26.9925 36.5716H30.9925C30.9925 34.5199 30.16 32.6525 28.809 31.3242L26.0046 34.1764ZM25.4987 31.7287C25.4987 31.9582 25.4779 32.1795 25.4393 32.3908L29.3742 33.1098C29.4561 32.6616 29.4987 32.1996 29.4987 31.7287H25.4987ZM25.4987 31.7259L25.4987 31.7293L29.4987 31.7281L29.4987 31.7248L25.4987 31.7259ZM25.4967 31.6052C25.498 31.6454 25.4987 31.6858 25.4987 31.7265L29.4987 31.7242C29.4986 31.6407 29.4972 31.5575 29.4945 31.4746L25.4967 31.6052ZM25.2959 30.5284C25.4124 30.856 25.484 31.2184 25.4967 31.6052L29.4945 31.4746C29.4684 30.6756 29.3197 29.9053 29.0649 29.1886L25.2959 30.5284ZM28.0272 28.0352C27.9673 28.015 27.9078 27.9944 27.8486 27.9734L26.5123 31.7436C26.5898 31.771 26.6676 31.798 26.7459 31.8245L28.0272 28.0352ZM29.3361 28.4054C28.8837 28.3012 28.4467 28.1771 28.0272 28.0353L26.7459 31.8245C27.2934 32.0096 27.8583 32.1697 28.4378 32.3032L29.3361 28.4054ZM32.749 28.7858C31.5495 28.7858 30.402 28.651 29.3361 28.4054L28.4378 32.3032C29.8022 32.6177 31.2512 32.7858 32.749 32.7858V28.7858ZM33.4334 28.7711C33.2073 28.7809 32.979 28.7858 32.749 28.7858V32.7858C33.0365 32.7858 33.3222 32.7796 33.6058 32.7674L33.4334 28.7711ZM41.4028 25.7345C39.714 27.384 36.8606 28.6233 33.4334 28.7711L33.6058 32.7674C37.8246 32.5854 41.6777 31.0575 44.1978 28.596L41.4028 25.7345ZM42.2935 24.6711C42.0512 25.0345 41.7543 25.3912 41.4028 25.7345L44.1978 28.596C44.7337 28.0725 45.2132 27.5026 45.6216 26.89L42.2935 24.6711ZM45.9187 25.3759C45.9114 25.3484 45.9042 25.3208 45.8973 25.2931L42.0179 26.268C42.0294 26.3137 42.0412 26.3594 42.0533 26.4049L45.9187 25.3759ZM46.3708 26.565C46.1809 26.1873 46.0288 25.7895 45.9187 25.376L42.0533 26.4049C42.2351 27.0877 42.4857 27.7425 42.797 28.3618L46.3708 26.565ZM51.7665 30.1367C49.3762 29.952 47.3605 28.5334 46.3708 26.5649L42.7971 28.3618C44.4118 31.5734 47.6609 33.8313 51.4582 34.1248L51.7665 30.1367ZM52.3002 30.1573C52.1202 30.1573 51.9422 30.1503 51.7665 30.1367L51.4582 34.1248C51.7364 34.1463 52.0172 34.1573 52.3002 34.1573V30.1573ZM52.3648 30.157L52.2921 30.1573L52.3083 34.1572L52.3809 34.1569L52.3648 30.157ZM53.1796 30.1012C52.9109 30.1358 52.6363 30.1548 52.3567 30.157L52.389 34.1569C52.8289 34.1533 53.2633 34.1234 53.6904 34.0684L53.1796 30.1012ZM55.4288 31.9277C55.4288 31.9269 55.4287 31.9259 55.4286 31.9243C55.4284 31.9228 55.4283 31.9207 55.4281 31.9184L51.4419 32.2512C51.442 32.252 51.4421 32.253 51.4422 32.2546C51.4423 32.2561 51.4425 32.2582 51.4427 32.2605L55.4288 31.9277Z" fill="white" mask="url(#path-1-inside-1_366_2184)"/>
</svg>
