<svg width="366" height="105" viewBox="0 0 366 105" fill="none" xmlns="http://www.w3.org/2000/svg">
<path fill-rule="evenodd" clip-rule="evenodd" d="M223.496 16.8801L223.319 16.7725C217.408 6.7356 206.491 0 194 0C182.805 0 172.873 5.41089 166.678 13.7603C158.742 7.64014 148.796 4 138 4C128.11 4 118.933 7.05469 111.362 12.2722C104.252 7.0708 95.4846 4 86 4C75.4581 4 65.8022 7.7937 58.323 14.0901C52.4859 7.87915 44.196 4 35 4C17.3269 4 3 18.3269 3 36C3 38.7271 3.34109 41.374 3.98294 43.9014C1.42688 49.4023 0 55.5347 0 62C0 85.7483 19.2518 105 43 105C55.7091 105 67.1305 99.4863 75.0025 90.7205C79.7087 93.4421 85.1725 95 91 95C96.5564 95 101.782 93.5837 106.336 91.0928C114.195 99.6421 125.472 105 138 105C149.799 105 160.488 100.248 168.258 92.5527C176.499 99.6851 187.246 104 199 104C207.975 104 216.362 101.484 223.495 97.1199C228.305 98.98 233.534 100 239 100C248.324 100 256.955 97.0322 264 91.9897C271.045 97.0322 279.676 100 289 100C295.038 100 300.786 98.7554 306 96.5088C311.214 98.7554 316.962 100 323 100C346.748 100 366 80.7483 366 57C366 35.3123 349.944 17.3745 329.07 14.425C321.538 7.92822 311.728 4 301 4C293.986 4 287.365 5.6792 281.516 8.65747C278.204 7.58154 274.67 7 271 7C263.01 7 255.664 9.7561 249.86 14.3696C246.555 12.8484 242.877 12 239 12C233.508 12 228.415 13.7024 224.217 16.6084C223.976 16.6968 223.735 16.7876 223.496 16.8801Z" fill="#FF188A"/>
</svg>
