<svg width="366" height="105" viewBox="0 0 366 105" fill="none" xmlns="http://www.w3.org/2000/svg">
<path fill-rule="evenodd" clip-rule="evenodd" d="M194 0C182.805 0 172.873 5.41094 166.678 13.7603C158.742 7.64023 148.796 4 138 4C128.11 4 118.933 7.05479 111.362 12.2723C104.252 7.07075 95.4846 4 86 4C75.4581 4 65.8022 7.79357 58.323 14.0901C52.4859 7.87901 44.196 4 35 4C17.3269 4 3 18.3269 3 36C3 38.7269 3.3411 41.3742 3.98295 43.9015C1.4269 49.4026 0 55.5346 0 62C0 85.7482 19.2518 105 43 105C55.7092 105 67.1306 99.4863 75.0026 90.7205C79.7088 93.4423 85.1725 95 91 95C96.5564 95 101.782 93.5838 106.336 91.0928C114.195 99.6421 125.472 105 138 105C149.799 105 160.488 100.248 168.258 92.5526C176.499 99.685 187.246 104 199 104C207.975 104 216.362 101.484 223.495 97.1199C228.305 98.98 233.534 100 239 100C248.324 100 256.955 97.0322 264 91.9898C271.045 97.0322 279.676 100 289 100C295.038 100 300.786 98.7554 306 96.5088C311.214 98.7554 316.962 100 323 100C346.748 100 366 80.7482 366 57C366 35.3122 349.944 17.3746 329.07 14.4251C321.538 7.92841 311.728 4 301 4C293.986 4 287.365 5.67917 281.516 8.65741C278.204 7.58151 274.67 7 271 7C263.01 7 255.663 9.75616 249.86 14.3696C246.555 12.8484 242.877 12 239 12C233.509 12 228.415 13.7024 224.218 16.6083C223.976 16.6968 223.735 16.7874 223.495 16.8801C223.469 16.864 223.443 16.8479 223.416 16.8319C223.384 16.812 223.351 16.7922 223.319 16.7724C217.408 6.73542 206.491 0 194 0Z" fill="#FFE5F8"/>
</svg>
