<svg width="204" height="55" viewBox="0 0 204 55" fill="none" xmlns="http://www.w3.org/2000/svg">
<rect width="204" height="55" rx="18" fill="#FFEFF7"/>
<path d="M28.988 37.32C28.0707 37.32 27.1 37.224 26.076 37.032C25.052 36.84 24.1347 36.5093 23.324 36.04C22.9827 35.8267 22.7373 35.5813 22.588 35.304C22.46 35.0053 22.4067 34.7173 22.428 34.44C22.4707 34.1413 22.5773 33.8853 22.748 33.672C22.94 33.4587 23.1747 33.32 23.452 33.256C23.7507 33.192 24.0707 33.2453 24.412 33.416C25.2653 33.8213 26.0653 34.1093 26.812 34.28C27.5587 34.4293 28.2947 34.504 29.02 34.504C30.044 34.504 30.8013 34.3333 31.292 33.992C31.804 33.6293 32.06 33.16 32.06 32.584C32.06 32.0933 31.8893 31.72 31.548 31.464C31.228 31.1867 30.7373 30.984 30.076 30.856L26.876 30.248C25.5533 29.992 24.54 29.512 23.836 28.808C23.1533 28.0827 22.812 27.1547 22.812 26.024C22.812 25 23.0893 24.1147 23.644 23.368C24.22 22.6213 25.0093 22.0453 26.012 21.64C27.0147 21.2347 28.1667 21.032 29.468 21.032C30.4067 21.032 31.2813 21.1387 32.092 21.352C32.924 21.544 33.724 21.8533 34.492 22.28C34.812 22.4507 35.0253 22.6747 35.132 22.952C35.26 23.2293 35.292 23.5173 35.228 23.816C35.164 24.0933 35.036 24.3493 34.844 24.584C34.652 24.7973 34.4067 24.936 34.108 25C33.8307 25.0427 33.5107 24.9787 33.148 24.808C32.4867 24.4667 31.8467 24.2213 31.228 24.072C30.6307 23.9227 30.0547 23.848 29.5 23.848C28.4547 23.848 27.676 24.0293 27.164 24.392C26.6733 24.7547 26.428 25.2347 26.428 25.832C26.428 26.28 26.5773 26.6533 26.876 26.952C27.1747 27.2507 27.6333 27.4533 28.252 27.56L31.452 28.168C32.8387 28.424 33.884 28.8933 34.588 29.576C35.3133 30.2587 35.676 31.176 35.676 32.328C35.676 33.8853 35.068 35.112 33.852 36.008C32.636 36.8827 31.0147 37.32 28.988 37.32ZM44.997 37.32C43.8663 37.32 42.853 37.1067 41.957 36.68C41.0823 36.232 40.389 35.6347 39.877 34.888C39.3863 34.1413 39.141 33.2987 39.141 32.36C39.141 31.208 39.4397 30.3013 40.037 29.64C40.6343 28.9573 41.605 28.4667 42.949 28.168C44.293 27.8693 46.0957 27.72 48.357 27.72H49.957V30.024H48.389C47.0663 30.024 46.0103 30.088 45.221 30.216C44.4317 30.344 43.8663 30.568 43.525 30.888C43.205 31.1867 43.045 31.6133 43.045 32.168C43.045 32.872 43.2903 33.448 43.781 33.896C44.2717 34.344 44.9543 34.568 45.829 34.568C46.533 34.568 47.1517 34.408 47.685 34.088C48.2397 33.7467 48.677 33.288 48.997 32.712C49.317 32.136 49.477 31.4747 49.477 30.728V27.048C49.477 25.9813 49.2423 25.2133 48.773 24.744C48.3037 24.2747 47.5143 24.04 46.405 24.04C45.7863 24.04 45.1143 24.1147 44.389 24.264C43.685 24.4133 42.9383 24.6693 42.149 25.032C41.7437 25.224 41.381 25.2773 41.061 25.192C40.7623 25.1067 40.5277 24.936 40.357 24.68C40.1863 24.4027 40.101 24.104 40.101 23.784C40.101 23.464 40.1863 23.1547 40.357 22.856C40.5277 22.536 40.8157 22.3013 41.221 22.152C42.2023 21.7467 43.141 21.4587 44.037 21.288C44.9543 21.1173 45.7863 21.032 46.533 21.032C48.069 21.032 49.3277 21.2667 50.309 21.736C51.3117 22.2053 52.0583 22.92 52.549 23.88C53.0397 24.8187 53.285 26.0347 53.285 27.528V35.208C53.285 35.8693 53.125 36.3813 52.805 36.744C52.485 37.0853 52.0263 37.256 51.429 37.256C50.8317 37.256 50.3623 37.0853 50.021 36.744C49.701 36.3813 49.541 35.8693 49.541 35.208V33.672H49.797C49.6477 34.4187 49.349 35.0693 48.901 35.624C48.4743 36.1573 47.9303 36.5733 47.269 36.872C46.6077 37.1707 45.8503 37.32 44.997 37.32ZM60.289 37.224C59.649 37.224 59.1583 37.032 58.817 36.648C58.4757 36.264 58.305 35.7307 58.305 35.048V23.304C58.305 22.6 58.4757 22.0667 58.817 21.704C59.1583 21.32 59.649 21.128 60.289 21.128C60.929 21.128 61.4197 21.32 61.761 21.704C62.1237 22.0667 62.305 22.6 62.305 23.304V35.048C62.305 35.7307 62.1343 36.264 61.793 36.648C61.4517 37.032 60.9503 37.224 60.289 37.224ZM60.289 18.152C59.5423 18.152 58.9557 17.9707 58.529 17.608C58.1237 17.224 57.921 16.7013 57.921 16.04C57.921 15.3573 58.1237 14.8347 58.529 14.472C58.9557 14.1093 59.5423 13.928 60.289 13.928C61.057 13.928 61.6437 14.1093 62.049 14.472C62.4543 14.8347 62.657 15.3573 62.657 16.04C62.657 16.7013 62.4543 17.224 62.049 17.608C61.6437 17.9707 61.057 18.152 60.289 18.152ZM76.4453 37.32C75.1226 37.32 73.9599 36.9893 72.9573 36.328C71.9759 35.6667 71.3253 34.7813 71.0053 33.672L71.3573 32.872V35.208C71.3573 35.8693 71.1866 36.3813 70.8453 36.744C70.5039 37.0853 70.0239 37.256 69.4053 37.256C68.7653 37.256 68.2746 37.0853 67.9333 36.744C67.5919 36.3813 67.4213 35.8693 67.4213 35.208V16.2C67.4213 15.5387 67.5919 15.0373 67.9333 14.696C68.2746 14.3547 68.7653 14.184 69.4053 14.184C70.0453 14.184 70.5359 14.3547 70.8773 14.696C71.2399 15.0373 71.4213 15.5387 71.4213 16.2V24.52H71.0373C71.3786 23.4747 72.0399 22.632 73.0213 21.992C74.0026 21.352 75.1439 21.032 76.4453 21.032C77.8319 21.032 79.0373 21.3627 80.0613 22.024C81.0853 22.6853 81.8853 23.624 82.4613 24.84C83.0373 26.0347 83.3253 27.4747 83.3253 29.16C83.3253 30.824 83.0373 32.2747 82.4613 33.512C81.8853 34.728 81.0746 35.6667 80.0293 36.328C79.0053 36.9893 77.8106 37.32 76.4453 37.32ZM75.3253 34.28C76.1146 34.28 76.8079 34.088 77.4053 33.704C78.0026 33.32 78.4613 32.7547 78.7813 32.008C79.1226 31.24 79.2933 30.2907 79.2933 29.16C79.2933 27.4533 78.9306 26.184 78.2053 25.352C77.4799 24.4987 76.5199 24.072 75.3253 24.072C74.5359 24.072 73.8426 24.264 73.2453 24.648C72.6479 25.0107 72.1786 25.576 71.8373 26.344C71.5173 27.0907 71.3573 28.0293 71.3573 29.16C71.3573 30.8453 71.7199 32.1253 72.4453 33C73.1706 33.8533 74.1306 34.28 75.3253 34.28ZM92.7207 37.32C91.5901 37.32 90.5767 37.1067 89.6807 36.68C88.8061 36.232 88.1127 35.6347 87.6007 34.888C87.1101 34.1413 86.8647 33.2987 86.8647 32.36C86.8647 31.208 87.1634 30.3013 87.7607 29.64C88.3581 28.9573 89.3287 28.4667 90.6727 28.168C92.0167 27.8693 93.8194 27.72 96.0807 27.72H97.6807V30.024H96.1127C94.7901 30.024 93.7341 30.088 92.9447 30.216C92.1554 30.344 91.5901 30.568 91.2487 30.888C90.9287 31.1867 90.7687 31.6133 90.7687 32.168C90.7687 32.872 91.0141 33.448 91.5047 33.896C91.9954 34.344 92.6781 34.568 93.5527 34.568C94.2567 34.568 94.8754 34.408 95.4087 34.088C95.9634 33.7467 96.4007 33.288 96.7207 32.712C97.0407 32.136 97.2007 31.4747 97.2007 30.728V27.048C97.2007 25.9813 96.9661 25.2133 96.4967 24.744C96.0274 24.2747 95.2381 24.04 94.1287 24.04C93.5101 24.04 92.8381 24.1147 92.1127 24.264C91.4087 24.4133 90.6621 24.6693 89.8727 25.032C89.4674 25.224 89.1047 25.2773 88.7847 25.192C88.4861 25.1067 88.2514 24.936 88.0807 24.68C87.9101 24.4027 87.8247 24.104 87.8247 23.784C87.8247 23.464 87.9101 23.1547 88.0807 22.856C88.2514 22.536 88.5394 22.3013 88.9447 22.152C89.9261 21.7467 90.8647 21.4587 91.7607 21.288C92.6781 21.1173 93.5101 21.032 94.2567 21.032C95.7927 21.032 97.0514 21.2667 98.0327 21.736C99.0354 22.2053 99.7821 22.92 100.273 23.88C100.763 24.8187 101.009 26.0347 101.009 27.528V35.208C101.009 35.8693 100.849 36.3813 100.529 36.744C100.209 37.0853 99.7501 37.256 99.1527 37.256C98.5554 37.256 98.0861 37.0853 97.7447 36.744C97.4247 36.3813 97.2647 35.8693 97.2647 35.208V33.672H97.5207C97.3714 34.4187 97.0727 35.0693 96.6247 35.624C96.1981 36.1573 95.6541 36.5733 94.9927 36.872C94.3314 37.1707 93.5741 37.32 92.7207 37.32ZM117.724 37.256C117.084 37.256 116.594 37.0853 116.252 36.744C115.911 36.3813 115.74 35.8693 115.74 35.208V23.112C115.74 22.4507 115.911 21.9493 116.252 21.608C116.594 21.2667 117.074 21.096 117.692 21.096C118.311 21.096 118.791 21.2667 119.132 21.608C119.474 21.9493 119.644 22.4507 119.644 23.112V25.448L119.292 24.488C119.719 23.4213 120.38 22.5787 121.276 21.96C122.172 21.3413 123.239 21.032 124.476 21.032C125.735 21.032 126.77 21.3307 127.58 21.928C128.391 22.5253 128.956 23.4427 129.276 24.68H128.828C129.255 23.5493 129.959 22.664 130.94 22.024C131.922 21.3627 133.052 21.032 134.332 21.032C135.527 21.032 136.508 21.2667 137.276 21.736C138.066 22.2053 138.652 22.92 139.036 23.88C139.42 24.8187 139.612 26.0133 139.612 27.464V35.208C139.612 35.8693 139.431 36.3813 139.068 36.744C138.727 37.0853 138.236 37.256 137.596 37.256C136.956 37.256 136.466 37.0853 136.124 36.744C135.783 36.3813 135.612 35.8693 135.612 35.208V27.624C135.612 26.4293 135.41 25.5547 135.004 25C134.62 24.4453 133.959 24.168 133.02 24.168C131.975 24.168 131.154 24.5413 130.556 25.288C129.959 26.0133 129.66 27.0267 129.66 28.328V35.208C129.66 35.8693 129.49 36.3813 129.148 36.744C128.807 37.0853 128.316 37.256 127.676 37.256C127.036 37.256 126.535 37.0853 126.172 36.744C125.831 36.3813 125.66 35.8693 125.66 35.208V27.624C125.66 26.4293 125.458 25.5547 125.052 25C124.668 24.4453 124.018 24.168 123.1 24.168C122.055 24.168 121.234 24.5413 120.636 25.288C120.039 26.0133 119.74 27.0267 119.74 28.328V35.208C119.74 36.5733 119.068 37.256 117.724 37.256ZM149.851 37.32C148.72 37.32 147.707 37.1067 146.811 36.68C145.936 36.232 145.243 35.6347 144.731 34.888C144.24 34.1413 143.995 33.2987 143.995 32.36C143.995 31.208 144.293 30.3013 144.891 29.64C145.488 28.9573 146.459 28.4667 147.803 28.168C149.147 27.8693 150.949 27.72 153.211 27.72H154.811V30.024H153.243C151.92 30.024 150.864 30.088 150.075 30.216C149.285 30.344 148.72 30.568 148.379 30.888C148.059 31.1867 147.899 31.6133 147.899 32.168C147.899 32.872 148.144 33.448 148.635 33.896C149.125 34.344 149.808 34.568 150.683 34.568C151.387 34.568 152.005 34.408 152.539 34.088C153.093 33.7467 153.531 33.288 153.851 32.712C154.171 32.136 154.331 31.4747 154.331 30.728V27.048C154.331 25.9813 154.096 25.2133 153.627 24.744C153.157 24.2747 152.368 24.04 151.259 24.04C150.64 24.04 149.968 24.1147 149.243 24.264C148.539 24.4133 147.792 24.6693 147.003 25.032C146.597 25.224 146.235 25.2773 145.915 25.192C145.616 25.1067 145.381 24.936 145.211 24.68C145.04 24.4027 144.955 24.104 144.955 23.784C144.955 23.464 145.04 23.1547 145.211 22.856C145.381 22.536 145.669 22.3013 146.075 22.152C147.056 21.7467 147.995 21.4587 148.891 21.288C149.808 21.1173 150.64 21.032 151.387 21.032C152.923 21.032 154.181 21.2667 155.163 21.736C156.165 22.2053 156.912 22.92 157.403 23.88C157.893 24.8187 158.139 26.0347 158.139 27.528V35.208C158.139 35.8693 157.979 36.3813 157.659 36.744C157.339 37.0853 156.88 37.256 156.283 37.256C155.685 37.256 155.216 37.0853 154.875 36.744C154.555 36.3813 154.395 35.8693 154.395 35.208V33.672H154.651C154.501 34.4187 154.203 35.0693 153.755 35.624C153.328 36.1573 152.784 36.5733 152.123 36.872C151.461 37.1707 150.704 37.32 149.851 37.32ZM165.143 37.224C164.503 37.224 164.012 37.032 163.671 36.648C163.329 36.264 163.159 35.7307 163.159 35.048V23.304C163.159 22.6 163.329 22.0667 163.671 21.704C164.012 21.32 164.503 21.128 165.143 21.128C165.783 21.128 166.273 21.32 166.615 21.704C166.977 22.0667 167.159 22.6 167.159 23.304V35.048C167.159 35.7307 166.988 36.264 166.647 36.648C166.305 37.032 165.804 37.224 165.143 37.224ZM165.143 18.152C164.396 18.152 163.809 17.9707 163.383 17.608C162.977 17.224 162.775 16.7013 162.775 16.04C162.775 15.3573 162.977 14.8347 163.383 14.472C163.809 14.1093 164.396 13.928 165.143 13.928C165.911 13.928 166.497 14.1093 166.903 14.472C167.308 14.8347 167.511 15.3573 167.511 16.04C167.511 16.7013 167.308 17.224 166.903 17.608C166.497 17.9707 165.911 18.152 165.143 18.152ZM178.003 37.32C177.086 37.32 176.115 37.224 175.091 37.032C174.067 36.84 173.15 36.5093 172.339 36.04C171.998 35.8267 171.752 35.5813 171.603 35.304C171.475 35.0053 171.422 34.7173 171.443 34.44C171.486 34.1413 171.592 33.8853 171.763 33.672C171.955 33.4587 172.19 33.32 172.467 33.256C172.766 33.192 173.086 33.2453 173.427 33.416C174.28 33.8213 175.08 34.1093 175.827 34.28C176.574 34.4293 177.31 34.504 178.035 34.504C179.059 34.504 179.816 34.3333 180.307 33.992C180.819 33.6293 181.075 33.16 181.075 32.584C181.075 32.0933 180.904 31.72 180.563 31.464C180.243 31.1867 179.752 30.984 179.091 30.856L175.891 30.248C174.568 29.992 173.555 29.512 172.851 28.808C172.168 28.0827 171.827 27.1547 171.827 26.024C171.827 25 172.104 24.1147 172.659 23.368C173.235 22.6213 174.024 22.0453 175.027 21.64C176.03 21.2347 177.182 21.032 178.483 21.032C179.422 21.032 180.296 21.1387 181.107 21.352C181.939 21.544 182.739 21.8533 183.507 22.28C183.827 22.4507 184.04 22.6747 184.147 22.952C184.275 23.2293 184.307 23.5173 184.243 23.816C184.179 24.0933 184.051 24.3493 183.859 24.584C183.667 24.7973 183.422 24.936 183.123 25C182.846 25.0427 182.526 24.9787 182.163 24.808C181.502 24.4667 180.862 24.2213 180.243 24.072C179.646 23.9227 179.07 23.848 178.515 23.848C177.47 23.848 176.691 24.0293 176.179 24.392C175.688 24.7547 175.443 25.2347 175.443 25.832C175.443 26.28 175.592 26.6533 175.891 26.952C176.19 27.2507 176.648 27.4533 177.267 27.56L180.467 28.168C181.854 28.424 182.899 28.8933 183.603 29.576C184.328 30.2587 184.691 31.176 184.691 32.328C184.691 33.8853 184.083 35.112 182.867 36.008C181.651 36.8827 180.03 37.32 178.003 37.32Z" fill="#FF69B3"/>
</svg>
